<?xml version="1.0" encoding="UTF-8" standalone="no"?>
<!DOCTYPE svg PUBLIC "-//W3C//DTD SVG 1.1//EN" "http://www.w3.org/Graphics/SVG/1.1/DTD/svg11.dtd">
<svg width="100%" height="100%" viewBox="0 0 29 29" version="1.1" xmlns="http://www.w3.org/2000/svg" xmlns:xlink="http://www.w3.org/1999/xlink" xml:space="preserve" xmlns:serif="http://www.serif.com/" style="fill-rule:evenodd;clip-rule:evenodd;stroke-linejoin:round;stroke-miterlimit:2;">
    <g>
        <path d="M14.177,27.441L14.165,27.441C11.739,27.44 9.841,27.516 8.34,27.062C2.281,25.23 2.733,19.481 2.763,19.164L3.599,5.145C3.697,3.498 5.062,2.213 6.712,2.213L21.63,2.213C23.28,2.213 24.644,3.498 24.743,5.145C24.743,5.145 25.579,19.159 25.579,19.156C25.619,19.521 26.135,25.141 20.012,27.062C18.513,27.531 16.608,27.44 14.177,27.441ZM4.637,6.785L3.894,19.241C3.893,19.25 3.893,19.259 3.892,19.267C3.892,19.267 3.366,24.374 8.668,25.977C10.085,26.405 11.876,26.306 14.165,26.307L14.177,26.307C16.466,26.306 18.261,26.421 19.673,25.979C25.054,24.292 24.451,19.278 24.451,19.278C24.45,19.266 24.449,19.254 24.448,19.241L23.705,6.785L4.637,6.785ZM19.847,23.685C19.652,23.688 19.491,23.531 19.488,23.336C19.486,23.14 19.642,22.979 19.838,22.976C19.838,22.976 20.707,22.954 21.417,22.159C21.927,21.589 22.342,20.639 22.363,19.074C22.366,18.879 22.526,18.722 22.722,18.724C22.917,18.727 23.074,18.888 23.072,19.083C23.048,20.889 22.534,21.974 21.946,22.632C21.008,23.68 19.847,23.685 19.847,23.685ZM11.903,17.268C11.448,17.374 10.983,17.791 10.598,18.322C10.559,18.376 10.157,19.221 9.138,19.332C7.896,19.468 6.623,17.953 6.623,16.704C6.623,15.913 7.063,14.991 7.678,14.586C8.726,13.68 9.821,13.647 10.598,13.648C11.725,13.649 12.36,14.229 12.514,14.39C12.742,14.183 13.008,14.018 13.3,13.906C13.182,13.462 12.772,13.011 12.255,12.636C12.201,12.597 11.356,12.195 11.245,11.176C11.109,9.934 12.624,8.661 13.873,8.661C14.664,8.661 15.586,9.101 15.99,9.716C16.897,10.764 16.93,11.859 16.929,12.636C16.927,13.944 16.146,14.589 16.146,14.589L16.077,14.581C16.278,14.809 16.441,15.073 16.551,15.363C17.032,15.293 17.532,14.857 17.941,14.293C17.98,14.239 18.382,13.394 19.401,13.283C20.643,13.147 21.915,14.662 21.915,15.911C21.915,16.702 21.476,17.624 20.861,18.028C19.813,18.935 18.718,18.968 17.941,18.967C16.633,18.965 15.988,18.184 15.988,18.184L16.009,17.994C15.783,18.229 15.512,18.42 15.209,18.553C15.262,19.045 15.706,19.559 16.284,19.979C16.337,20.018 17.183,20.42 17.294,21.439C17.43,22.681 15.915,23.953 14.666,23.953C13.875,23.953 12.953,23.514 12.548,22.899C11.642,21.851 11.609,20.756 11.61,19.979C11.611,18.671 12.393,18.026 12.393,18.026L12.426,18.029C12.208,17.812 12.029,17.554 11.903,17.268ZM14.201,14.873C13.44,14.873 12.822,15.491 12.822,16.252C12.822,17.012 13.44,17.63 14.201,17.63C14.961,17.63 15.579,17.012 15.579,16.252C15.579,15.491 14.961,14.873 14.201,14.873ZM23.662,6.076L23.611,5.213C23.548,4.164 22.68,3.346 21.63,3.346L6.712,3.346C5.662,3.346 4.794,4.164 4.731,5.213L4.68,6.076L23.662,6.076Z"/>
    </g>
</svg>
