<?xml version="1.0" encoding="UTF-8" standalone="no"?>
<!DOCTYPE svg PUBLIC "-//W3C//DTD SVG 1.1//EN" "http://www.w3.org/Graphics/SVG/1.1/DTD/svg11.dtd">
<svg width="100%" height="100%" viewBox="0 0 119 119" version="1.1" xmlns="http://www.w3.org/2000/svg" xmlns:xlink="http://www.w3.org/1999/xlink" xml:space="preserve" xmlns:serif="http://www.serif.com/" style="fill-rule:evenodd;clip-rule:evenodd;stroke-linejoin:round;stroke-miterlimit:2;">
    <g transform="matrix(1,0,0,1,-612,-3863)">
        <g id="AuBaiMarie-AH-outlined" transform="matrix(0.424857,0,0,0.509096,1355.5,3785.11)">
            <rect x="-1750" y="153" width="278" height="232" style="fill:none;"/>
            <g transform="matrix(2.62209,0,0,2.34025,-1765.85,-6641.36)">
                <path d="M21.532,2986.21L15.162,2952.27C14.945,2951.12 15.286,2949.93 16.091,2949.04C16.897,2948.14 18.086,2947.62 19.339,2947.62L28.614,2947.62L27.34,2939.94L23.273,2939.94C22.102,2939.94 21.152,2939.05 21.152,2937.96C21.152,2936.86 22.102,2935.97 23.273,2935.97L93.512,2935.97C94.683,2935.97 95.633,2936.86 95.633,2937.96C95.633,2939.05 94.683,2939.94 93.512,2939.94L90.77,2939.94L89.497,2947.62L98.771,2947.62C100.024,2947.62 101.213,2948.14 102.019,2949.04C102.825,2949.93 103.165,2951.12 102.948,2952.27L96.578,2986.21C95.332,2992.84 89.166,2997.68 81.959,2997.68L36.152,2997.68C32.87,2997.68 29.805,2996.68 27.321,2994.96C27.297,2994.96 27.273,2994.96 27.248,2994.96L27.23,2994.9C24.306,2992.84 22.204,2989.78 21.532,2986.21ZM29.271,2951.59L19.339,2951.59L23.884,2975.8L28.793,2971.21C30.136,2969.95 32.313,2969.95 33.656,2971.21L38.229,2975.49C38.831,2976.05 39.649,2976.37 40.501,2976.37C41.354,2976.37 42.171,2976.05 42.774,2975.49L47.347,2971.21C48.69,2969.95 50.867,2969.95 52.21,2971.21L56.783,2975.49C57.385,2976.05 58.203,2976.37 59.055,2976.37C59.908,2976.37 60.725,2976.05 61.328,2975.49L65.901,2971.21C67.244,2969.95 69.421,2969.95 70.763,2971.21L75.336,2975.49C75.939,2976.05 76.757,2976.37 77.609,2976.37C78.461,2976.37 79.279,2976.05 79.882,2975.49L84.476,2971.19C85.81,2969.94 87.971,2969.93 89.317,2971.17L94.245,2975.7L98.771,2951.59L88.839,2951.59L87.696,2958.48C86.935,2963.07 82.71,2966.46 77.743,2966.46L40.367,2966.46C35.4,2966.46 31.175,2963.07 30.414,2958.48L29.271,2951.59ZM30.022,2939.94L31.296,2947.62L86.814,2947.62L88.088,2939.94L30.022,2939.94ZM86.157,2951.59L31.953,2951.59L33.033,2958.1C33.594,2961.48 36.707,2963.98 40.367,2963.98L77.743,2963.98C81.403,2963.98 84.516,2961.48 85.077,2958.1L86.157,2951.59ZM38.91,2932.97C38.389,2932.87 38.368,2932.86 38.075,2932.44C37.748,2931.98 37.805,2931.95 37.9,2931.4C38.201,2929.67 38.501,2928.32 40.691,2927.27C41.952,2926.66 42.288,2926.33 43.67,2925.16C44.482,2924.47 44.387,2923.31 43.531,2922.74C42.061,2921.75 40.217,2920.58 39.749,2920.1C38.006,2918.31 38.341,2915.51 40.404,2914.12C43.749,2911.86 43.797,2911.91 44.124,2911.55C44.519,2911.11 44.707,2910.28 44.128,2909.6C43.463,2908.81 43.7,2908.69 44.162,2907.79C44.165,2907.78 45.109,2907.47 45.125,2907.47C46.313,2907.53 46.871,2909.14 46.937,2909.33C47.52,2911.01 46.851,2912.83 45.365,2913.83C42.01,2916.09 41.957,2916.04 41.64,2916.41C41.063,2917.08 41.165,2918.1 41.973,2918.64C43.442,2919.63 45.272,2920.8 45.72,2921.25C47.472,2923 47.087,2925.6 45.537,2926.92C43.57,2928.61 43.247,2928.82 41.687,2929.57C40.447,2930.17 40.61,2931.79 40.472,2932.02C40.049,2932.7 39.972,2932.75 39.905,2932.79C39.837,2932.84 39.442,2933.08 38.91,2932.97ZM51.516,2932.97C50.996,2932.87 50.974,2932.86 50.681,2932.44C50.354,2931.98 50.411,2931.95 50.506,2931.4C50.807,2929.67 51.107,2928.32 53.297,2927.27C54.559,2926.66 54.894,2926.33 56.277,2925.16C57.089,2924.47 56.994,2923.31 56.137,2922.74C54.667,2921.75 52.824,2920.58 52.355,2920.1C50.612,2918.31 50.948,2915.51 53.01,2914.12C56.355,2911.86 56.404,2911.91 56.731,2911.55C57.126,2911.11 57.314,2910.28 56.734,2909.6C56.07,2908.81 56.306,2908.69 56.768,2907.79C56.772,2907.78 57.716,2907.47 57.731,2907.47C58.919,2907.53 59.477,2909.14 59.544,2909.33C60.127,2911.01 59.458,2912.83 57.971,2913.83C54.616,2916.09 54.563,2916.04 54.247,2916.41C53.67,2917.08 53.772,2918.1 54.579,2918.64C56.048,2919.63 57.879,2920.8 58.326,2921.25C60.078,2923 59.693,2925.6 58.144,2926.92C56.176,2928.61 55.854,2928.82 54.293,2929.57C53.053,2930.17 53.216,2931.79 53.079,2932.02C52.656,2932.7 52.578,2932.75 52.511,2932.79C52.444,2932.84 52.048,2933.08 51.516,2932.97ZM64.123,2932.97C63.602,2932.87 63.581,2932.86 63.287,2932.44C62.961,2931.98 63.018,2931.95 63.113,2931.4C63.414,2929.67 63.714,2928.32 65.904,2927.27C67.165,2926.66 67.501,2926.33 68.883,2925.16C69.695,2924.47 69.6,2923.31 68.744,2922.74C67.274,2921.75 65.43,2920.58 64.962,2920.1C63.219,2918.31 63.554,2915.51 65.617,2914.12C68.962,2911.86 69.01,2911.91 69.337,2911.55C69.732,2911.11 69.92,2910.28 69.341,2909.6C68.676,2908.81 68.913,2908.69 69.375,2907.79C69.378,2907.78 70.322,2907.47 70.337,2907.47C71.526,2907.53 72.084,2909.14 72.15,2909.33C72.733,2911.01 72.064,2912.83 70.578,2913.83C67.223,2916.09 67.17,2916.04 66.853,2916.41C66.276,2917.08 66.378,2918.1 67.186,2918.64C68.655,2919.63 70.485,2920.8 70.932,2921.25C72.684,2923 72.3,2925.6 70.75,2926.92C68.783,2928.61 68.46,2928.82 66.9,2929.57C65.66,2930.17 65.823,2931.79 65.685,2932.02C65.262,2932.7 65.185,2932.75 65.118,2932.79C65.05,2932.84 64.655,2933.08 64.123,2932.97ZM76.729,2932.97C76.209,2932.87 76.187,2932.86 75.894,2932.44C75.567,2931.98 75.624,2931.95 75.719,2931.4C76.02,2929.67 76.32,2928.32 78.51,2927.27C79.772,2926.66 80.107,2926.33 81.489,2925.16C82.302,2924.47 82.207,2923.31 81.35,2922.74C79.88,2921.75 78.037,2920.58 77.568,2920.1C75.825,2918.31 76.16,2915.51 78.223,2914.12C81.568,2911.86 81.617,2911.91 81.944,2911.55C82.339,2911.11 82.527,2910.28 81.947,2909.6C81.283,2908.81 81.519,2908.69 81.981,2907.79C81.985,2907.78 82.929,2907.47 82.944,2907.47C84.132,2907.53 84.69,2909.14 84.756,2909.33C85.34,2911.01 84.671,2912.83 83.184,2913.83C79.829,2916.09 79.776,2916.04 79.46,2916.41C78.883,2917.08 78.985,2918.1 79.792,2918.64C81.261,2919.63 83.092,2920.8 83.539,2921.25C85.291,2923 84.906,2925.6 83.357,2926.92C81.389,2928.61 81.067,2928.82 79.506,2929.57C78.266,2930.17 78.429,2931.79 78.292,2932.02C77.869,2932.7 77.791,2932.75 77.724,2932.79C77.656,2932.84 77.261,2933.08 76.729,2932.97Z" style="fill:rgb(0,1,0);"/>
            </g>
        </g>
    </g>
</svg>
