<?xml version="1.0" encoding="UTF-8" standalone="no"?>
<!DOCTYPE svg PUBLIC "-//W3C//DTD SVG 1.1//EN" "http://www.w3.org/Graphics/SVG/1.1/DTD/svg11.dtd">
<svg width="100%" height="100%" viewBox="0 0 29 29" version="1.1" xmlns="http://www.w3.org/2000/svg" xmlns:xlink="http://www.w3.org/1999/xlink" xml:space="preserve" xmlns:serif="http://www.serif.com/" style="fill-rule:evenodd;clip-rule:evenodd;stroke-linejoin:round;stroke-miterlimit:2;">
    <g>
        <path d="M26.929,7.382C26.929,7.382 26.929,11.28 26.929,11.279C26.931,11.418 26.95,14.04 25.919,16.66C25.231,18.409 24.078,20.148 22.181,21.194L22.181,21.559C22.181,22.655 21.293,23.543 20.197,23.543L8.149,23.543C7.054,23.543 6.165,22.655 6.165,21.559C6.165,21.559 6.165,21.194 6.165,21.195C4.268,20.148 3.116,18.409 2.428,16.66C1.398,14.044 1.416,11.425 1.417,11.28L1.417,7.382C1.417,7.069 1.671,6.815 1.984,6.815L26.362,6.815C26.675,6.815 26.929,7.069 26.929,7.382ZM25.795,10.22L25.795,7.949L2.551,7.949L2.551,10.22L25.795,10.22ZM2.551,10.929L2.551,11.293C2.551,11.293 2.509,13.77 3.483,16.245C4.112,17.846 5.17,19.455 6.981,20.341C7.176,20.436 7.299,20.634 7.299,20.851L7.299,21.559C7.299,22.03 7.68,22.409 8.149,22.409L20.197,22.409C20.666,22.409 21.047,22.03 21.047,21.559L21.047,20.851C21.047,20.634 21.171,20.436 21.365,20.341C23.177,19.455 24.234,17.846 24.864,16.245C25.837,13.77 25.795,11.293 25.795,11.293L25.795,10.929L2.551,10.929ZM23.387,13.205C23.404,13.01 23.576,12.866 23.771,12.883C23.966,12.9 24.11,13.073 24.093,13.267C23.974,14.626 23.32,16.878 20.897,18.585C20.737,18.698 20.516,18.659 20.403,18.5C20.291,18.34 20.329,18.118 20.489,18.006C22.679,16.463 23.279,14.433 23.387,13.205Z"/>
    </g>
</svg>
