<?xml version="1.0" encoding="UTF-8" standalone="no"?>
<!DOCTYPE svg PUBLIC "-//W3C//DTD SVG 1.1//EN" "http://www.w3.org/Graphics/SVG/1.1/DTD/svg11.dtd">
<svg width="100%" height="100%" viewBox="0 0 29 29" version="1.1" xmlns="http://www.w3.org/2000/svg" xmlns:xlink="http://www.w3.org/1999/xlink" xml:space="preserve" xmlns:serif="http://www.serif.com/" style="fill-rule:evenodd;clip-rule:evenodd;stroke-linejoin:round;stroke-miterlimit:2;">
    <g>
        <path d="M1.417,10.22L1.417,7.382C1.417,7.069 1.671,6.815 1.984,6.815L26.362,6.815C26.675,6.815 26.929,7.069 26.929,7.382L26.929,10.22L1.417,10.22ZM26.929,10.929L26.929,11.279C26.931,11.418 26.95,14.04 25.919,16.66C25.231,18.409 24.078,20.148 22.181,21.194L22.181,21.559C22.181,22.655 21.293,23.543 20.197,23.543L8.149,23.543C7.054,23.543 6.165,22.655 6.165,21.559C6.165,21.559 6.165,21.194 6.165,21.195C4.268,20.148 3.116,18.409 2.428,16.66C1.398,14.044 1.416,11.425 1.417,11.28L1.417,10.929L26.929,10.929ZM23.387,13.205C23.279,14.433 22.679,16.463 20.489,18.006C20.329,18.118 20.291,18.34 20.403,18.5C20.516,18.659 20.737,18.698 20.897,18.585C23.32,16.878 23.974,14.626 24.093,13.267C24.11,13.073 23.966,12.9 23.771,12.883C23.576,12.866 23.404,13.01 23.387,13.205Z"/>
    </g>
</svg>
