<?xml version="1.0" encoding="UTF-8" standalone="no"?>
<!DOCTYPE svg PUBLIC "-//W3C//DTD SVG 1.1//EN" "http://www.w3.org/Graphics/SVG/1.1/DTD/svg11.dtd">
<svg width="100%" height="100%" viewBox="0 0 119 119" version="1.1" xmlns="http://www.w3.org/2000/svg" xmlns:xlink="http://www.w3.org/1999/xlink" xml:space="preserve" xmlns:serif="http://www.serif.com/" style="fill-rule:evenodd;clip-rule:evenodd;stroke-linejoin:round;stroke-miterlimit:2;">
    <g transform="matrix(1,0,0,1,-213,-3634)">
        <g id="Broodrooster-AH-outlined" transform="matrix(0.424857,0,0,0.509096,956.5,3556.11)">
            <rect x="-1750" y="153" width="278" height="232" style="fill:none;"/>
            <g transform="matrix(2.54054,0,2.93751e-32,2.25172,-1759.16,-7028.26)">
                <path d="M19.72,3280.16L11.811,3280.16C10.602,3280.16 9.623,3279.23 9.623,3278.1L9.623,3227.87C9.623,3221.04 15.501,3215.5 22.754,3215.5L26.263,3215.5C22.844,3208.48 23.139,3203.75 25.153,3200.7C27.38,3197.32 31.907,3195.68 37.147,3195.29C44.137,3194.77 52.358,3196.36 56.456,3197.53C57.583,3197.84 58.679,3197.98 59.739,3197.97L59.747,3197.97C60.807,3197.98 61.903,3197.84 63.03,3197.53C67.12,3196.37 74.785,3194.47 81.351,3194.75C86.338,3194.96 90.683,3196.47 92.985,3199.92C95.048,3203.01 95.559,3207.95 92.738,3215.5L93.88,3215.5C101.132,3215.5 107.011,3221.04 107.011,3227.87L107.011,3278.1C107.011,3279.23 106.032,3280.16 104.823,3280.16L96.914,3280.16C96.936,3280.33 96.948,3280.5 96.948,3280.67L96.948,3282.6C96.948,3284.88 94.986,3286.72 92.571,3286.72C90.155,3286.72 88.194,3284.88 88.194,3282.6L88.194,3280.67C88.194,3280.5 88.205,3280.33 88.228,3280.16L28.406,3280.16C28.429,3280.33 28.44,3280.5 28.44,3280.67L28.44,3282.6C28.44,3284.88 26.479,3286.72 24.063,3286.72C21.647,3286.72 19.686,3284.88 19.686,3282.6L19.686,3280.67C19.686,3280.5 19.698,3280.33 19.72,3280.16ZM93.88,3219.62L22.754,3219.62C17.919,3219.62 14,3223.32 14,3227.87C14,3227.87 14,3247.34 14,3261.52L102.634,3261.52L102.634,3227.87C102.634,3223.32 98.715,3219.62 93.88,3219.62ZM14,3264.1C14,3270.96 14,3276.03 14,3276.03L102.634,3276.03L102.634,3264.1L14,3264.1ZM88.075,3215.5C90.826,3208.9 91.014,3204.72 89.278,3202.11C87.699,3199.74 84.574,3199.01 81.153,3198.86C75.107,3198.61 68.057,3200.41 64.29,3201.47C62.73,3201.91 61.212,3202.1 59.743,3202.1C58.274,3202.1 56.756,3201.91 55.196,3201.47C51.437,3200.41 43.901,3198.92 37.491,3199.39C33.796,3199.67 30.441,3200.49 28.871,3202.87C28.084,3204.06 27.82,3205.63 28.123,3207.64C28.448,3209.8 29.413,3212.39 31.132,3215.5C40.623,3215.5 78.584,3215.5 88.075,3215.5ZM81.57,3227.87C80.815,3227.87 80.202,3227.29 80.202,3226.58C80.202,3225.87 80.815,3225.29 81.57,3225.29L92.116,3225.29C94.601,3225.29 96.616,3227.19 96.616,3229.53L96.616,3247.19C96.616,3247.9 96.003,3248.47 95.248,3248.47C94.493,3248.47 93.88,3247.9 93.88,3247.19L93.88,3229.53C93.88,3228.61 93.09,3227.87 92.115,3227.87L81.57,3227.87ZM33.42,3230.56C36.857,3230.56 39.648,3233.19 39.648,3236.42C39.648,3239.66 36.857,3242.29 33.42,3242.29C29.982,3242.29 27.192,3239.66 27.192,3236.42C27.192,3233.19 29.982,3230.56 33.42,3230.56Z"/>
            </g>
        </g>
    </g>
</svg>
