<?xml version="1.0" encoding="UTF-8" standalone="no"?>
<!DOCTYPE svg PUBLIC "-//W3C//DTD SVG 1.1//EN" "http://www.w3.org/Graphics/SVG/1.1/DTD/svg11.dtd">
<svg width="100%" height="100%" viewBox="0 0 119 119" version="1.1" xmlns="http://www.w3.org/2000/svg" xmlns:xlink="http://www.w3.org/1999/xlink" xml:space="preserve" xmlns:serif="http://www.serif.com/" style="fill-rule:evenodd;clip-rule:evenodd;stroke-linejoin:round;stroke-miterlimit:2;">
    <g transform="matrix(1,0,0,1,-401,-4042)">
        <g id="Broodrooster-AH-outlined" transform="matrix(0.424857,0,0,0.509096,1144.5,3964.11)">
            <rect x="-1750" y="153" width="278" height="232" style="fill:none;"/>
            <g transform="matrix(2.54054,0,2.93751e-32,2.25172,-1759.16,-7028.26)">
                <path d="M19.72,3280.16L11.811,3280.16C10.602,3280.16 9.623,3279.23 9.623,3278.1L9.623,3227.87C9.623,3221.04 15.501,3215.5 22.754,3215.5L93.88,3215.5C101.132,3215.5 107.011,3221.04 107.011,3227.87L107.011,3278.1C107.011,3279.23 106.032,3280.16 104.823,3280.16L96.914,3280.16C96.936,3280.33 96.948,3280.5 96.948,3280.67L96.948,3282.6C96.948,3284.88 94.986,3286.72 92.571,3286.72C90.155,3286.72 88.194,3284.88 88.194,3282.6L88.194,3280.67C88.194,3280.5 88.205,3280.33 88.228,3280.16L28.406,3280.16C28.429,3280.33 28.44,3280.5 28.44,3280.67L28.44,3282.6C28.44,3284.88 26.479,3286.72 24.063,3286.72C21.647,3286.72 19.686,3284.88 19.686,3282.6L19.686,3280.67C19.686,3280.5 19.698,3280.33 19.72,3280.16ZM102.634,3261.52L102.634,3227.87C102.634,3223.32 98.715,3219.62 93.88,3219.62L22.754,3219.62C17.919,3219.62 14,3223.32 14,3227.87L14,3261.52L102.634,3261.52ZM81.57,3227.87C80.815,3227.87 80.202,3227.29 80.202,3226.58C80.202,3225.87 80.815,3225.29 81.57,3225.29L92.116,3225.29C94.601,3225.29 96.616,3227.19 96.616,3229.53L96.616,3247.19C96.616,3247.9 96.003,3248.47 95.248,3248.47C94.493,3248.47 93.88,3247.9 93.88,3247.19L93.88,3229.53C93.88,3228.61 93.09,3227.87 92.115,3227.87L81.57,3227.87ZM33.42,3230.56C36.857,3230.56 39.648,3233.19 39.648,3236.42C39.648,3239.66 36.857,3242.29 33.42,3242.29C29.982,3242.29 27.192,3239.66 27.192,3236.42C27.192,3233.19 29.982,3230.56 33.42,3230.56ZM14,3264.1L14,3276.03L102.634,3276.03L102.634,3264.1L14,3264.1ZM29.822,3212.41C14.722,3186.61 46.473,3191.7 55.826,3194.35C57.17,3194.73 58.478,3194.89 59.743,3194.88C61.008,3194.89 62.316,3194.73 63.66,3194.35C73.013,3191.7 101.81,3184.87 89.548,3212.41L29.822,3212.41Z"/>
            </g>
        </g>
    </g>
</svg>
