<?xml version="1.0" encoding="UTF-8" standalone="no"?>
<!DOCTYPE svg PUBLIC "-//W3C//DTD SVG 1.1//EN" "http://www.w3.org/Graphics/SVG/1.1/DTD/svg11.dtd">
<svg width="100%" height="100%" viewBox="0 0 29 29" version="1.1" xmlns="http://www.w3.org/2000/svg" xmlns:xlink="http://www.w3.org/1999/xlink" xml:space="preserve" xmlns:serif="http://www.serif.com/" style="fill-rule:evenodd;clip-rule:evenodd;stroke-linejoin:round;stroke-miterlimit:2;">
    <g>
        <path d="M22.556,18.464C21.644,22.959 16.936,26.025 12.137,26.025C6.792,26.025 1.559,22.221 1.559,16.876L1.559,7.44C1.559,6.809 2.07,6.298 2.701,6.298L4.535,6.298L4.535,5.899C4.535,5.515 4.725,5.154 5.068,4.866C5.504,4.5 6.205,4.251 6.999,4.251C7.249,4.251 7.489,4.276 7.715,4.32C7.867,4.045 8.106,3.793 8.417,3.583C8.987,3.196 9.809,2.948 10.724,2.948C11.642,2.948 12.467,3.199 13.038,3.588C13.349,3.799 13.588,4.053 13.738,4.331C13.998,4.279 14.274,4.251 14.561,4.251C15.605,4.251 16.505,4.631 16.979,5.161C17.233,5.071 17.527,5.018 17.84,5.018C18.428,5.018 18.946,5.205 19.269,5.476C19.536,5.7 19.681,5.984 19.681,6.283C19.681,6.288 19.68,6.293 19.68,6.298L21.573,6.298C22.203,6.298 22.714,6.809 22.714,7.44L22.714,9.807L25.262,9.833C26.107,9.841 26.787,10.529 26.787,11.374L26.787,14.747C26.787,16.355 25.675,17.75 24.107,18.109L22.556,18.464ZM17.086,13.194L17.044,16.383L17.044,16.388C17.044,19.111 14.775,20.237 12.051,20.237C11.856,20.237 11.697,20.396 11.697,20.591C11.697,20.787 11.856,20.945 12.051,20.945C15.204,20.945 17.751,19.542 17.753,16.39L17.795,13.203C17.797,13.007 17.641,12.847 17.445,12.844C17.25,12.841 17.089,12.998 17.086,13.194ZM18.992,6.298L18.992,6.283C18.992,6.137 18.873,6.021 18.718,5.925C18.493,5.787 18.182,5.707 17.84,5.707C17.53,5.707 17.246,5.773 17.027,5.889C16.866,5.974 16.665,5.918 16.571,5.761C16.271,5.262 15.477,4.94 14.561,4.94C14.229,4.94 13.913,4.984 13.629,5.065C13.448,5.116 13.259,5.012 13.205,4.831C13.128,4.572 12.927,4.344 12.651,4.157C12.176,3.833 11.487,3.636 10.724,3.636C9.963,3.636 9.277,3.832 8.802,4.153C8.526,4.34 8.323,4.566 8.245,4.824C8.189,5.005 7.999,5.107 7.818,5.054C7.57,4.98 7.292,4.94 6.999,4.94C6.389,4.94 5.845,5.112 5.51,5.393C5.338,5.537 5.224,5.707 5.224,5.899L5.224,6.298L18.992,6.298ZM22.714,10.941L22.714,16.876C22.714,17.007 22.711,17.138 22.705,17.267L23.854,17.004C24.907,16.763 25.654,15.827 25.654,14.747L25.654,11.374C25.654,11.151 25.474,10.969 25.251,10.967L22.714,10.941ZM4.465,7.432L2.701,7.432C2.696,7.432 2.693,7.436 2.693,7.44L2.693,16.876C2.693,21.61 7.403,24.89 12.137,24.89C16.871,24.89 21.581,21.61 21.581,16.876L21.581,7.44C21.581,7.436 21.577,7.432 21.573,7.432L19.809,7.432L19.809,16.118C19.809,20.357 15.917,23.118 12.137,23.118C8.357,23.118 4.465,20.357 4.465,16.118L4.465,7.432ZM19.12,7.554L5.153,7.554L5.153,9.756L19.12,9.756L19.12,7.554Z"/>
    </g>
</svg>
