<?xml version="1.0" encoding="UTF-8" standalone="no"?>
<!DOCTYPE svg PUBLIC "-//W3C//DTD SVG 1.1//EN" "http://www.w3.org/Graphics/SVG/1.1/DTD/svg11.dtd">
<svg width="100%" height="100%" viewBox="0 0 29 29" version="1.1" xmlns="http://www.w3.org/2000/svg" xmlns:xlink="http://www.w3.org/1999/xlink" xml:space="preserve" xmlns:serif="http://www.serif.com/" style="fill-rule:evenodd;clip-rule:evenodd;stroke-linejoin:round;stroke-miterlimit:2;">
    <g>
        <path d="M7.69,21.143L9.763,21.143L9.776,13.584C9.005,13.638 7.126,13.584 5.522,12.055C5.5,12.034 5.479,12.013 5.457,11.992L2.48,11.992C2.336,11.992 2.207,11.905 2.152,11.772C2.152,11.772 1.552,10.308 1.506,8.543C1.474,7.34 1.701,6.002 2.52,4.878C3.39,3.686 4.932,2.719 7.591,2.449C8.362,2.37 8.998,2.377 9.519,2.448C11.506,2.506 13.406,3.628 14.359,5.54C14.689,5.746 15.493,6.256 16.758,6.779C19.533,7.928 21.519,7.923 22.987,7.982C25.611,8.087 26.679,8.017 26.849,9.386C26.867,9.53 26.873,9.634 26.872,9.71C26.885,9.732 26.893,9.755 26.892,9.781L25.898,26.188C25.886,26.383 25.718,26.54 25.523,26.54C25.086,26.541 20.065,26.546 20.053,26.54C20.034,26.532 20.014,26.526 19.993,26.52C18.167,26.527 1.783,26.587 1.717,26.576C1.55,26.55 1.418,26.401 1.417,26.226C1.417,26.085 1.414,24.707 1.419,24.293C1.418,24.274 1.417,24.256 1.417,24.238L1.417,21.852C1.417,21.46 1.734,21.143 2.126,21.143L3.704,21.143C3.62,21.015 3.566,20.865 3.551,20.703L3.17,16.633C3.16,16.528 3.195,16.424 3.266,16.346C3.337,16.268 3.438,16.223 3.543,16.223L7.852,16.223C7.957,16.223 8.057,16.268 8.128,16.346C8.2,16.424 8.235,16.528 8.225,16.633L7.844,20.703C7.829,20.865 7.775,21.015 7.69,21.143ZM9.762,21.852L2.126,21.852L2.126,23.808C2.743,23.772 4.167,23.881 9.759,23.825L9.762,21.852ZM26.121,10.112C24.217,10.116 22.313,10.11 20.409,10.115C20.406,12.85 20.412,15.096 20.424,16.946C20.898,16.945 21.954,16.952 25.706,16.953L26.121,10.112ZM25.663,17.668C25.203,17.67 24.186,17.662 20.429,17.661C20.473,23.593 20.566,25.107 20.502,25.783C22.058,25.767 23.615,25.822 25.17,25.79L25.663,17.668ZM13.839,8.378C13.849,9.855 13.062,11.222 11.81,11.965C11.642,12.064 11.586,12.282 11.686,12.45C11.785,12.618 12.003,12.674 12.171,12.574C13.638,11.704 14.559,10.103 14.548,8.374C14.546,8.178 14.386,8.021 14.191,8.022C13.995,8.023 13.838,8.183 13.839,8.378ZM6.272,3.385C4.708,3.76 3.708,4.453 3.093,5.296C2.372,6.285 2.186,7.465 2.214,8.524C2.247,9.76 2.572,10.836 2.727,11.283L4.846,11.283C3.011,8.756 3.64,5.135 6.272,3.385Z"/>
    </g>
</svg>
