<?xml version="1.0" encoding="UTF-8" standalone="no"?>
<!DOCTYPE svg PUBLIC "-//W3C//DTD SVG 1.1//EN" "http://www.w3.org/Graphics/SVG/1.1/DTD/svg11.dtd">
<svg width="100%" height="100%" viewBox="0 0 29 29" version="1.1" xmlns="http://www.w3.org/2000/svg" xmlns:xlink="http://www.w3.org/1999/xlink" xml:space="preserve" xmlns:serif="http://www.serif.com/" style="fill-rule:evenodd;clip-rule:evenodd;stroke-linejoin:round;stroke-miterlimit:2;">
    <g>
        <path d="M3.285,8.815L2.446,8.815C1.878,8.815 1.417,8.354 1.417,7.786L1.417,6.674C1.417,6.106 1.878,5.646 2.446,5.646L25.901,5.646C26.469,5.646 26.929,6.106 26.929,6.674L26.929,7.786C26.929,8.354 26.469,8.815 25.901,8.815L25.062,8.815C24.997,10.508 24.774,14.26 24.034,16.758C23.757,17.691 23.399,18.458 22.974,18.927C22.6,19.34 22.167,19.553 21.69,19.553L21.122,19.553C21.074,19.781 20.98,20.052 20.808,20.34C20.417,20.99 19.548,21.803 17.574,22.245C17.546,22.6 17.416,23.207 16.887,23.727C16.419,24.187 15.609,24.606 14.173,24.606C12.737,24.606 11.927,24.187 11.459,23.727C10.93,23.207 10.8,22.6 10.773,22.245C8.799,21.803 7.93,20.99 7.539,20.34C7.365,20.052 7.272,19.781 7.225,19.553L6.656,19.553C6.18,19.553 5.746,19.34 5.372,18.927C4.947,18.458 4.59,17.691 4.313,16.758C3.573,14.26 3.35,10.508 3.285,8.815ZM6.656,18.419L21.69,18.419C21.926,18.419 22.101,18.235 22.274,17.988C22.543,17.606 22.76,17.064 22.946,16.435C23.654,14.047 23.866,10.469 23.928,8.815L4.418,8.815C4.48,10.469 4.692,14.047 5.4,16.435C5.586,17.064 5.804,17.606 6.072,17.988C6.245,18.235 6.421,18.419 6.656,18.419ZM16.387,22.446C15.742,22.524 15.008,22.569 14.173,22.569C13.338,22.569 12.605,22.524 11.959,22.446C12.008,22.593 12.096,22.763 12.254,22.918C12.582,23.24 13.168,23.472 14.173,23.472C15.179,23.472 15.765,23.24 16.093,22.918C16.25,22.763 16.337,22.593 16.387,22.446ZM8.402,19.553C8.683,20.242 9.8,21.435 14.173,21.435C18.547,21.435 19.664,20.242 19.944,19.553L8.402,19.553ZM21.529,10.651C21.552,10.457 21.729,10.318 21.924,10.342C22.118,10.366 22.256,10.543 22.232,10.737C22.232,10.737 21.867,13.709 21.025,16.233C20.963,16.419 20.763,16.519 20.577,16.457C20.392,16.396 20.291,16.195 20.353,16.009C21.173,13.548 21.529,10.651 21.529,10.651Z"/>
    </g>
</svg>
