<?xml version="1.0" encoding="UTF-8" standalone="no"?>
<!DOCTYPE svg PUBLIC "-//W3C//DTD SVG 1.1//EN" "http://www.w3.org/Graphics/SVG/1.1/DTD/svg11.dtd">
<svg width="100%" height="100%" viewBox="0 0 29 29" version="1.1" xmlns="http://www.w3.org/2000/svg" xmlns:xlink="http://www.w3.org/1999/xlink" xml:space="preserve" xmlns:serif="http://www.serif.com/" style="fill-rule:evenodd;clip-rule:evenodd;stroke-linejoin:round;stroke-miterlimit:2;">
    <g>
        <path d="M21.152,18.236C19.667,21.816 16.073,23.915 12.08,23.915C7.174,23.915 2.975,20.717 2.341,15.551C1.609,9.584 1.559,9.59 1.559,7.237C1.559,6.409 2.229,5.738 3.057,5.738L21.104,5.738C21.931,5.738 22.602,6.409 22.602,7.237C22.602,8.227 22.57,8.796 22.488,9.57C23.143,9.576 24.38,9.586 25.251,9.593C26.102,9.601 26.787,10.294 26.787,11.143L26.787,14.304C26.787,15.979 25.59,17.416 23.943,17.721C22.598,17.97 21.182,18.231 21.182,18.231C21.172,18.233 21.162,18.234 21.152,18.236ZM3.467,15.413C4.027,19.974 7.748,22.781 12.08,22.781C16.409,22.781 20.232,20.01 20.693,15.425C21.285,9.533 21.468,9.554 21.468,7.237C21.468,7.035 21.305,6.872 21.104,6.872L3.057,6.872C2.856,6.872 2.693,7.035 2.693,7.237C2.693,9.551 2.746,9.544 3.467,15.413ZM18.152,12.484C18.264,12.484 18.37,12.531 18.444,12.615C18.519,12.698 18.554,12.809 18.542,12.92C18.471,13.558 18.392,14.304 18.303,15.185C17.973,18.466 15.179,20.379 12.08,20.379C8.964,20.379 6.253,18.401 5.851,15.12C5.746,14.269 5.656,13.546 5.578,12.925C5.564,12.813 5.598,12.701 5.673,12.616C5.748,12.532 5.855,12.484 5.968,12.484L18.152,12.484ZM15.304,14.522C15.304,14.522 15.36,17.107 13.022,17.475C12.829,17.506 12.696,17.688 12.727,17.881C12.757,18.074 12.939,18.206 13.132,18.176C16.052,17.715 16.013,14.511 16.013,14.511C16.01,14.315 15.849,14.159 15.653,14.162C15.457,14.165 15.301,14.327 15.304,14.522ZM4.963,8.494C4.939,8.3 5.076,8.122 5.27,8.097C5.464,8.073 5.642,8.21 5.666,8.404C5.676,8.481 5.712,9.954 5.859,10.873C5.89,11.066 5.759,11.248 5.566,11.279C5.373,11.31 5.191,11.179 5.16,10.985C5.01,10.058 4.973,8.571 4.963,8.494ZM22.356,10.703C22.235,11.71 22.062,13.142 21.821,15.539C21.77,16.048 21.682,16.538 21.562,17.008C22.098,16.909 22.93,16.755 23.736,16.606C24.847,16.401 25.653,15.433 25.653,14.304L25.653,11.143C25.653,10.915 25.469,10.729 25.241,10.727C24.313,10.72 22.969,10.708 22.356,10.703Z"/>
    </g>
</svg>
