<?xml version="1.0" encoding="UTF-8" standalone="no"?>
<!DOCTYPE svg PUBLIC "-//W3C//DTD SVG 1.1//EN" "http://www.w3.org/Graphics/SVG/1.1/DTD/svg11.dtd">
<svg width="100%" height="100%" viewBox="0 0 29 29" version="1.1" xmlns="http://www.w3.org/2000/svg" xmlns:xlink="http://www.w3.org/1999/xlink" xml:space="preserve" xmlns:serif="http://www.serif.com/" style="fill-rule:evenodd;clip-rule:evenodd;stroke-linejoin:round;stroke-miterlimit:2;">
    <g>
        <path d="M23.711,24.395L26.452,24.395C26.585,24.395 26.712,24.448 26.805,24.541C26.899,24.635 26.951,24.762 26.951,24.894L26.951,25.828C26.951,26.787 26.174,27.564 25.216,27.564L3.153,27.564C2.194,27.564 1.417,26.787 1.417,25.828L1.417,25.014C1.417,24.672 1.695,24.395 2.036,24.395L4.631,24.395L4.631,2.743C4.631,2.372 4.93,2.071 5.298,2.071L22.93,2.071C23.298,2.071 23.597,2.372 23.597,2.743L23.597,5.925C23.597,6.296 23.298,6.597 22.93,6.597L18.067,6.597L18.067,8.214L23,8.214C23.253,7.763 23.976,7.437 24.827,7.437C25.889,7.437 26.751,7.944 26.751,8.568C26.751,9.193 25.889,9.7 24.827,9.7C23.976,9.7 23.253,9.374 23,8.923L18.067,8.923L18.067,9.678C18.067,10.078 17.908,10.461 17.625,10.744C17.342,11.027 16.959,11.186 16.559,11.186L16.292,11.186L16.309,11.216L14.337,12.4C14.038,12.579 13.661,12.56 13.382,12.351L11.842,11.195L11.849,11.186L11.624,11.186C11.224,11.186 10.84,11.027 10.558,10.744C10.275,10.461 10.116,10.078 10.116,9.678L10.116,6.597L5.765,6.597L5.765,22.204L12.155,22.204C11.18,21.645 10.47,20.656 10.47,19.436L10.47,16.197C10.47,15.88 10.727,15.623 11.045,15.623L16.978,15.623C17.295,15.623 17.553,15.88 17.553,16.197L17.553,16.958L18.549,16.958C18.901,16.958 19.239,17.098 19.488,17.347C19.737,17.596 19.877,17.934 19.877,18.286L19.877,19.128C19.877,19.862 19.283,20.456 18.549,20.456L17.376,20.456C17.108,21.205 16.553,21.811 15.868,22.204L22.577,22.204L22.577,11.16C22.577,10.848 22.831,10.594 23.144,10.594C23.457,10.594 23.711,10.848 23.711,11.16L23.711,24.395ZM5.765,24.395L22.577,24.395L22.577,22.913L5.765,22.913L5.765,24.395ZM17.358,6.597L10.824,6.597L10.824,8.214L17.358,8.214L17.358,6.597ZM14.983,11.186L13.01,11.186L13.807,11.784C13.855,11.82 13.921,11.823 13.972,11.792L14.983,11.186ZM10.824,8.923L10.824,9.678C10.824,9.89 10.909,10.093 11.059,10.243C11.209,10.393 11.412,10.477 11.624,10.477L16.559,10.477C16.771,10.477 16.974,10.393 17.124,10.243C17.274,10.093 17.358,9.89 17.358,9.678L17.358,8.923L10.824,8.923ZM17.553,17.667L17.553,19.436C17.553,19.542 17.547,19.646 17.537,19.748L18.549,19.748C18.891,19.748 19.169,19.47 19.169,19.128L19.169,18.286C19.169,18.122 19.103,17.964 18.987,17.848C18.871,17.732 18.713,17.667 18.549,17.667L17.553,17.667ZM7.442,3.429C6.947,3.429 6.545,3.834 6.545,4.334C6.545,4.834 6.947,5.239 7.442,5.239C7.937,5.239 8.34,4.834 8.34,4.334C8.34,3.834 7.937,3.429 7.442,3.429ZM10.585,3.515C10.113,3.515 9.73,3.902 9.73,4.377C9.73,4.853 10.113,5.239 10.585,5.239C11.057,5.239 11.44,4.853 11.44,4.377C11.44,3.902 11.057,3.515 10.585,3.515Z"/>
    </g>
</svg>
