<?xml version="1.0" encoding="UTF-8" standalone="no"?>
<!DOCTYPE svg PUBLIC "-//W3C//DTD SVG 1.1//EN" "http://www.w3.org/Graphics/SVG/1.1/DTD/svg11.dtd">
<svg width="100%" height="100%" viewBox="0 0 29 29" version="1.1" xmlns="http://www.w3.org/2000/svg" xmlns:xlink="http://www.w3.org/1999/xlink" xml:space="preserve" xmlns:serif="http://www.serif.com/" style="fill-rule:evenodd;clip-rule:evenodd;stroke-linejoin:round;stroke-miterlimit:2;">
    <g>
        <path d="M9.117,25.262L25.992,25.262C26.275,25.262 26.504,25.486 26.504,25.76L26.504,27.085C26.504,27.36 26.275,27.583 25.992,27.583L2.365,27.583C2.06,27.583 1.813,27.342 1.813,27.044L1.813,25.262L1.843,25.262L1.843,2.653C1.843,2.332 2.104,2.071 2.425,2.071L8.535,2.071C8.856,2.071 9.117,2.332 9.117,2.653L9.117,8.973L13.441,8.973C12.855,7.719 11.624,5.08 10.985,3.712L10.984,3.71C10.816,3.348 10.844,2.923 11.058,2.586L11.059,2.584C11.276,2.246 11.649,2.041 12.049,2.041L22.524,2.041C22.901,2.041 23.255,2.229 23.467,2.541C23.468,2.542 23.469,2.543 23.47,2.544C23.68,2.858 23.723,3.255 23.582,3.606C23.041,4.96 21.942,7.708 21.435,8.973L25.983,8.973C26.27,8.973 26.504,9.196 26.504,9.472L26.504,10.747C26.504,11.023 26.27,11.246 25.983,11.246L9.117,11.246L9.117,25.262ZM2.977,8.973L7.983,8.973L7.983,3.205L2.977,3.205L2.977,8.973ZM14.692,8.973L20.214,8.973C20.585,8.046 21.916,4.72 22.529,3.185L22.529,3.184C22.53,3.182 22.53,3.18 22.528,3.177C22.527,3.176 22.526,3.175 22.524,3.175L12.049,3.175C12.035,3.175 12.023,3.183 12.014,3.195C12.008,3.207 12.007,3.221 12.013,3.234C12.753,4.818 14.286,8.103 14.692,8.973ZM16.17,7.314C16.247,7.493 16.163,7.702 15.983,7.779C15.804,7.856 15.595,7.773 15.518,7.593L14.397,4.977C14.32,4.797 14.403,4.588 14.583,4.511C14.763,4.434 14.972,4.518 15.049,4.698L16.17,7.314ZM24.022,20.905L24.22,21.662C24.371,22.244 24.245,22.86 23.877,23.335C23.511,23.81 22.944,24.089 22.345,24.089L12.767,24.089C12.156,24.089 11.581,23.8 11.215,23.311L11.214,23.31C10.85,22.821 10.735,22.19 10.908,21.603C11.473,19.682 12.333,16.758 12.589,15.886C12.354,15.534 11.882,14.826 11.499,14.251L11.365,13.976L11.311,13.68L11.336,13.38L11.443,13.094L11.622,12.847L11.857,12.659L12.134,12.539L12.437,12.498L21.391,12.498C21.649,12.498 21.874,12.673 21.939,12.923L22.303,14.316L24.186,14.316C24.801,14.316 25.39,14.56 25.825,14.995C26.26,15.43 26.504,16.019 26.504,16.634L26.504,18.588C26.504,19.867 25.466,20.905 24.186,20.905L24.022,20.905ZM22.821,20.793C22.163,18.271 21.263,14.822 20.953,13.632L12.449,13.632C12.981,14.429 13.68,15.478 13.68,15.478C13.773,15.618 13.799,15.791 13.752,15.952C13.752,15.952 12.974,18.598 12.328,20.793L22.821,20.793ZM16.097,17.308C16.097,16.014 17.461,14.883 17.461,14.883C17.461,14.883 18.825,16.014 18.825,17.308C18.825,17.977 18.214,18.52 17.461,18.52C16.708,18.52 16.097,17.977 16.097,17.308ZM22.599,15.45C22.937,16.746 23.355,18.348 23.726,19.771L24.186,19.771C24.84,19.771 25.37,19.241 25.37,18.588L25.37,16.634C25.37,16.32 25.246,16.019 25.023,15.798L25.022,15.797C24.801,15.574 24.5,15.45 24.186,15.45L22.599,15.45Z"/>
    </g>
</svg>
