<?xml version="1.0" encoding="UTF-8" standalone="no"?>
<!DOCTYPE svg PUBLIC "-//W3C//DTD SVG 1.1//EN" "http://www.w3.org/Graphics/SVG/1.1/DTD/svg11.dtd">
<svg width="100%" height="100%" viewBox="0 0 29 29" version="1.1" xmlns="http://www.w3.org/2000/svg" xmlns:xlink="http://www.w3.org/1999/xlink" xml:space="preserve" xmlns:serif="http://www.serif.com/" style="fill-rule:evenodd;clip-rule:evenodd;stroke-linejoin:round;stroke-miterlimit:2;">
    <g>
        <path d="M18.634,7.688L18.634,19.234C18.634,20.433 18.158,21.583 17.31,22.43C16.462,23.278 15.313,23.754 14.114,23.754L5.941,23.754C4.742,23.754 3.592,23.278 2.745,22.43C1.897,21.583 1.421,20.433 1.421,19.234L1.421,12.823L1.438,12.652L1.488,12.492L1.567,12.347L1.67,12.221L1.796,12.118L1.94,12.039L2.101,11.99L2.271,11.972L17.5,11.972L17.5,7.121C17.5,6.808 17.754,6.554 18.067,6.554L20.105,6.554C20.302,6.215 20.668,5.987 21.087,5.987L25.735,5.987C26.361,5.987 26.869,6.495 26.869,7.121C26.869,7.747 26.361,8.255 25.735,8.255L21.087,8.255C20.668,8.255 20.302,8.027 20.105,7.688L18.634,7.688ZM2.555,15.722L2.555,16.43L4.843,16.43L4.843,19.28L2.555,19.28C2.558,19.521 2.587,19.758 2.64,19.989L4.843,19.989L4.843,22.437C5.072,22.516 5.31,22.57 5.552,22.598L5.552,19.989L8.061,19.989L8.061,22.62L8.769,22.62L8.769,19.989L11.278,19.989L11.278,22.62L11.987,22.62L11.987,19.989L14.495,19.989L14.495,22.599C14.738,22.571 14.975,22.518 15.204,22.44L15.204,19.989L17.415,19.989C17.468,19.758 17.496,19.521 17.5,19.28L15.204,19.28L15.204,16.43L17.5,16.43L17.5,15.722L15.204,15.722L15.204,13.106L14.495,13.106L14.495,15.722L11.987,15.722L11.987,13.106L11.278,13.106L11.278,15.722L8.769,15.722L8.769,13.106L8.061,13.106L8.061,15.722L5.552,15.722L5.552,13.106L4.843,13.106L4.843,15.722L2.555,15.722ZM14.495,16.43L14.495,19.28L11.987,19.28L11.987,16.43L14.495,16.43ZM11.278,16.43L11.278,19.28L8.769,19.28L8.769,16.43L11.278,16.43ZM8.061,16.43L8.061,19.28L5.552,19.28L5.552,16.43L8.061,16.43Z"/>
    </g>
</svg>
