<?xml version="1.0" encoding="UTF-8" standalone="no"?>
<!DOCTYPE svg PUBLIC "-//W3C//DTD SVG 1.1//EN" "http://www.w3.org/Graphics/SVG/1.1/DTD/svg11.dtd">
<svg width="100%" height="100%" viewBox="0 0 29 29" version="1.1" xmlns="http://www.w3.org/2000/svg" xmlns:xlink="http://www.w3.org/1999/xlink" xml:space="preserve" xmlns:serif="http://www.serif.com/" style="fill-rule:evenodd;clip-rule:evenodd;stroke-linejoin:round;stroke-miterlimit:2;">
    <g>
        <path d="M16.73,19.51C15.111,20.713 13.106,21.425 10.934,21.425C5.562,21.425 1.2,17.063 1.2,11.689C1.2,6.316 5.562,1.954 10.934,1.954C16.309,1.954 20.671,6.316 20.671,11.689C20.671,14.16 19.748,16.417 18.229,18.135L25.93,23.91C26.286,24.177 26.358,24.682 26.091,25.038L25.006,26.486C24.866,26.672 24.652,26.789 24.419,26.805C24.186,26.822 23.957,26.736 23.792,26.571L16.73,19.51ZM24.35,24.138C24.013,24.138 23.74,24.412 23.74,24.748C23.74,25.085 24.013,25.358 24.35,25.358C24.687,25.358 24.96,25.085 24.96,24.748C24.96,24.412 24.687,24.138 24.35,24.138ZM10.934,3.088C6.188,3.088 2.334,6.942 2.334,11.689C2.334,16.437 6.188,20.291 10.934,20.291C15.683,20.291 19.537,16.437 19.537,11.689C19.537,6.942 15.683,3.088 10.934,3.088ZM11.011,18.13C11.207,18.131 11.365,18.291 11.364,18.486C11.363,18.682 11.203,18.84 11.008,18.839C6.821,18.817 3.429,15.412 3.429,11.221C3.429,11.025 3.588,10.866 3.783,10.866C3.979,10.866 4.138,11.025 4.138,11.221C4.138,15.022 7.214,18.111 11.011,18.13Z"/>
    </g>
</svg>
