<?xml version="1.0" encoding="UTF-8" standalone="no"?>
<!DOCTYPE svg PUBLIC "-//W3C//DTD SVG 1.1//EN" "http://www.w3.org/Graphics/SVG/1.1/DTD/svg11.dtd">
<svg width="100%" height="100%" viewBox="0 0 29 29" version="1.1" xmlns="http://www.w3.org/2000/svg" xmlns:xlink="http://www.w3.org/1999/xlink" xml:space="preserve" xmlns:serif="http://www.serif.com/" style="fill-rule:evenodd;clip-rule:evenodd;stroke-linejoin:round;stroke-miterlimit:2;">
    <g>
        <path d="M16.73,19.51C15.111,20.713 13.106,21.425 10.934,21.425C5.562,21.425 1.2,17.063 1.2,11.689C1.2,6.316 5.562,1.954 10.934,1.954C16.309,1.954 20.671,6.316 20.671,11.689C20.671,14.16 19.748,16.417 18.229,18.135L25.93,23.91C26.286,24.177 26.358,24.682 26.091,25.038L25.006,26.486C24.866,26.672 24.652,26.789 24.419,26.805C24.186,26.822 23.957,26.736 23.792,26.571L16.73,19.51ZM24.35,24.138C24.013,24.138 23.74,24.412 23.74,24.748C23.74,25.085 24.013,25.358 24.35,25.358C24.687,25.358 24.96,25.085 24.96,24.748C24.96,24.412 24.687,24.138 24.35,24.138ZM10.771,18.37C6.974,18.351 3.898,15.262 3.898,11.461C3.898,11.265 3.738,11.106 3.543,11.106C3.348,11.106 3.189,11.265 3.189,11.461C3.189,15.652 6.581,19.057 10.768,19.079C10.963,19.08 11.123,18.922 11.124,18.726C11.125,18.531 10.967,18.371 10.771,18.37Z"/>
    </g>
</svg>
