<?xml version="1.0" encoding="UTF-8" standalone="no"?>
<!DOCTYPE svg PUBLIC "-//W3C//DTD SVG 1.1//EN" "http://www.w3.org/Graphics/SVG/1.1/DTD/svg11.dtd">
<svg width="100%" height="100%" viewBox="0 0 29 29" version="1.1" xmlns="http://www.w3.org/2000/svg" xmlns:xlink="http://www.w3.org/1999/xlink" xml:space="preserve" xmlns:serif="http://www.serif.com/" style="fill-rule:evenodd;clip-rule:evenodd;stroke-linejoin:round;stroke-miterlimit:2;">
    <g>
        <path d="M13.819,11.501C13.569,11.295 12.843,10.613 12.446,9.363C11.996,7.949 11.947,5.753 13.706,2.652C13.805,2.477 13.989,2.368 14.19,2.365C14.39,2.361 14.578,2.464 14.683,2.635C14.683,2.635 15.873,4.577 16.12,6.836C16.292,8.416 16.007,10.138 14.638,11.509C14.604,11.543 14.567,11.571 14.528,11.595L14.528,27.095C14.528,27.29 14.369,27.448 14.173,27.448C13.978,27.448 13.819,27.29 13.819,27.095L13.819,11.501ZM14.206,10.283C14.977,9.266 15.113,8.065 14.992,6.959C14.873,5.867 14.506,4.859 14.196,4.167C13.392,5.872 13.225,7.215 13.355,8.24C13.483,9.24 13.897,9.909 14.206,10.283ZM15.013,14.219C15.013,14.219 15.274,10.267 19.659,9.976C19.818,9.966 19.974,10.023 20.089,10.133C20.204,10.244 20.267,10.398 20.263,10.557C20.263,10.557 20.231,11.99 19.198,13.201C18.525,13.99 17.429,14.703 15.617,14.826C15.453,14.837 15.293,14.777 15.177,14.66C15.061,14.544 15.001,14.383 15.013,14.219ZM16.306,13.593C16.98,13.453 17.498,13.201 17.892,12.892C18.553,12.371 18.862,11.701 19.005,11.207C17.259,11.581 16.572,12.802 16.306,13.593ZM15.013,19.314C15.013,19.314 15.274,15.362 19.659,15.071C19.818,15.06 19.974,15.117 20.089,15.228C20.204,15.339 20.267,15.493 20.263,15.652C20.263,15.652 20.231,17.084 19.198,18.296C18.525,19.085 17.429,19.798 15.617,19.921C15.453,19.932 15.293,19.872 15.177,19.755C15.061,19.639 15.001,19.478 15.013,19.314ZM16.306,18.687C16.98,18.548 17.498,18.296 17.892,17.986C18.553,17.466 18.862,16.796 19.005,16.302C17.259,16.676 16.572,17.896 16.306,18.687ZM15.013,24.409C15.013,24.409 15.274,20.457 19.659,20.166C19.818,20.155 19.974,20.212 20.089,20.323C20.204,20.433 20.267,20.587 20.263,20.747C20.263,20.747 20.231,22.179 19.198,23.391C18.525,24.18 17.429,24.893 15.617,25.016C15.453,25.027 15.293,24.966 15.177,24.85C15.061,24.734 15.001,24.573 15.013,24.409ZM16.306,23.782C16.98,23.643 17.498,23.39 17.892,23.081C18.553,22.561 18.862,21.891 19.005,21.397C17.259,21.77 16.572,22.99 16.306,23.782ZM12.667,19.921C10.855,19.798 9.759,19.085 9.086,18.296C8.054,17.084 8.021,15.652 8.021,15.652C8.017,15.493 8.08,15.339 8.195,15.228C8.31,15.117 8.466,15.06 8.625,15.071C13.01,15.362 13.271,19.314 13.271,19.314C13.283,19.478 13.223,19.639 13.107,19.755C12.991,19.872 12.831,19.932 12.667,19.921ZM11.978,18.687C11.712,17.896 11.025,16.676 9.279,16.302C9.422,16.796 9.731,17.466 10.392,17.986C10.786,18.296 11.303,18.548 11.978,18.687ZM12.667,25.016C10.855,24.893 9.759,24.18 9.086,23.391C8.054,22.179 8.021,20.747 8.021,20.747C8.017,20.587 8.08,20.433 8.195,20.323C8.31,20.212 8.466,20.155 8.625,20.166C13.01,20.457 13.271,24.409 13.271,24.409C13.283,24.573 13.223,24.734 13.107,24.85C12.991,24.966 12.831,25.027 12.667,25.016ZM11.978,23.782C11.712,22.99 11.025,21.77 9.279,21.396C9.422,21.891 9.731,22.561 10.392,23.081C10.786,23.39 11.303,23.643 11.978,23.782ZM12.667,14.826C10.855,14.703 9.759,13.99 9.086,13.201C8.054,11.99 8.021,10.557 8.021,10.557C8.017,10.398 8.08,10.244 8.195,10.133C8.31,10.023 8.466,9.966 8.625,9.976C13.01,10.267 13.271,14.219 13.271,14.219C13.283,14.383 13.223,14.544 13.107,14.66C12.991,14.777 12.831,14.837 12.667,14.826ZM11.978,13.593C11.712,12.802 11.025,11.581 9.279,11.207C9.422,11.701 9.731,12.371 10.392,12.892C10.786,13.201 11.303,13.453 11.978,13.593Z"/>
    </g>
</svg>
