<?xml version="1.0" encoding="UTF-8" standalone="no"?>
<!DOCTYPE svg PUBLIC "-//W3C//DTD SVG 1.1//EN" "http://www.w3.org/Graphics/SVG/1.1/DTD/svg11.dtd">
<svg width="100%" height="100%" viewBox="0 0 29 29" version="1.1" xmlns="http://www.w3.org/2000/svg" xmlns:xlink="http://www.w3.org/1999/xlink" xml:space="preserve" xmlns:serif="http://www.serif.com/" style="fill-rule:evenodd;clip-rule:evenodd;stroke-linejoin:round;stroke-miterlimit:2;">
    <g>
        <path d="M25.383,3.438C26.237,3.438 26.929,4.13 26.929,4.984L26.929,24.67C26.929,25.524 26.237,26.216 25.383,26.216L2.964,26.216C2.11,26.216 1.417,25.524 1.417,24.67L1.417,4.984C1.417,4.13 2.11,3.438 2.964,3.438L25.383,3.438ZM16.451,6.171C15.697,6.171 15.084,6.783 15.084,7.538C15.084,8.292 15.697,8.904 16.451,8.904C17.206,8.904 17.819,8.292 17.819,7.538C17.819,6.783 17.206,6.171 16.451,6.171ZM7.339,6.171C6.584,6.171 5.97,6.783 5.97,7.538C5.97,8.292 6.584,8.904 7.339,8.904C8.094,8.904 8.706,8.292 8.706,7.538C8.706,6.783 8.094,6.171 7.339,6.171ZM23.594,10.727L4.752,10.727C4.42,10.727 4.151,10.996 4.151,11.328L4.151,22.881C4.151,23.213 4.42,23.483 4.752,23.483L23.594,23.483C23.926,23.483 24.196,23.213 24.196,22.881L24.196,11.328C24.196,10.996 23.926,10.727 23.594,10.727ZM4.859,11.435L23.487,11.435L23.487,22.774L4.859,22.774L4.859,11.435ZM7.749,13.575L9.28,16.049C9.345,16.153 9.459,16.217 9.583,16.216C9.706,16.216 9.82,16.151 9.884,16.046L11.112,14.024L12.34,16.046C12.404,16.152 12.519,16.216 12.643,16.216C12.766,16.216 12.881,16.152 12.945,16.046L14.173,14.024L15.401,16.046C15.465,16.152 15.58,16.216 15.704,16.216C15.828,16.216 15.943,16.152 16.007,16.046L17.235,14.024L18.462,16.046C18.527,16.152 18.642,16.216 18.765,16.216C18.889,16.216 19.004,16.152 19.068,16.046L20.599,13.525C20.7,13.358 20.647,13.14 20.48,13.038C20.313,12.937 20.095,12.99 19.993,13.157L18.765,15.179L17.538,13.157C17.473,13.051 17.358,12.987 17.235,12.987C17.111,12.987 16.996,13.051 16.932,13.157L15.704,15.179L14.476,13.157C14.412,13.051 14.297,12.987 14.173,12.987C14.049,12.987 13.934,13.051 13.87,13.157L12.643,15.179L11.415,13.157C11.35,13.051 11.236,12.987 11.112,12.987C10.988,12.987 10.873,13.051 10.809,13.157L9.578,15.184L8.352,13.202C8.249,13.036 8.029,12.986 7.864,13.088C7.698,13.19 7.646,13.409 7.749,13.575ZM11.895,6.171C11.14,6.171 10.527,6.783 10.527,7.538C10.527,8.292 11.14,8.904 11.895,8.904C12.65,8.904 13.263,8.292 13.263,7.538C13.263,6.783 12.65,6.171 11.895,6.171ZM21.008,6.171C20.253,6.171 19.64,6.783 19.64,7.538C19.64,8.292 20.253,8.904 21.008,8.904C21.763,8.904 22.376,8.292 22.376,7.538C22.376,6.783 21.763,6.171 21.008,6.171Z"/>
        <path d="M25.383,3.438C26.237,3.438 26.929,4.13 26.929,4.984L26.929,24.67C26.929,25.524 26.237,26.216 25.383,26.216L2.964,26.216C2.11,26.216 1.417,25.524 1.417,24.67L1.417,4.984C1.417,4.13 2.11,3.438 2.964,3.438L25.383,3.438ZM25.383,4.571L2.964,4.571C2.736,4.571 2.551,4.756 2.551,4.984L2.551,24.67C2.551,24.897 2.736,25.082 2.964,25.082L25.383,25.082C25.611,25.082 25.795,24.897 25.795,24.67L25.795,4.984C25.795,4.756 25.611,4.571 25.383,4.571ZM5.914,9.593C5.263,9.141 4.837,8.389 4.837,7.538C4.837,6.158 5.958,5.037 7.339,5.037C8.351,5.037 9.223,5.639 9.617,6.504C10.011,5.639 10.883,5.037 11.895,5.037C12.907,5.037 13.779,5.639 14.173,6.504C14.567,5.639 15.439,5.037 16.451,5.037C17.464,5.037 18.336,5.639 18.73,6.504C19.123,5.639 19.996,5.037 21.008,5.037C22.389,5.037 23.509,6.158 23.509,7.538C23.509,8.389 23.083,9.141 22.433,9.593L23.594,9.593L23.943,9.628L24.27,9.73L24.565,9.89L24.821,10.101L25.033,10.357L25.193,10.652L25.294,10.98L25.33,11.328L25.33,22.881L25.294,23.23L25.193,23.557L25.033,23.852L24.821,24.108L24.565,24.319L24.27,24.48L23.943,24.581L23.594,24.616L4.752,24.616L4.404,24.581L4.076,24.48L3.781,24.319L3.525,24.108L3.314,23.852L3.154,23.557L3.052,23.23L3.017,22.881L3.017,11.328L3.052,10.98L3.154,10.652L3.314,10.357L3.525,10.101L3.781,9.89L4.076,9.73L4.404,9.628L4.752,9.593L5.914,9.593ZM10.47,9.593C10.101,9.337 9.805,8.984 9.617,8.571C9.429,8.984 9.132,9.337 8.763,9.593L10.47,9.593ZM21.008,6.171C20.253,6.171 19.64,6.783 19.64,7.538C19.64,8.292 20.253,8.904 21.008,8.904C21.763,8.904 22.376,8.292 22.376,7.538C22.376,6.783 21.763,6.171 21.008,6.171ZM7.339,6.171C6.584,6.171 5.97,6.783 5.97,7.538C5.97,8.292 6.584,8.904 7.339,8.904C8.094,8.904 8.706,8.292 8.706,7.538C8.706,6.783 8.094,6.171 7.339,6.171ZM19.583,9.593C19.214,9.337 18.917,8.984 18.73,8.571C18.542,8.984 18.245,9.337 17.876,9.593L19.583,9.593ZM15.027,9.593C14.658,9.337 14.361,8.984 14.173,8.571C13.985,8.984 13.689,9.337 13.32,9.593L15.027,9.593ZM16.451,6.171C15.697,6.171 15.084,6.783 15.084,7.538C15.084,8.292 15.697,8.904 16.451,8.904C17.206,8.904 17.819,8.292 17.819,7.538C17.819,6.783 17.206,6.171 16.451,6.171ZM23.594,10.727L4.752,10.727C4.42,10.727 4.151,10.996 4.151,11.328L4.151,22.881C4.151,23.213 4.42,23.483 4.752,23.483L23.594,23.483C23.926,23.483 24.196,23.213 24.196,22.881L24.196,11.328C24.196,10.996 23.926,10.727 23.594,10.727ZM4.859,11.435L23.487,11.435L23.487,22.774L4.859,22.774L4.859,11.435ZM18.507,12.569L18.765,12.996L19.024,12.569L18.507,12.569ZM21.549,12.569L21.742,12.989L21.769,13.557L21.697,13.842L21.568,14.114L20.037,16.635L19.798,16.934L19.495,17.159L19.146,17.301L18.765,17.35L18.385,17.301L18.036,17.159L17.733,16.934L17.493,16.635L17.235,16.209L16.976,16.635L16.736,16.934L16.434,17.159L16.084,17.301L15.704,17.35L15.324,17.301L14.974,17.159L14.671,16.934L14.432,16.635L14.173,16.209L13.915,16.635L13.675,16.934L13.372,17.159L13.023,17.301L12.643,17.35L12.262,17.301L11.913,17.159L11.61,16.934L11.37,16.635L11.112,16.209L10.853,16.635L10.615,16.933L10.314,17.158L9.966,17.3L9.587,17.35L9.209,17.303L8.86,17.164L8.557,16.942L8.316,16.645L6.785,14.172L6.653,13.902L6.58,13.617L6.602,13.048L6.818,12.569L5.993,12.569L5.993,21.64L22.353,21.64L22.353,12.569L21.549,12.569ZM9.288,12.569L9.316,12.606L9.569,13.015L9.84,12.569L9.288,12.569ZM12.384,12.569L12.643,12.996L12.901,12.569L12.384,12.569ZM15.446,12.569L15.704,12.996L15.962,12.569L15.446,12.569ZM14.173,14.843L14.031,15.078C14.117,15.126 14.173,15.158 14.173,15.158L14.265,14.995L14.173,14.843ZM7.749,13.575L9.28,16.049C9.345,16.153 9.459,16.217 9.583,16.216C9.706,16.216 9.82,16.151 9.884,16.046L11.112,14.024L12.34,16.046C12.404,16.152 12.519,16.216 12.643,16.216C12.766,16.216 12.881,16.152 12.945,16.046L14.173,14.024L15.401,16.046C15.465,16.152 15.58,16.216 15.704,16.216C15.828,16.216 15.943,16.152 16.007,16.046L17.235,14.024L18.462,16.046C18.527,16.152 18.642,16.216 18.765,16.216C18.889,16.216 19.004,16.152 19.068,16.046L20.599,13.525C20.7,13.358 20.647,13.14 20.48,13.038C20.313,12.937 20.095,12.99 19.993,13.157L18.765,15.179L17.538,13.157C17.473,13.051 17.358,12.987 17.235,12.987C17.111,12.987 16.996,13.051 16.932,13.157L15.704,15.179L14.476,13.157C14.412,13.051 14.297,12.987 14.173,12.987C14.049,12.987 13.934,13.051 13.87,13.157L12.643,15.179L11.415,13.157C11.35,13.051 11.236,12.987 11.112,12.987C10.988,12.987 10.873,13.051 10.809,13.157L9.578,15.184L8.352,13.202C8.249,13.036 8.029,12.986 7.864,13.088C7.698,13.19 7.646,13.409 7.749,13.575ZM11.112,14.843L10.969,15.078C11.055,15.126 11.112,15.158 11.112,15.158L11.204,14.995L11.112,14.843ZM17.092,15.078C17.178,15.126 17.235,15.158 17.235,15.158L17.327,14.995L17.235,14.843L17.092,15.078ZM11.895,6.171C11.14,6.171 10.527,6.783 10.527,7.538C10.527,8.292 11.14,8.904 11.895,8.904C12.65,8.904 13.263,8.292 13.263,7.538C13.263,6.783 12.65,6.171 11.895,6.171Z"/>
    </g>
</svg>
