<?xml version="1.0" encoding="UTF-8" standalone="no"?>
<!DOCTYPE svg PUBLIC "-//W3C//DTD SVG 1.1//EN" "http://www.w3.org/Graphics/SVG/1.1/DTD/svg11.dtd">
<svg width="100%" height="100%" viewBox="0 0 29 29" version="1.1" xmlns="http://www.w3.org/2000/svg" xmlns:xlink="http://www.w3.org/1999/xlink" xml:space="preserve" xmlns:serif="http://www.serif.com/" style="fill-rule:evenodd;clip-rule:evenodd;stroke-linejoin:round;stroke-miterlimit:2;">
    <g>
        <path d="M4.689,17.85L3.403,17.85L3.403,19.226C3.403,19.774 2.958,20.218 2.411,20.218C1.863,20.218 1.419,19.774 1.419,19.226L1.419,10.705C1.419,10.157 1.863,9.713 2.411,9.713C2.958,9.713 3.403,10.157 3.403,10.705L3.403,12.082L4.689,12.082L4.689,8.334C4.689,7.715 4.935,7.121 5.372,6.684C5.81,6.246 6.403,6 7.022,6L21.326,6C21.945,6 22.538,6.246 22.976,6.684C23.413,7.121 23.659,7.715 23.659,8.334L23.659,12.082L24.945,12.082L24.945,10.705C24.945,10.157 25.39,9.713 25.937,9.713C26.485,9.713 26.93,10.157 26.93,10.705L26.93,19.226C26.93,19.774 26.485,20.218 25.937,20.218C25.39,20.218 24.945,19.774 24.945,19.226L24.945,17.85L23.659,17.85L23.659,21.401C23.659,22.02 23.413,22.613 22.976,23.051C22.538,23.488 21.945,23.734 21.326,23.734L7.022,23.734C6.403,23.734 5.81,23.488 5.372,23.051C4.935,22.613 4.689,22.02 4.689,21.401L4.689,17.85ZM4.689,12.791L3.403,12.791L3.403,17.141L4.689,17.141L4.689,12.791ZM23.659,12.791L23.659,17.141L24.945,17.141L24.945,12.791L23.659,12.791ZM21.326,7.134L7.022,7.134C6.704,7.134 6.399,7.261 6.174,7.486C5.949,7.71 5.823,8.016 5.823,8.334L5.823,21.401C5.823,21.719 5.949,22.024 6.174,22.249C6.399,22.474 6.704,22.6 7.022,22.6L21.326,22.6C21.644,22.6 21.949,22.474 22.174,22.249C22.399,22.024 22.525,21.719 22.525,21.401L22.525,8.334C22.525,8.016 22.399,7.71 22.174,7.486C21.949,7.261 21.644,7.134 21.326,7.134ZM10.92,9.348C10.92,9.152 11.079,8.993 11.275,8.993C11.47,8.993 11.629,9.152 11.629,9.348L11.629,20.262C11.629,20.458 11.47,20.617 11.275,20.617C11.079,20.617 10.92,20.458 10.92,20.262L10.92,9.348ZM16.719,9.348C16.719,9.152 16.878,8.993 17.074,8.993C17.269,8.993 17.428,9.152 17.428,9.348L17.428,20.262C17.428,20.458 17.269,20.617 17.074,20.617C16.878,20.617 16.719,20.458 16.719,20.262L16.719,9.348ZM13.82,9.348C13.82,9.152 13.979,8.993 14.174,8.993C14.37,8.993 14.528,9.152 14.528,9.348L14.528,20.262C14.528,20.458 14.37,20.617 14.174,20.617C13.979,20.617 13.82,20.458 13.82,20.262L13.82,9.348ZM19.619,9.348C19.619,9.152 19.777,8.993 19.973,8.993C20.169,8.993 20.327,9.152 20.327,9.348L20.327,20.262C20.327,20.458 20.169,20.617 19.973,20.617C19.777,20.617 19.619,20.458 19.619,20.262L19.619,9.348ZM8.021,9.348C8.021,9.152 8.18,8.993 8.375,8.993C8.571,8.993 8.729,9.152 8.729,9.348L8.729,20.262C8.729,20.458 8.571,20.617 8.375,20.617C8.18,20.617 8.021,20.458 8.021,20.262L8.021,9.348Z"/>
    </g>
</svg>
