<?xml version="1.0" encoding="UTF-8" standalone="no"?>
<!DOCTYPE svg PUBLIC "-//W3C//DTD SVG 1.1//EN" "http://www.w3.org/Graphics/SVG/1.1/DTD/svg11.dtd">
<svg width="100%" height="100%" viewBox="0 0 119 119" version="1.1" xmlns="http://www.w3.org/2000/svg" xmlns:xlink="http://www.w3.org/1999/xlink" xml:space="preserve" xmlns:serif="http://www.serif.com/" style="fill-rule:evenodd;clip-rule:evenodd;stroke-linejoin:round;stroke-miterlimit:2;">
    <g transform="matrix(1,0,0,1,-611,-4042)">
        <g id="Klok-AH-outlined" transform="matrix(0.424857,0,0,0.509096,1354.5,3964.11)">
            <rect x="-1750" y="153" width="278" height="232" style="fill:none;"/>
            <g transform="matrix(3.2653,0,0,2.725,-1770.28,-5753.65)">
                <path d="M48.778,2171.83C69.923,2171.83 87.09,2189 87.09,2210.14C87.09,2231.29 69.923,2248.46 48.778,2248.46C27.633,2248.46 10.466,2231.29 10.466,2210.14C10.466,2189 27.633,2171.83 48.778,2171.83ZM48.778,2178.64C31.392,2178.64 17.277,2192.76 17.277,2210.14C17.277,2227.53 31.392,2241.65 48.778,2241.65C66.164,2241.65 80.279,2227.53 80.279,2210.14C80.279,2192.76 66.164,2178.64 48.778,2178.64ZM59.348,2222.87C58.322,2222.12 58.251,2222.23 46.211,2213.97C46.1,2213.89 45.046,2213.17 44.854,2212.98C44.743,2212.88 44.106,2212.27 44.086,2211.23C43.927,2202.91 44.702,2185.68 44.704,2185.68C44.884,2185.22 44.953,2184.68 45.299,2184.34C45.308,2184.33 46.617,2183.77 46.623,2183.77C47.976,2184.35 48.322,2184.22 48.527,2185.68C48.537,2185.75 48.865,2193.37 48.929,2195.21C49.384,2208.25 49.029,2209.83 49.122,2209.95C49.126,2209.96 52.011,2212.16 55.864,2215.2C57.742,2216.68 57.734,2216.69 61.431,2219.66C62.104,2220.2 62.22,2220.17 62.354,2221.02C62.356,2221.03 62.014,2222.45 62.008,2222.45C61.594,2222.7 61.243,2223.13 60.764,2223.2C60.284,2223.28 59.74,2223.15 59.348,2222.87Z"/>
            </g>
        </g>
    </g>
</svg>
