<?xml version="1.0" encoding="UTF-8" standalone="no"?>
<!DOCTYPE svg PUBLIC "-//W3C//DTD SVG 1.1//EN" "http://www.w3.org/Graphics/SVG/1.1/DTD/svg11.dtd">
<svg width="100%" height="100%" viewBox="0 0 29 29" version="1.1" xmlns="http://www.w3.org/2000/svg" xmlns:xlink="http://www.w3.org/1999/xlink" xml:space="preserve" xmlns:serif="http://www.serif.com/" style="fill-rule:evenodd;clip-rule:evenodd;stroke-linejoin:round;stroke-miterlimit:2;">
    <g>
        <path d="M2.325,19.208C1.88,18.819 1.75,18.755 1.642,18.494C1.474,18.089 1.562,17.543 2.019,16.96C2.738,16.04 4.469,14.872 6.65,13.967C8.831,13.061 10.879,12.66 12.039,12.799C12.317,12.833 12.554,12.9 12.75,12.993L12.751,12.991L25.862,5.85C26.225,5.652 26.681,5.786 26.879,6.15C27.077,6.513 26.943,6.969 26.579,7.167L13.511,14.286L13.814,19.891C13.871,20.951 13.28,21.94 12.319,22.391L9.554,23.689C8.586,24.143 7.438,23.96 6.66,23.226C6.66,23.226 2.337,19.218 2.325,19.208ZM7.085,15.014C5.393,15.716 3.987,16.573 3.211,17.33C2.995,17.54 2.832,17.736 2.742,17.919C2.715,17.975 2.672,18.017 2.689,18.059C2.707,18.101 2.767,18.1 2.826,18.12C3.018,18.185 3.273,18.208 3.574,18.204C4.658,18.189 6.257,17.798 7.949,17.095C9.641,16.393 11.046,15.537 11.822,14.78C12.038,14.569 12.201,14.373 12.291,14.19C12.319,14.134 12.362,14.093 12.344,14.05C12.326,14.008 12.267,14.009 12.207,13.989C12.015,13.924 11.761,13.901 11.459,13.905C10.375,13.92 8.776,14.311 7.085,15.014Z"/>
    </g>
</svg>
