<?xml version="1.0" encoding="UTF-8" standalone="no"?>
<!DOCTYPE svg PUBLIC "-//W3C//DTD SVG 1.1//EN" "http://www.w3.org/Graphics/SVG/1.1/DTD/svg11.dtd">
<svg width="100%" height="100%" viewBox="0 0 29 29" version="1.1" xmlns="http://www.w3.org/2000/svg" xmlns:xlink="http://www.w3.org/1999/xlink" xml:space="preserve" xmlns:serif="http://www.serif.com/" style="fill-rule:evenodd;clip-rule:evenodd;stroke-linejoin:round;stroke-miterlimit:2;">
    <g>
        <path d="M7.145,7.147C7.145,7.147 12.494,-0.665 15.359,3.085C18.451,7.133 14.593,11.057 13.287,13.208C10.915,17.12 10.169,20.077 9.923,23.004C9.675,25.956 7.641,25.716 6.002,24.255C4.364,22.793 1.07,16.216 7.145,7.147ZM21.602,22.881C21.602,22.881 16.332,29.544 13.701,26.929C10.089,23.337 12.546,18.455 13.861,16.31C15.183,14.153 18.186,10.77 18.271,6.712C18.342,3.287 20.87,4.702 22.565,6.098C24.259,7.495 28.695,13.425 21.602,22.881ZM22.075,13.662C22.075,13.662 21.752,17.914 16.365,22.701C16.219,22.831 16.205,23.055 16.336,23.202C16.466,23.348 16.69,23.361 16.836,23.231C22.491,18.205 22.782,13.711 22.782,13.711C22.795,13.516 22.648,13.347 22.453,13.333C22.258,13.319 22.088,13.467 22.075,13.662Z"/>
    </g>
</svg>
