<?xml version="1.0" encoding="UTF-8" standalone="no"?>
<!DOCTYPE svg PUBLIC "-//W3C//DTD SVG 1.1//EN" "http://www.w3.org/Graphics/SVG/1.1/DTD/svg11.dtd">
<svg width="100%" height="100%" viewBox="0 0 29 29" version="1.1" xmlns="http://www.w3.org/2000/svg" xmlns:xlink="http://www.w3.org/1999/xlink" xml:space="preserve" xmlns:serif="http://www.serif.com/" style="fill-rule:evenodd;clip-rule:evenodd;stroke-linejoin:round;stroke-miterlimit:2;">
    <g>
        <path d="M14.652,3.912L14.652,5.733L19.416,5.733C20.363,5.733 21.129,6.5 21.129,7.446L21.129,8.458L22.758,8.458C23.201,8.458 23.625,8.634 23.939,8.947C24.252,9.26 24.428,9.685 24.428,10.128L24.428,18.847C24.428,19.29 24.252,19.715 23.939,20.028C23.625,20.341 23.201,20.517 22.758,20.517L21.129,20.517L21.129,26.412C21.129,27.059 20.605,27.583 19.959,27.583L8.83,27.583C8.189,27.583 7.668,27.069 7.659,26.429L7.473,13.46L4.22,10.204C3.926,9.91 3.838,9.468 3.997,9.083C4.156,8.699 4.531,8.449 4.947,8.449L7.473,8.449L7.473,7.446C7.473,6.5 8.24,5.733 9.186,5.733L13.943,5.733L13.943,3.912L11.566,3.912L11.566,2.576C11.566,2.423 11.627,2.276 11.735,2.168C11.843,2.06 11.99,1.999 12.143,1.999L16.456,1.999C16.609,1.999 16.755,2.06 16.864,2.168C16.972,2.276 17.033,2.423 17.033,2.576L17.033,3.912L14.652,3.912ZM19.996,8.449L19.996,7.446C19.996,7.126 19.736,6.867 19.416,6.867L14.652,6.867L14.652,8.449L19.996,8.449ZM13.943,9.583L5.202,9.583L8.275,12.659C8.484,12.868 8.603,13.149 8.607,13.444L8.725,21.665L19.996,21.665L19.996,9.583L14.652,9.583L14.652,19.49L18.167,19.49C18.362,19.49 18.521,19.649 18.521,19.844C18.521,20.04 18.362,20.199 18.167,20.199L10.428,20.199C10.233,20.199 10.074,20.04 10.074,19.844C10.074,19.649 10.233,19.49 10.428,19.49L13.943,19.49L13.943,9.583ZM13.943,6.867L9.186,6.867C8.867,6.867 8.607,7.126 8.607,7.446L8.607,8.449L13.943,8.449L13.943,6.867ZM21.129,9.592L21.129,19.383L22.758,19.383C22.9,19.383 23.036,19.327 23.137,19.226C23.237,19.126 23.294,18.989 23.294,18.847L23.294,10.128C23.294,9.986 23.237,9.85 23.137,9.749C23.036,9.649 22.9,9.592 22.758,9.592L21.129,9.592Z"/>
    </g>
</svg>
