<?xml version="1.0" encoding="UTF-8" standalone="no"?>
<!DOCTYPE svg PUBLIC "-//W3C//DTD SVG 1.1//EN" "http://www.w3.org/Graphics/SVG/1.1/DTD/svg11.dtd">
<svg width="100%" height="100%" viewBox="0 0 29 29" version="1.1" xmlns="http://www.w3.org/2000/svg" xmlns:xlink="http://www.w3.org/1999/xlink" xml:space="preserve" xmlns:serif="http://www.serif.com/" style="fill-rule:evenodd;clip-rule:evenodd;stroke-linejoin:round;stroke-miterlimit:2;">
    <g>
        <path d="M13.889,12.605C13.889,12.605 17.784,6.917 19.87,9.648C22.122,12.596 19.312,15.453 18.362,17.02C16.634,19.868 16.091,22.022 15.912,24.153C15.731,26.303 14.25,26.128 13.057,25.065C11.864,24 9.465,19.21 13.889,12.605ZM3.329,4.795C3.329,4.795 6.182,0.627 7.71,2.628C9.36,4.787 7.302,6.88 6.605,8.028C5.34,10.115 4.942,11.692 4.811,13.254C4.678,14.828 3.593,14.701 2.718,13.921C1.845,13.141 0.088,9.633 3.329,4.795ZM24.417,24.064C24.417,24.064 20.579,28.916 18.663,27.011C16.033,24.396 17.822,20.841 18.78,19.278C19.743,17.708 21.929,15.244 21.991,12.289C22.043,9.795 23.884,10.825 25.118,11.842C26.352,12.859 29.218,17.354 24.417,24.064ZM24.665,17.343C24.665,17.343 24.426,20.407 20.54,23.861C20.393,23.991 20.38,24.215 20.51,24.361C20.64,24.507 20.864,24.52 21.01,24.39C25.164,20.698 25.372,17.393 25.372,17.393C25.386,17.198 25.238,17.028 25.043,17.015C24.848,17.001 24.679,17.148 24.665,17.343ZM11.041,13.188C11.041,13.188 8.23,16.742 6.826,15.347C4.899,13.431 6.21,10.827 6.911,9.683C7.617,8.532 9.219,6.727 9.264,4.563C9.302,2.736 10.65,3.49 11.554,4.235C12.458,4.98 14.716,8.143 11.041,13.188ZM10.748,8.333C10.748,8.333 10.569,10.545 7.758,13.043C7.612,13.173 7.598,13.398 7.728,13.544C7.858,13.69 8.082,13.703 8.229,13.573C11.307,10.836 11.455,8.383 11.455,8.383C11.469,8.188 11.321,8.018 11.126,8.005C10.931,7.991 10.762,8.138 10.748,8.333Z"/>
    </g>
</svg>
