<?xml version="1.0" encoding="UTF-8" standalone="no"?>
<!DOCTYPE svg PUBLIC "-//W3C//DTD SVG 1.1//EN" "http://www.w3.org/Graphics/SVG/1.1/DTD/svg11.dtd">
<svg width="100%" height="100%" viewBox="0 0 29 29" version="1.1" xmlns="http://www.w3.org/2000/svg" xmlns:xlink="http://www.w3.org/1999/xlink" xml:space="preserve" xmlns:serif="http://www.serif.com/" style="fill-rule:evenodd;clip-rule:evenodd;stroke-linejoin:round;stroke-miterlimit:2;">
    <g>
        <path d="M21.122,20.715L20.821,24.784C20.709,26.298 19.448,27.47 17.93,27.47L7.364,27.47C5.846,27.47 4.585,26.298 4.473,24.784L3.12,6.521C3.096,6.201 3.207,5.885 3.426,5.649C3.644,5.414 3.951,5.28 4.273,5.28L5.623,5.28L5.623,4.875C5.623,4.506 5.802,4.159 6.125,3.882C6.534,3.533 7.19,3.296 7.933,3.296C8.156,3.296 8.371,3.317 8.573,3.356C8.716,3.101 8.934,2.869 9.218,2.674C9.75,2.308 10.517,2.071 11.37,2.071C12.226,2.071 12.995,2.31 13.528,2.679C13.811,2.875 14.03,3.11 14.172,3.366C14.405,3.32 14.653,3.296 14.91,3.296C15.874,3.296 16.705,3.649 17.153,4.144C17.385,4.063 17.652,4.016 17.936,4.016C18.489,4.016 18.976,4.196 19.28,4.455C19.533,4.672 19.67,4.946 19.67,5.235L19.67,5.28L21.021,5.28C21.342,5.28 21.649,5.414 21.868,5.649C22.087,5.885 22.198,6.201 22.174,6.521L21.958,9.442L24.559,9.477C25.402,9.489 26.079,10.175 26.079,11.018L26.079,16.764C26.079,18.337 25.015,19.71 23.492,20.103L21.122,20.715ZM18.962,5.28C18.962,5.28 18.962,5.27 18.961,5.268L18.961,5.242C18.961,5.24 18.962,5.238 18.962,5.235C18.962,5.108 18.857,5.008 18.723,4.924C18.522,4.798 18.243,4.725 17.936,4.725C17.657,4.725 17.401,4.786 17.205,4.891C17.037,4.981 16.828,4.923 16.732,4.759C16.461,4.298 15.739,4.004 14.91,4.004C14.608,4.004 14.32,4.046 14.062,4.12C13.874,4.174 13.678,4.066 13.623,3.878C13.554,3.641 13.372,3.433 13.125,3.261C12.692,2.962 12.065,2.78 11.37,2.78C10.677,2.78 10.052,2.96 9.62,3.258C9.372,3.429 9.189,3.636 9.118,3.872C9.091,3.962 9.029,4.038 8.946,4.082C8.864,4.127 8.767,4.137 8.676,4.11C8.452,4.042 8.199,4.004 7.933,4.004C7.382,4.004 6.889,4.162 6.585,4.421C6.434,4.55 6.332,4.703 6.332,4.875L6.332,5.28L18.962,5.28ZM21.874,10.575L21.211,19.521L23.208,19.006C24.231,18.742 24.945,17.82 24.945,16.764L24.945,11.018C24.945,10.795 24.766,10.614 24.544,10.611L21.874,10.575ZM8.646,20.434L8.859,23.006C8.876,23.201 9.047,23.346 9.242,23.329C9.437,23.313 9.582,23.142 9.566,22.947L9.353,20.375C9.336,20.18 9.165,20.035 8.97,20.051C8.775,20.067 8.63,20.239 8.646,20.434ZM18.878,6.414L6.415,6.414L7.416,18.714L17.878,18.714L18.878,6.414ZM5.704,6.414L4.273,6.414C4.267,6.414 4.261,6.416 4.256,6.421C4.252,6.425 4.25,6.432 4.251,6.438L5.603,24.701C5.672,25.622 6.439,26.335 7.364,26.335L17.93,26.335C18.854,26.335 19.622,25.622 19.69,24.701L21.043,6.438C21.044,6.432 21.041,6.425 21.037,6.421C21.033,6.416 21.027,6.414 21.021,6.414L19.589,6.414C19.351,9.34 18.223,23.209 18.223,23.209C18.158,24.089 17.439,24.764 16.577,24.764L8.717,24.764C7.855,24.764 7.135,24.089 7.07,23.209L5.704,6.414Z"/>
    </g>
</svg>
