<?xml version="1.0" encoding="UTF-8" standalone="no"?>
<!DOCTYPE svg PUBLIC "-//W3C//DTD SVG 1.1//EN" "http://www.w3.org/Graphics/SVG/1.1/DTD/svg11.dtd">
<svg width="100%" height="100%" viewBox="0 0 1958 1682" version="1.1" xmlns="http://www.w3.org/2000/svg" xmlns:xlink="http://www.w3.org/1999/xlink" xml:space="preserve" xmlns:serif="http://www.serif.com/" style="fill-rule:evenodd;clip-rule:evenodd;stroke-linejoin:round;stroke-miterlimit:2;">
    <g transform="matrix(1,0,0,1,-971.015,-1000)">
        <g transform="matrix(4.16667,0,0,4.16667,0,0)">
            <g transform="matrix(1,0,0,1,2.06546,-37.455)">
                <path d="M425.091,518.774C425.091,518.774 365.293,402.128 326.569,402.128C296.623,402.118 293.957,433.792 294.052,510.1C294.146,586.466 298.283,616.213 326.399,616.213C364.61,616.165 425.091,518.774 425.091,518.774ZM501.998,421.381C532.636,377.277 560.306,333.6 612.163,333.59C669.617,333.59 700.627,381.566 700.891,421.978C700.891,422.405 700.627,680.814 700.627,680.814L636.141,680.814L636.027,435.803C636.027,402.147 608.813,402.251 608.491,402.251C586.685,402.251 546.576,456.897 501.998,517.577L501.998,680.822L436.81,680.936L436.772,605.33C436.772,605.33 393.636,681.003 329.189,681.07C256.001,681.088 231.103,630.74 230.979,510.214C230.837,395.362 247.168,333.875 325.497,333.856C385.314,333.742 436.554,420.754 436.554,420.754L436.554,365.605L501.998,277.455C501.998,277.455 501.742,421.769 501.998,421.381Z" style="fill-rule:nonzero;"/>
            </g>
        </g>
    </g>
</svg>
