<?xml version="1.0" encoding="UTF-8" standalone="no"?>
<!DOCTYPE svg PUBLIC "-//W3C//DTD SVG 1.1//EN" "http://www.w3.org/Graphics/SVG/1.1/DTD/svg11.dtd">
<svg width="100%" height="100%" viewBox="0 0 29 29" version="1.1" xmlns="http://www.w3.org/2000/svg" xmlns:xlink="http://www.w3.org/1999/xlink" xml:space="preserve" xmlns:serif="http://www.serif.com/" style="fill-rule:evenodd;clip-rule:evenodd;stroke-linejoin:round;stroke-miterlimit:2;">
    <g>
        <path d="M21.304,19.527C21.166,21.391 21.042,23.061 20.951,24.296C20.837,25.816 19.572,26.993 18.048,26.993L5.907,26.993C4.383,26.993 3.117,25.816 3.005,24.296C2.628,19.213 1.704,6.747 1.485,3.791C1.462,3.469 1.573,3.153 1.79,2.917L1.793,2.915C2.013,2.68 2.319,2.546 2.642,2.546L21.313,2.546C21.636,2.546 21.945,2.681 22.164,2.917C22.381,3.153 22.493,3.469 22.47,3.791C22.419,4.474 22.331,5.664 22.22,7.153C22.584,7.158 24.197,7.18 25.263,7.194L25.264,7.194C26.108,7.207 26.787,7.894 26.787,8.74L26.787,15.428C26.787,17.007 25.719,18.387 24.19,18.781C23.024,19.082 21.741,19.414 21.304,19.527ZM22.136,8.286C21.918,11.23 21.64,14.994 21.392,18.333C21.984,18.18 22.982,17.922 23.906,17.683C24.935,17.418 25.653,16.49 25.653,15.428L25.653,8.74C25.653,8.515 25.472,8.332 25.247,8.328C24.078,8.313 22.254,8.288 22.136,8.286ZM2.642,3.68C2.634,3.68 2.628,3.683 2.622,3.689C2.618,3.694 2.616,3.701 2.616,3.708C2.835,6.664 3.759,19.129 4.136,24.212C4.204,25.14 4.977,25.858 5.907,25.858L18.048,25.858C18.978,25.858 19.751,25.14 19.82,24.212C20.196,19.129 21.119,6.665 21.339,3.708C21.339,3.7 21.336,3.693 21.331,3.687C21.327,3.682 21.32,3.68 21.313,3.68L2.642,3.68ZM18.811,6.184C18.878,6.184 18.942,6.213 18.988,6.262C19.033,6.311 19.056,6.377 19.05,6.445C18.882,8.518 17.761,22.304 17.761,22.304C17.704,23.071 17.08,23.665 16.327,23.665L7.626,23.665C6.875,23.665 6.25,23.071 6.194,22.304C6.194,22.304 5.074,8.518 4.904,6.445C4.899,6.377 4.922,6.311 4.967,6.262C5.013,6.213 5.077,6.184 5.144,6.184L18.811,6.184ZM8.745,21.217C8.888,21.206 8.894,21.203 8.987,21.093C9.08,20.985 9.083,20.978 9.072,20.835C8.277,10.506 8.293,10.505 8.209,9.608C8.2,9.519 8.154,9.426 8.086,9.368C8.017,9.31 7.915,9.311 7.829,9.283C7.827,9.283 7.586,9.403 7.584,9.406C7.491,9.516 7.488,9.523 7.499,9.666C8.294,19.994 8.276,19.995 8.362,20.891C8.371,20.983 8.417,21.073 8.486,21.133C8.595,21.226 8.601,21.228 8.745,21.217Z"/>
        <path d="M18.811,6.184C18.878,6.184 18.942,6.213 18.988,6.262C19.033,6.311 19.056,6.377 19.05,6.445L17.761,22.304C17.704,23.071 17.08,23.665 16.327,23.665L7.626,23.665C6.875,23.665 6.25,23.071 6.194,22.304L4.904,6.445C4.899,6.377 4.922,6.311 4.967,6.262C5.013,6.213 5.077,6.184 5.144,6.184L18.811,6.184ZM5.32,6.586L6.595,22.271L6.595,22.275C6.635,22.83 7.083,23.263 7.626,23.263L16.327,23.263C16.872,23.263 17.319,22.83 17.36,22.275L17.36,22.271L18.635,6.586L5.32,6.586Z"/>
    </g>
</svg>
