<?xml version="1.0" encoding="UTF-8" standalone="no"?>
<!DOCTYPE svg PUBLIC "-//W3C//DTD SVG 1.1//EN" "http://www.w3.org/Graphics/SVG/1.1/DTD/svg11.dtd">
<svg width="100%" height="100%" viewBox="0 0 29 29" version="1.1" xmlns="http://www.w3.org/2000/svg" xmlns:xlink="http://www.w3.org/1999/xlink" xml:space="preserve" xmlns:serif="http://www.serif.com/" style="fill-rule:evenodd;clip-rule:evenodd;stroke-linejoin:round;stroke-miterlimit:2;">
    <g>
        <path d="M25.383,5.323C26.237,5.323 26.929,6.015 26.929,6.869L26.929,22.455C26.929,23.309 26.237,24.001 25.383,24.001L2.964,24.001C2.11,24.001 1.417,23.309 1.417,22.455L1.417,6.869C1.417,6.015 2.11,5.323 2.964,5.323L25.383,5.323ZM25.383,6.457L2.964,6.457C2.736,6.457 2.551,6.641 2.551,6.869L2.551,22.455C2.551,22.683 2.736,22.867 2.964,22.867L25.383,22.867C25.611,22.867 25.795,22.683 25.795,22.455L25.795,6.869C25.795,6.641 25.611,6.457 25.383,6.457ZM23.284,8.512C24.038,8.512 24.651,9.124 24.651,9.879C24.651,10.633 24.038,11.245 23.284,11.245C22.529,11.245 21.916,10.633 21.916,9.879C21.916,9.124 22.529,8.512 23.284,8.512ZM19.95,8.512C20.282,8.512 20.551,8.781 20.551,9.113L20.551,20.211C20.551,20.543 20.282,20.813 19.95,20.813L5.208,20.813C4.876,20.813 4.606,20.543 4.606,20.211L4.606,9.113C4.606,8.781 4.876,8.512 5.208,8.512L19.95,8.512ZM5.315,20.104L19.843,20.104L19.843,9.221L5.315,9.221L5.315,20.104ZM17.688,10.74C17.795,10.835 17.797,10.841 17.806,10.984C17.812,11.073 17.776,11.168 17.72,11.238C17.613,11.372 16.662,12.564 16.264,12.802C15.744,13.109 15.079,12.96 14.737,12.477C14.102,11.58 14.119,11.564 14.008,11.476C13.831,11.335 13.565,11.346 13.402,11.527C12.962,12.012 12.451,12.59 12.329,12.685C11.788,13.105 11.006,12.96 10.648,12.389C10.111,11.532 10.13,11.516 10.019,11.419C9.836,11.259 9.588,11.295 9.457,11.401C7.651,12.871 7.666,12.894 7.604,12.913C7.518,12.938 7.435,12.998 7.346,12.989C7.342,12.989 7.106,12.861 7.105,12.859C7.025,12.593 6.947,12.548 7.156,12.363C7.318,12.22 8.845,10.871 9.288,10.688C9.811,10.471 10.409,10.671 10.702,11.139C11.238,11.995 11.219,12.01 11.33,12.108C11.506,12.263 11.783,12.258 11.953,12.071C12.393,11.585 12.903,11.009 13.021,10.916C13.541,10.508 14.295,10.624 14.67,11.155C15.305,12.052 15.289,12.068 15.4,12.157C15.579,12.299 15.847,12.286 16.009,12.102L17.189,10.769C17.412,10.66 17.41,10.653 17.431,10.652C17.574,10.643 17.581,10.645 17.688,10.74ZM17.943,13.387C18.044,13.488 18.047,13.495 18.047,13.638C18.047,13.727 18.006,13.82 17.945,13.887C17.814,14.03 16.611,15.346 16.193,15.559C15.702,15.808 15.11,15.671 14.775,15.254C13.916,14.183 13.931,14.167 13.82,14.09C13.615,13.95 13.362,14 13.219,14.175C12.43,15.143 12.452,15.166 12.248,15.324C11.73,15.724 10.987,15.609 10.611,15.088C9.925,14.138 9.942,14.121 9.827,14.032C9.664,13.906 9.425,13.906 9.259,14.055C7.629,15.522 7.634,15.528 7.617,15.534C7.532,15.564 7.452,15.627 7.363,15.622C7.359,15.622 7.117,15.506 7.117,15.504C7.023,15.243 6.944,15.202 7.143,15.007C7.288,14.865 8.632,13.547 9.063,13.343C9.569,13.102 10.17,13.264 10.489,13.708C11.176,14.66 11.162,14.673 11.263,14.755C11.446,14.906 11.727,14.889 11.889,14.69C12.661,13.74 12.646,13.726 12.805,13.587C13.3,13.152 14.056,13.225 14.461,13.73C15.314,14.793 15.295,14.814 15.429,14.902C15.598,15.013 15.831,14.999 15.986,14.843C17.432,13.398 17.428,13.392 17.444,13.386C17.673,13.291 17.671,13.284 17.693,13.284C17.836,13.284 17.842,13.286 17.943,13.387Z"/>
    </g>
</svg>
