<?xml version="1.0" encoding="UTF-8" standalone="no"?>
<!DOCTYPE svg PUBLIC "-//W3C//DTD SVG 1.1//EN" "http://www.w3.org/Graphics/SVG/1.1/DTD/svg11.dtd">
<svg width="100%" height="100%" viewBox="0 0 29 29" version="1.1" xmlns="http://www.w3.org/2000/svg" xmlns:xlink="http://www.w3.org/1999/xlink" xml:space="preserve" xmlns:serif="http://www.serif.com/" style="fill-rule:evenodd;clip-rule:evenodd;stroke-linejoin:round;stroke-miterlimit:2;">
    <g>
        <path d="M25.383,5.323C26.237,5.323 26.929,6.015 26.929,6.869L26.929,22.455C26.929,23.309 26.237,24.001 25.383,24.001L2.964,24.001C2.11,24.001 1.417,23.309 1.417,22.455L1.417,6.869C1.417,6.015 2.11,5.323 2.964,5.323L25.383,5.323ZM19.95,8.512L5.208,8.512C4.876,8.512 4.606,8.781 4.606,9.113L4.606,20.211C4.606,20.543 4.876,20.813 5.208,20.813L19.95,20.813C20.282,20.813 20.551,20.543 20.551,20.211L20.551,9.113C20.551,8.781 20.282,8.512 19.95,8.512ZM5.315,20.104L5.315,9.221L19.843,9.221L19.843,20.104L5.315,20.104ZM17.943,13.867C17.842,13.766 17.836,13.764 17.693,13.764C17.671,13.764 17.673,13.771 17.444,13.866C17.429,13.872 17.433,13.877 15.953,15.357C15.802,15.507 15.579,15.525 15.412,15.426C15.28,15.348 15.296,15.327 14.253,14.164C13.82,13.68 13.058,13.65 12.588,14.115C12.439,14.262 12.454,14.275 11.866,15.095C11.711,15.31 11.418,15.338 11.227,15.183C11.121,15.099 11.136,15.085 10.489,14.188C10.17,13.744 9.569,13.582 9.063,13.823C8.632,14.027 7.288,15.345 7.143,15.487C6.944,15.682 7.023,15.723 7.117,15.984C7.117,15.986 7.359,16.102 7.363,16.102C7.452,16.107 7.532,16.044 7.617,16.014C7.634,16.008 7.629,16.002 9.259,14.535C9.425,14.386 9.664,14.386 9.827,14.512C9.942,14.601 9.925,14.617 10.572,15.514C10.978,16.077 11.799,16.156 12.306,15.666C12.469,15.507 12.452,15.492 13.036,14.678C13.184,14.473 13.444,14.451 13.611,14.546C13.756,14.629 13.738,14.652 14.8,15.836C15.068,16.134 15.635,16.345 16.17,16.067C16.588,15.849 17.812,14.512 17.945,14.367C18.006,14.301 18.047,14.207 18.047,14.118C18.047,13.975 18.044,13.968 17.943,13.867ZM17.688,10.74C17.581,10.645 17.574,10.643 17.431,10.652C17.41,10.653 17.412,10.66 17.189,10.769C17.169,10.778 17.176,10.785 16.056,12.049C15.884,12.244 15.595,12.246 15.419,12.079C15.323,11.988 15.339,11.977 14.877,11.225C14.534,10.664 13.779,10.502 13.233,10.888C13.07,11.003 13.082,11.017 11.965,12.132C11.792,12.305 11.524,12.302 11.355,12.15C11.249,12.055 11.267,12.041 10.702,11.139C10.409,10.671 9.811,10.471 9.288,10.688C8.845,10.871 7.318,12.22 7.156,12.363C6.947,12.548 7.025,12.593 7.105,12.859C7.106,12.861 7.342,12.989 7.346,12.989C7.435,12.998 7.518,12.938 7.604,12.913C7.666,12.894 7.651,12.871 9.457,11.401C9.588,11.295 9.836,11.259 10.019,11.419C10.13,11.517 10.111,11.532 10.676,12.433C11.022,12.987 11.773,13.144 12.315,12.76C12.479,12.645 12.466,12.632 13.582,11.517C13.757,11.343 14.026,11.347 14.195,11.501C14.301,11.597 14.283,11.611 14.743,12.361C15.065,12.886 15.756,13.068 16.299,12.754C16.699,12.523 17.616,11.369 17.72,11.238C17.776,11.168 17.812,11.073 17.806,10.984C17.797,10.841 17.795,10.835 17.688,10.74ZM23.284,8.512C22.529,8.512 21.916,9.124 21.916,9.879C21.916,10.633 22.529,11.245 23.284,11.245C24.038,11.245 24.651,10.633 24.651,9.879C24.651,9.124 24.038,8.512 23.284,8.512Z"/>
        <path d="M25.383,5.323C26.237,5.323 26.929,6.015 26.929,6.869L26.929,22.455C26.929,23.309 26.237,24.001 25.383,24.001L2.964,24.001C2.11,24.001 1.417,23.309 1.417,22.455L1.417,6.869C1.417,6.015 2.11,5.323 2.964,5.323L25.383,5.323ZM25.383,6.457L2.964,6.457C2.736,6.457 2.551,6.641 2.551,6.869L2.551,22.455C2.551,22.683 2.736,22.867 2.964,22.867L25.383,22.867C25.611,22.867 25.795,22.683 25.795,22.455L25.795,6.869C25.795,6.641 25.611,6.457 25.383,6.457ZM21.423,8.207C21.881,7.698 22.545,7.378 23.284,7.378C24.664,7.378 25.785,8.499 25.785,9.879C25.785,11.259 24.664,12.379 23.284,12.379C22.676,12.379 22.119,12.162 21.685,11.802L21.685,20.211L21.65,20.559L21.548,20.887L21.388,21.182L21.177,21.438L20.921,21.649L20.626,21.809L20.298,21.911L19.95,21.946L5.208,21.946L4.859,21.911L4.532,21.809L4.237,21.649L3.981,21.438L3.769,21.182L3.609,20.887L3.508,20.559L3.472,20.211L3.472,9.113L3.508,8.765L3.609,8.438L3.769,8.142L3.981,7.886L4.237,7.675L4.532,7.515L4.859,7.413L5.208,7.378L19.95,7.378L20.298,7.413L20.626,7.515L20.921,7.675L21.177,7.886L21.388,8.142L21.423,8.207ZM23.284,8.512C22.529,8.512 21.916,9.124 21.916,9.879C21.916,10.633 22.529,11.245 23.284,11.245C24.038,11.245 24.651,10.633 24.651,9.879C24.651,9.124 24.038,8.512 23.284,8.512ZM19.95,8.512L5.208,8.512C4.876,8.512 4.606,8.781 4.606,9.113L4.606,20.211C4.606,20.543 4.876,20.813 5.208,20.813L19.95,20.813C20.282,20.813 20.551,20.543 20.551,20.211L20.551,9.113C20.551,8.781 20.282,8.512 19.95,8.512ZM5.315,20.104L5.315,9.221L19.843,9.221L19.843,20.104L5.315,20.104ZM18.709,11.76L18.607,11.944C18.553,12.013 18.303,12.313 17.999,12.652L18.001,12.653L18.265,12.729L18.508,12.861L18.709,13.034L18.709,11.76ZM17.688,10.74C17.581,10.645 17.574,10.643 17.431,10.652C17.41,10.653 17.412,10.66 17.189,10.769C17.169,10.778 17.176,10.785 16.056,12.049C15.884,12.244 15.595,12.246 15.419,12.079C15.323,11.988 15.339,11.977 14.877,11.225C14.534,10.664 13.779,10.502 13.233,10.888C13.07,11.003 13.082,11.017 11.965,12.132C11.792,12.305 11.524,12.302 11.355,12.15C11.249,12.055 11.267,12.041 10.702,11.139C10.409,10.671 9.811,10.471 9.288,10.688C8.845,10.871 7.318,12.22 7.156,12.363C6.947,12.548 7.025,12.593 7.105,12.859C7.106,12.861 7.342,12.989 7.346,12.989C7.435,12.998 7.518,12.938 7.604,12.913C7.666,12.894 7.651,12.871 9.457,11.401C9.588,11.295 9.836,11.259 10.019,11.419C10.13,11.517 10.111,11.532 10.676,12.433C11.022,12.987 11.773,13.144 12.315,12.76C12.479,12.645 12.466,12.632 13.582,11.517C13.757,11.343 14.026,11.347 14.195,11.501C14.301,11.597 14.283,11.611 14.743,12.361C15.065,12.886 15.756,13.068 16.299,12.754C16.699,12.523 17.616,11.369 17.72,11.238C17.776,11.168 17.812,11.073 17.806,10.984C17.797,10.841 17.795,10.835 17.688,10.74ZM7.997,17.081L7.71,17.193L7.304,17.235L6.894,17.135C6.852,17.116 6.652,17.021 6.609,16.998L6.449,16.897L6.449,18.97L18.709,18.97L18.709,15.21C18.371,15.567 17.134,16.843 16.693,17.073C16.16,17.35 15.613,17.383 15.132,17.273C14.896,17.219 14.677,17.13 14.484,17.018L13.957,16.593C13.761,16.375 13.595,16.19 13.458,16.036C13.258,16.314 13.219,16.36 13.095,16.48C12.09,17.454 10.458,17.294 9.652,16.177C9.576,16.073 9.508,15.977 9.447,15.892C8.619,16.638 8.429,16.813 8.379,16.856L7.997,17.081L8.049,17.061C8.031,17.069 8.012,17.077 7.994,17.083L7.997,17.081ZM15.664,14.041M6.449,14.582C6.57,14.467 6.777,14.273 7.018,14.054L6.827,13.997C6.785,13.976 6.591,13.871 6.548,13.846L6.449,13.776L6.449,14.582ZM6.449,11.475C6.637,11.312 7.241,10.8 7.812,10.354L6.449,10.354L6.449,11.475ZM11.536,10.354C11.581,10.413 11.623,10.474 11.663,10.537C11.703,10.601 11.741,10.662 11.776,10.718C11.93,10.564 12.049,10.446 12.141,10.354L11.536,10.354ZM7.932,13.997L7.928,13.999C7.947,13.993 7.966,13.987 7.984,13.98L7.932,13.997ZM15.644,10.354C15.708,10.431 15.769,10.513 15.824,10.6C15.909,10.503 15.98,10.422 16.04,10.354L15.644,10.354ZM17.943,13.867C17.842,13.766 17.836,13.764 17.693,13.764C17.671,13.764 17.673,13.771 17.444,13.866C17.429,13.872 17.433,13.877 15.953,15.357C15.802,15.507 15.579,15.525 15.412,15.426C15.28,15.348 15.296,15.327 14.253,14.164C13.82,13.68 13.058,13.65 12.588,14.115C12.439,14.262 12.454,14.275 11.866,15.095C11.711,15.31 11.418,15.338 11.227,15.183C11.121,15.099 11.136,15.085 10.489,14.188C10.17,13.744 9.569,13.582 9.063,13.823C8.632,14.027 7.288,15.345 7.143,15.487C6.944,15.682 7.023,15.723 7.117,15.984C7.117,15.986 7.359,16.102 7.363,16.102C7.452,16.107 7.532,16.044 7.617,16.014C7.634,16.008 7.629,16.002 9.259,14.535C9.425,14.386 9.664,14.386 9.827,14.512C9.942,14.601 9.925,14.617 10.572,15.514C10.978,16.077 11.799,16.156 12.306,15.666C12.469,15.507 12.452,15.492 13.036,14.678C13.184,14.473 13.444,14.451 13.611,14.546C13.756,14.629 13.738,14.652 14.8,15.836C15.068,16.134 15.635,16.345 16.17,16.067C16.588,15.849 17.812,14.512 17.945,14.367C18.006,14.301 18.047,14.207 18.047,14.118C18.047,13.975 18.044,13.968 17.943,13.867Z"/>
    </g>
</svg>
