<?xml version="1.0" encoding="UTF-8" standalone="no"?>
<!DOCTYPE svg PUBLIC "-//W3C//DTD SVG 1.1//EN" "http://www.w3.org/Graphics/SVG/1.1/DTD/svg11.dtd">
<svg width="100%" height="100%" viewBox="0 0 29 29" version="1.1" xmlns="http://www.w3.org/2000/svg" xmlns:xlink="http://www.w3.org/1999/xlink" xml:space="preserve" xmlns:serif="http://www.serif.com/" style="fill-rule:evenodd;clip-rule:evenodd;stroke-linejoin:round;stroke-miterlimit:2;">
    <g>
        <path d="M9.779,15.747L9.052,15.747C8.838,15.747 8.652,15.597 8.609,15.386L8.038,12.618C8.012,12.597 7.987,12.574 7.963,12.548L3.462,7.422L3.291,7.158L3.202,6.862L3.2,6.552L3.288,6.249L3.458,5.984L3.691,5.781L3.972,5.652L4.284,5.607L7.292,5.607C7.314,5.607 7.336,5.608 7.358,5.61L10.582,3.595C10.844,3.432 11.146,3.345 11.454,3.345L12.001,3.345L12.001,2.921C12.001,2.696 12.09,2.479 12.25,2.32C12.409,2.16 12.626,2.071 12.851,2.071L14.337,2.071C14.562,2.071 14.779,2.16 14.938,2.32C15.098,2.479 15.187,2.696 15.187,2.921L15.187,3.345L15.843,3.345C16.15,3.345 16.454,3.432 16.715,3.595L19.94,5.611L25.191,5.611C25.504,5.611 25.758,5.865 25.758,6.178L25.758,8.721C25.933,8.966 25.995,9.287 25.9,9.597L24.2,15.121C24.038,15.648 23.478,15.945 22.951,15.783C22.423,15.62 22.127,15.06 22.289,14.533L23.989,9.009C24.087,8.69 24.33,8.456 24.624,8.356L24.624,6.745L20.471,6.745L18.688,15.386C18.645,15.597 18.46,15.747 18.245,15.747L17.518,15.747L17.518,17.568L18.246,17.568C18.46,17.568 18.645,17.718 18.689,17.928L20.542,26.806C20.582,26.996 20.534,27.194 20.411,27.345C20.289,27.495 20.105,27.583 19.911,27.583L7.386,27.583C7.192,27.583 7.008,27.495 6.886,27.345C6.764,27.194 6.715,26.996 6.755,26.806L8.608,17.928C8.652,17.718 8.837,17.568 9.051,17.568L9.779,17.568L9.779,15.747ZM17.806,5.614L16.114,4.557C16.033,4.506 15.939,4.479 15.843,4.479L11.454,4.479C11.358,4.479 11.265,4.506 11.183,4.557L9.491,5.614L17.806,5.614ZM12.767,14.614L14.53,14.614L15.71,6.748L11.587,6.748L12.767,14.614ZM15.247,14.614L17.69,14.614L19.313,6.748L16.427,6.748L15.247,14.614ZM10.871,6.748L7.985,6.748L9.607,14.614L12.051,14.614L10.871,6.748ZM4.373,6.74L7.463,10.259L6.819,6.74L4.373,6.74ZM11.605,26.449L15.692,26.449L14.53,18.702L12.767,18.702L11.605,26.449ZM16.409,26.449L19.309,26.449L17.692,18.702L15.247,18.702L16.409,26.449ZM12.051,18.702L9.605,18.702L7.988,26.449L10.889,26.449L12.051,18.702Z"/>
    </g>
</svg>
