<?xml version="1.0" encoding="UTF-8" standalone="no"?>
<!DOCTYPE svg PUBLIC "-//W3C//DTD SVG 1.1//EN" "http://www.w3.org/Graphics/SVG/1.1/DTD/svg11.dtd">
<svg width="100%" height="100%" viewBox="0 0 29 29" version="1.1" xmlns="http://www.w3.org/2000/svg" xmlns:xlink="http://www.w3.org/1999/xlink" xml:space="preserve" xmlns:serif="http://www.serif.com/" style="fill-rule:evenodd;clip-rule:evenodd;stroke-linejoin:round;stroke-miterlimit:2;">
    <g>
        <path d="M4.001,23.057L6.256,9.157L22.311,9.157L24.566,23.057L4.001,23.057ZM18.784,11.343L20.404,20.91C20.437,21.102 20.62,21.232 20.813,21.2C21.006,21.167 21.136,20.984 21.103,20.791L19.483,11.224C19.451,11.031 19.268,10.901 19.075,10.934C18.882,10.967 18.752,11.15 18.784,11.343ZM25.855,23.766C26.227,23.766 26.529,24.068 26.529,24.44L26.529,25.107C26.529,25.479 26.227,25.781 25.855,25.781L2.492,25.781C2.12,25.781 1.818,25.479 1.818,25.107L1.818,24.44C1.818,24.068 2.12,23.766 2.492,23.766L25.855,23.766ZM6.371,8.449L6.388,8.345C6.495,7.686 6.892,7.11 7.47,6.775L11.996,4.157C13.411,3.338 15.156,3.338 16.572,4.157L21.098,6.775C21.675,7.11 22.072,7.686 22.179,8.345L22.196,8.449L6.371,8.449Z"/>
    </g>
</svg>
