<?xml version="1.0" encoding="UTF-8" standalone="no"?>
<!DOCTYPE svg PUBLIC "-//W3C//DTD SVG 1.1//EN" "http://www.w3.org/Graphics/SVG/1.1/DTD/svg11.dtd">
<svg width="100%" height="100%" viewBox="0 0 29 29" version="1.1" xmlns="http://www.w3.org/2000/svg" xmlns:xlink="http://www.w3.org/1999/xlink" xml:space="preserve" xmlns:serif="http://www.serif.com/" style="fill-rule:evenodd;clip-rule:evenodd;stroke-linejoin:round;stroke-miterlimit:2;">
    <g>
        <path d="M6.455,17.705L8.353,17.705L8.353,10.512L7.072,10.512C6.422,10.512 6.182,10.9 6.182,10.9C6.104,11.049 5.95,11.143 5.783,11.143L4.889,11.143C4.766,11.143 4.649,11.093 4.564,11.004C4.479,10.915 4.434,10.796 4.439,10.674C4.439,10.674 4.529,8.624 4.865,7.373C5.007,6.845 5.409,6.512 5.86,6.322C6.435,6.079 7.072,6.079 7.072,6.079L8.353,6.079L8.353,4.236C8.353,4.038 8.432,3.848 8.572,3.707C8.712,3.567 8.903,3.488 9.101,3.488L19.775,3.488C19.974,3.488 20.164,3.567 20.304,3.707C20.445,3.848 20.524,4.038 20.524,4.236L20.524,6.997L24.687,6.997C25.313,6.997 25.821,7.504 25.821,8.13L25.821,23.622C26.061,23.708 26.281,23.846 26.464,24.03C26.79,24.355 26.972,24.796 26.972,25.256L26.972,25.438C26.972,25.57 26.92,25.697 26.826,25.791C26.732,25.884 26.605,25.937 26.473,25.937L1.956,25.937C1.659,25.937 1.417,25.695 1.417,25.398L1.417,25.186C1.417,24.744 1.593,24.321 1.905,24.009C2.217,23.697 2.64,23.522 3.081,23.522L8.353,23.522L8.353,21.603L3.228,21.603C2.837,21.603 2.52,21.287 2.52,20.894L2.52,18.414C2.52,18.023 2.837,17.705 3.228,17.705L3.964,17.705C3.859,17.567 3.79,17.4 3.771,17.216L3.571,14.738C3.56,14.633 3.595,14.528 3.667,14.449C3.738,14.371 3.839,14.326 3.945,14.326L6.474,14.326C6.58,14.326 6.681,14.371 6.752,14.449C6.823,14.528 6.858,14.633 6.847,14.738L6.648,17.216C6.629,17.4 6.56,17.567 6.455,17.705ZM24.687,23.522L24.687,11.66L20.524,11.66L20.524,23.522L24.687,23.522ZM24.687,10.951L24.687,8.13L20.524,8.13L20.524,10.951L24.687,10.951ZM11.16,6.079L16.93,6.079C17.227,6.079 17.512,6.197 17.722,6.407C17.933,6.617 18.051,6.902 18.051,7.2L18.051,10.08C18.051,10.276 18.21,10.435 18.405,10.435C18.601,10.435 18.759,10.276 18.759,10.08L18.759,7.2C18.759,6.714 18.567,6.249 18.224,5.906C17.88,5.563 17.415,5.37 16.93,5.37L11.16,5.37C10.964,5.37 10.805,5.529 10.805,5.724C10.805,5.92 10.964,6.079 11.16,6.079ZM8.353,18.414L3.228,18.414L3.228,20.894L8.353,20.894L8.353,18.414Z"/>
    </g>
</svg>
