<?xml version="1.0" encoding="UTF-8" standalone="no"?>
<!DOCTYPE svg PUBLIC "-//W3C//DTD SVG 1.1//EN" "http://www.w3.org/Graphics/SVG/1.1/DTD/svg11.dtd">
<svg width="100%" height="100%" viewBox="0 0 29 29" version="1.1" xmlns="http://www.w3.org/2000/svg" xmlns:xlink="http://www.w3.org/1999/xlink" xml:space="preserve" xmlns:serif="http://www.serif.com/" style="fill-rule:evenodd;clip-rule:evenodd;stroke-linejoin:round;stroke-miterlimit:2;">
    <g>
        <path d="M24.623,23.412L25.855,23.412C26.423,23.412 26.883,23.872 26.883,24.44L26.883,25.107C26.883,25.675 26.423,26.135 25.855,26.135L2.492,26.135C1.924,26.135 1.463,25.675 1.463,25.107L1.463,24.44C1.463,23.872 1.924,23.412 2.492,23.412L3.944,23.412L6.388,8.345C6.495,7.686 6.892,7.11 7.47,6.775L11.996,4.157C13.411,3.338 15.156,3.338 16.572,4.157L21.098,6.775C21.675,7.11 22.072,7.686 22.179,8.345L24.623,23.412ZM23.474,23.412L21.162,9.157L7.405,9.157C7.008,11.605 5.569,20.473 5.093,23.412L23.474,23.412ZM21.045,8.449C20.976,8.158 20.79,7.907 20.53,7.757L16.004,5.138C14.94,4.523 13.628,4.523 12.563,5.138L8.038,7.757C7.777,7.907 7.592,8.158 7.523,8.449L21.045,8.449ZM18.784,11.343C18.752,11.15 18.882,10.967 19.075,10.934C19.268,10.901 19.451,11.031 19.483,11.224L21.103,20.791C21.136,20.984 21.006,21.167 20.813,21.2C20.62,21.232 20.437,21.102 20.404,20.91L18.784,11.343Z"/>
    </g>
</svg>
