<?xml version="1.0" encoding="UTF-8" standalone="no"?>
<!DOCTYPE svg PUBLIC "-//W3C//DTD SVG 1.1//EN" "http://www.w3.org/Graphics/SVG/1.1/DTD/svg11.dtd">
<svg width="100%" height="100%" viewBox="0 0 29 29" version="1.1" xmlns="http://www.w3.org/2000/svg" xmlns:xlink="http://www.w3.org/1999/xlink" xml:space="preserve" xmlns:serif="http://www.serif.com/" style="fill-rule:evenodd;clip-rule:evenodd;stroke-linejoin:round;stroke-miterlimit:2;">
    <g>
        <path d="M20.403,9.08L15.208,14.275C15.07,14.413 14.845,14.413 14.707,14.275C14.569,14.136 14.569,13.912 14.707,13.773L19.968,8.512C19.937,8.19 19.906,7.194 20.509,6.03C21.19,4.712 22.709,3.124 26.146,2.175C26.339,2.122 26.546,2.175 26.691,2.314C26.835,2.454 26.895,2.659 26.848,2.854C26.848,2.854 26.317,5.069 24.894,6.84C23.899,8.079 22.48,9.097 20.542,9.097C20.494,9.097 20.447,9.091 20.403,9.08ZM21.103,7.925C22.368,7.75 23.313,6.998 24.01,6.13C24.697,5.274 25.151,4.301 25.421,3.592C23.647,4.23 22.579,5.061 21.947,5.878C21.329,6.676 21.149,7.442 21.103,7.925ZM19.025,11.145C19.025,11.145 22.004,8.535 25.31,11.429C25.43,11.534 25.501,11.685 25.504,11.845C25.507,12.004 25.442,12.158 25.327,12.267C25.327,12.267 24.291,13.257 22.704,13.384C21.67,13.466 20.391,13.195 19.023,12.001C18.899,11.893 18.828,11.736 18.829,11.572C18.829,11.408 18.901,11.252 19.025,11.145ZM20.383,11.616C20.958,11.994 21.502,12.181 22,12.241C22.835,12.341 23.527,12.085 23.978,11.837C22.479,10.867 21.13,11.244 20.383,11.616ZM16.937,9.915C15.743,8.547 15.472,7.268 15.554,6.234C15.68,4.647 16.67,3.611 16.67,3.611C16.78,3.495 16.933,3.431 17.093,3.434C17.252,3.437 17.403,3.507 17.508,3.627C20.403,6.934 17.793,9.913 17.793,9.913C17.685,10.037 17.529,10.108 17.365,10.109C17.201,10.109 17.045,10.038 16.937,9.915ZM17.321,8.555C17.694,7.807 18.071,6.459 17.1,4.96C16.852,5.411 16.596,6.103 16.696,6.938C16.756,7.436 16.943,7.98 17.321,8.555ZM13.615,13.236C12.421,11.868 12.15,10.589 12.233,9.555C12.359,7.968 13.349,6.932 13.349,6.932C13.458,6.816 13.612,6.752 13.772,6.755C13.931,6.758 14.082,6.828 14.187,6.949C17.082,10.255 14.471,13.234 14.471,13.234C14.364,13.358 14.208,13.43 14.044,13.43C13.88,13.43 13.723,13.36 13.615,13.236ZM14,11.876C14.372,11.128 14.749,9.78 13.779,8.281C13.531,8.732 13.275,9.424 13.375,10.259C13.435,10.757 13.622,11.301 14,11.876ZM1.691,5.62C1.331,5.261 1.331,4.677 1.691,4.318C2.05,3.958 2.634,3.958 2.994,4.318L24.711,26.035C25.071,26.395 25.071,26.978 24.711,27.338C24.352,27.697 23.768,27.697 23.408,27.338L1.691,5.62ZM11.239,17.241C11.377,17.103 11.602,17.103 11.74,17.241C11.878,17.38 11.878,17.604 11.74,17.743L2.3,27.182C2.162,27.321 1.938,27.321 1.799,27.182C1.661,27.044 1.661,26.819 1.799,26.681L11.239,17.241ZM9.587,20.583C9.587,20.583 12.566,17.973 15.872,20.867C15.992,20.972 16.062,21.123 16.066,21.283C16.069,21.442 16.004,21.596 15.888,21.706C15.888,21.706 14.853,22.695 13.265,22.822C12.232,22.904 10.953,22.633 9.585,21.439C9.461,21.331 9.39,21.175 9.391,21.01C9.391,20.846 9.462,20.69 9.587,20.583ZM10.944,21.054C11.52,21.432 12.064,21.62 12.562,21.679C13.396,21.779 14.089,21.523 14.54,21.276C13.04,20.305 11.692,20.682 10.944,21.054ZM6.265,23.904C6.265,23.904 9.245,21.294 12.551,24.189C12.671,24.294 12.741,24.445 12.744,24.604C12.747,24.764 12.683,24.917 12.567,25.027C12.567,25.027 11.531,26.017 9.944,26.143C8.91,26.225 7.632,25.954 6.263,24.76C6.14,24.652 6.069,24.496 6.069,24.332C6.07,24.168 6.141,24.012 6.265,23.904ZM7.623,24.375C8.198,24.754 8.743,24.941 9.24,25.001C10.075,25.1 10.767,24.845 11.218,24.597C9.719,23.626 8.371,24.003 7.623,24.375ZM7.499,19.353C6.304,17.985 6.033,16.706 6.116,15.672C6.242,14.085 7.232,13.049 7.232,13.049C7.342,12.934 7.495,12.869 7.655,12.872C7.814,12.875 7.965,12.945 8.069,13.066C10.965,16.372 8.355,19.351 8.355,19.351C8.247,19.475 8.09,19.547 7.927,19.547C7.763,19.547 7.607,19.477 7.499,19.353ZM7.883,17.993C8.255,17.245 8.632,15.897 7.662,14.398C7.414,14.849 7.158,15.541 7.258,16.376C7.318,16.874 7.505,17.418 7.883,17.993ZM4.177,22.674C2.983,21.306 2.712,20.027 2.794,18.993C2.921,17.406 3.911,16.37 3.911,16.37C4.02,16.254 4.174,16.19 4.333,16.193C4.493,16.196 4.644,16.267 4.749,16.387C7.643,19.693 5.033,22.672 5.033,22.672C4.926,22.796 4.77,22.868 4.606,22.868C4.442,22.869 4.285,22.798 4.177,22.674ZM4.562,21.314C4.934,20.567 5.311,19.218 4.341,17.719C4.093,18.17 3.837,18.862 3.937,19.697C3.997,20.195 4.184,20.739 4.562,21.314ZM15.704,14.466C15.704,14.466 18.683,11.856 21.989,14.75C22.109,14.856 22.179,15.006 22.182,15.166C22.185,15.326 22.121,15.479 22.005,15.589C22.005,15.589 20.969,16.579 19.382,16.705C18.349,16.787 17.07,16.516 15.702,15.322C15.578,15.214 15.507,15.058 15.507,14.894C15.508,14.729 15.579,14.573 15.704,14.466ZM17.061,14.937C17.637,15.316 18.181,15.503 18.678,15.562C19.513,15.662 20.205,15.407 20.656,15.159C19.157,14.188 17.809,14.565 17.061,14.937Z"/>
    </g>
</svg>
