<?xml version="1.0" encoding="UTF-8" standalone="no"?>
<!DOCTYPE svg PUBLIC "-//W3C//DTD SVG 1.1//EN" "http://www.w3.org/Graphics/SVG/1.1/DTD/svg11.dtd">
<svg width="100%" height="100%" viewBox="0 0 119 119" version="1.1" xmlns="http://www.w3.org/2000/svg" xmlns:xlink="http://www.w3.org/1999/xlink" xml:space="preserve" xmlns:serif="http://www.serif.com/" style="fill-rule:evenodd;clip-rule:evenodd;stroke-linejoin:round;stroke-miterlimit:2;">
    <g transform="matrix(1,0,0,1,-1177.44,0)">
        <g id="Ocean_Friendly_AH_Icon" transform="matrix(0.424857,0,0,0.509096,1920.94,-77.8917)">
            <rect x="-1750" y="153" width="278" height="232" style="fill:none;"/>
            <g transform="matrix(2.63977,0,0,2.20297,-1766.15,114.367)">
                <path d="M14.528,86.954C13.616,87.675 12.29,87.52 11.57,86.608C10.849,85.695 11.004,84.37 11.916,83.649C11.916,83.649 17.589,79.161 21.781,72.579C24.957,67.592 27.048,60.192 30.45,52.773C34.059,44.904 39.07,37.033 47.907,31.621C58.995,24.831 69.672,23.859 77.085,27.78C82.202,30.487 85.893,35.504 87.175,42.769C87.316,43.569 86.984,44.379 86.322,44.851C85.66,45.322 84.786,45.371 84.076,44.975C84.076,44.975 71.085,37.671 62.676,48.706C57.471,55.537 58.886,62.3 62.476,68.178C66.382,74.574 72.771,79.986 76.947,83.569C77.83,84.326 77.931,85.657 77.175,86.539C76.418,87.421 75.087,87.523 74.205,86.766C69.768,82.96 63.029,77.167 58.881,70.373C54.415,63.061 52.85,54.65 59.326,46.152C66.551,36.671 76.459,37.904 81.981,39.619C80.572,35.871 78.202,33.137 75.115,31.504C68.747,28.136 59.632,29.381 50.107,35.214C42.061,40.141 37.565,47.364 34.279,54.529C30.787,62.145 28.595,69.722 25.334,74.842C20.745,82.047 14.528,86.954 14.528,86.954ZM84.653,81.673C84.653,81.673 81.125,78.998 74.178,72.576C71.156,69.782 67.998,65.876 66.633,62.03C65.851,59.826 65.64,57.628 66.191,55.604C66.757,53.526 68.106,51.586 70.629,50.024C74.505,47.624 78.287,48.202 81.427,50.014C83.187,51.029 84.727,52.454 85.931,53.905C87.144,52.452 88.699,51.026 90.475,50.01C93.635,48.201 97.437,47.627 101.307,50.024C103.83,51.586 105.18,53.526 105.745,55.604C106.296,57.628 106.086,59.826 105.303,62.03C103.938,65.876 100.78,69.782 97.758,72.576C90.8,79.009 87.182,81.687 87.182,81.687C86.43,82.245 85.399,82.239 84.653,81.673ZM85.939,77.31C87.507,76.048 90.517,73.533 94.899,69.482C97.451,67.123 100.18,63.87 101.333,60.621C101.81,59.278 102.016,57.944 101.681,56.711C101.36,55.532 100.52,54.491 99.09,53.605C96.759,52.163 94.47,52.576 92.568,53.666C90.396,54.909 88.67,56.977 87.773,58.609C87.403,59.283 86.696,59.702 85.927,59.702C85.158,59.702 84.451,59.283 84.081,58.609C83.184,56.976 81.476,54.906 79.321,53.662C77.439,52.576 75.171,52.166 72.847,53.605C71.416,54.491 70.576,55.532 70.256,56.711C69.92,57.944 70.126,59.278 70.603,60.621C71.756,63.87 74.485,67.123 77.037,69.482C81.412,73.527 84.388,76.042 85.939,77.31ZM87.576,71.196C86.995,71.633 86.169,71.515 85.732,70.935C85.296,70.354 85.413,69.528 85.994,69.091C85.994,69.091 91.324,65.08 95.492,58.722C95.89,58.115 96.707,57.945 97.315,58.343C97.922,58.741 98.092,59.558 97.694,60.166C93.258,66.933 87.576,71.196 87.576,71.196ZM102.712,92.122C103.653,91.439 104.971,91.648 105.654,92.589C106.336,93.53 106.127,94.848 105.186,95.531L99.762,99.466C95.38,102.646 89.459,102.681 85.039,99.553L80.601,96.411L76.268,99.509C71.871,102.653 65.963,102.653 61.566,99.509C61.566,99.509 57.24,96.416 57.24,96.416L52.916,99.507C48.518,102.652 42.606,102.651 38.21,99.504L33.896,96.416L30.435,98.891C25.552,102.382 18.887,101.957 14.487,97.874L11.789,95.37C10.937,94.579 10.888,93.246 11.678,92.393C12.469,91.541 13.803,91.492 14.655,92.282L17.353,94.786C20.286,97.509 24.73,97.792 27.985,95.464L32.672,92.113C33.405,91.589 34.39,91.589 35.123,92.114L40.662,96.078C43.593,98.176 47.534,98.177 50.466,96.081L56.015,92.113C56.747,91.589 57.732,91.589 58.465,92.113L64.017,96.083C66.947,98.179 70.887,98.179 73.818,96.083L79.369,92.113C80.099,91.591 81.079,91.589 81.811,92.107L87.473,96.115C90.419,98.2 94.367,98.177 97.288,96.057L102.712,92.122ZM102.712,104.456C103.653,103.773 104.971,103.983 105.654,104.924C106.336,105.864 106.127,107.183 105.186,107.865L99.762,111.801C95.38,114.981 89.459,115.016 85.039,111.887L80.601,108.745L76.268,111.844C71.871,114.987 65.963,114.987 61.566,111.844C61.566,111.844 57.24,108.75 57.24,108.75L52.916,111.842C48.518,114.987 42.606,114.985 38.21,111.838L33.896,108.75L30.435,111.225C25.552,114.717 18.887,114.292 14.487,110.208L11.789,107.704C10.937,106.914 10.888,105.58 11.678,104.728C12.469,103.876 13.803,103.826 14.655,104.617L17.353,107.121C20.286,109.843 24.73,110.126 27.985,107.799L32.672,104.447C33.405,103.923 34.39,103.923 35.123,104.448L40.662,108.413C43.593,110.511 47.534,110.512 50.466,108.415L56.015,104.447C56.747,103.923 57.732,103.923 58.465,104.447L64.017,108.417C66.947,110.513 70.887,110.513 73.818,108.417L79.369,104.447C80.099,103.926 81.079,103.923 81.811,104.441L87.473,108.449C90.419,110.535 94.367,110.511 97.288,108.391L102.712,104.456Z"/>
            </g>
        </g>
    </g>
</svg>
