<?xml version="1.0" encoding="UTF-8" standalone="no"?>
<!DOCTYPE svg PUBLIC "-//W3C//DTD SVG 1.1//EN" "http://www.w3.org/Graphics/SVG/1.1/DTD/svg11.dtd">
<svg width="100%" height="100%" viewBox="0 0 119 119" version="1.1" xmlns="http://www.w3.org/2000/svg" xmlns:xlink="http://www.w3.org/1999/xlink" xml:space="preserve" xmlns:serif="http://www.serif.com/" style="fill-rule:evenodd;clip-rule:evenodd;stroke-linejoin:round;stroke-miterlimit:2;">
    <g transform="matrix(1,0,0,1,-401,-3863)">
        <g id="Ontdooien-AH-Outlined" transform="matrix(0.424857,0,0,0.509096,1144.5,3785.11)">
            <rect x="-1750" y="153" width="278" height="232" style="fill:none;"/>
            <g transform="matrix(2.38886,0,0,0.996792,-1752.07,-2584.17)">
                <path d="M14.399,2860.25L9.596,2860.25C8.312,2860.25 7.269,2858.16 7.269,2855.6C7.269,2853.03 8.312,2850.94 9.596,2850.94L14.399,2850.94L10.809,2843.3C9.93,2841.42 9.976,2838.48 10.912,2836.72C11.849,2834.96 13.323,2835.05 14.202,2836.92L20.786,2850.94L31.098,2850.94L26.946,2842.1C26.397,2840.93 26.426,2839.09 27.011,2837.99C27.596,2836.89 28.517,2836.95 29.067,2838.12L35.09,2850.94L53.076,2850.94L40.103,2824.99L31.311,2825.54C30.508,2825.59 29.836,2824.33 29.811,2822.73C29.786,2821.12 30.417,2819.78 31.22,2819.73L37.28,2819.35L29.989,2804.77L20.377,2805.37C19.093,2805.45 18.018,2803.43 17.978,2800.86C17.938,2798.29 18.948,2796.14 20.232,2796.06L25.472,2795.73L22.076,2788.94C21.168,2787.12 21.168,2784.18 22.076,2782.36C22.985,2780.54 24.459,2780.54 25.368,2782.36L28.764,2789.15L28.928,2778.67C28.968,2776.1 30.043,2774.08 31.327,2774.16C32.611,2774.24 33.621,2776.39 33.581,2778.96L33.28,2798.18L40.572,2812.77L40.761,2800.64C40.786,2799.04 41.458,2797.78 42.26,2797.83C43.063,2797.88 43.694,2799.22 43.669,2800.83L43.394,2818.41L56.728,2845.08L56.728,2807.66L50.316,2795.62C49.731,2794.52 49.702,2792.68 50.252,2791.51C50.802,2790.34 51.723,2790.28 52.308,2791.38L56.728,2799.68L56.728,2779.06L49.719,2765.89C48.783,2764.13 48.737,2761.18 49.616,2759.31C50.496,2757.44 51.97,2757.35 52.906,2759.1L56.728,2766.28L56.728,2756.68C56.728,2754.11 57.771,2752.02 59.055,2752.02C60.34,2752.02 61.383,2754.11 61.383,2756.68L61.383,2766.28L65.204,2759.1C66.141,2757.35 67.615,2757.44 68.494,2759.31C69.374,2761.18 69.328,2764.13 68.391,2765.89L61.383,2779.06L61.383,2799.68L65.802,2791.38C66.387,2790.28 67.308,2790.34 67.858,2791.51C68.408,2792.68 68.379,2794.52 67.794,2795.62L61.383,2807.66L61.383,2844.36L74.356,2818.41L74.081,2800.83C74.056,2799.22 74.687,2797.88 75.489,2797.83C76.292,2797.78 76.964,2799.04 76.989,2800.64L77.178,2812.77L84.47,2798.18L84.169,2778.96C84.129,2776.39 85.139,2774.24 86.423,2774.16C87.707,2774.08 88.782,2776.1 88.822,2778.67L88.986,2789.15L92.382,2782.36C93.29,2780.54 94.765,2780.54 95.673,2782.36C96.582,2784.18 96.582,2787.12 95.673,2788.94L92.277,2795.73L97.518,2796.06C98.802,2796.14 99.812,2798.29 99.772,2800.86C99.732,2803.43 98.657,2805.45 97.373,2805.37L87.761,2804.77L80.47,2819.35L86.53,2819.73C87.332,2819.78 87.964,2821.12 87.939,2822.73C87.913,2824.33 87.242,2825.59 86.439,2825.54L77.647,2824.99L64.674,2850.94L83.021,2850.94L89.043,2838.12C89.593,2836.95 90.514,2836.89 91.099,2837.99C91.685,2839.09 91.713,2840.93 91.164,2842.1L87.012,2850.94L97.324,2850.94L103.908,2836.92C104.788,2835.05 106.262,2834.96 107.198,2836.72C108.134,2838.48 108.18,2841.42 107.301,2843.3L103.711,2850.94L108.514,2850.94C109.798,2850.94 110.841,2853.03 110.841,2855.6C110.841,2858.16 109.798,2860.25 108.514,2860.25L103.711,2860.25L107.301,2867.89C108.18,2869.77 108.134,2872.71 107.198,2874.47C106.262,2876.23 104.788,2876.14 103.908,2874.27L97.324,2860.25L87.012,2860.25L91.164,2869.09C91.713,2870.26 91.685,2872.1 91.099,2873.2C90.514,2874.3 89.593,2874.24 89.043,2873.07L83.021,2860.25L59.055,2860.25L35.09,2860.25L29.067,2873.07C28.517,2874.24 27.596,2874.3 27.011,2873.2C26.426,2872.1 26.397,2870.26 26.946,2869.09L31.098,2860.25L20.786,2860.25L14.202,2874.27C13.323,2876.14 11.849,2876.23 10.912,2874.47C9.976,2872.71 9.93,2869.77 10.809,2867.89L14.399,2860.25ZM60.752,2889.04C60.752,2889.04 71.787,2911.37 71.787,2936.8C71.787,2945.38 70.571,2951.62 68.856,2956.08C66.143,2963.13 62.085,2965.89 58.695,2965.89C55.304,2965.89 51.246,2963.13 48.533,2956.08C46.818,2951.62 45.603,2945.38 45.603,2936.8C45.603,2911.37 56.637,2889.04 56.637,2889.04C57.774,2886.77 59.616,2886.77 60.752,2889.04ZM58.695,2893.16C58.695,2893.16 48.512,2913.52 48.512,2936.8C48.512,2954.26 54.331,2960.07 58.695,2960.07C63.059,2960.07 68.877,2954.26 68.877,2936.8C68.877,2913.52 58.695,2893.16 58.695,2893.16ZM62.017,2928.59C61.803,2927.04 62.256,2925.44 63.03,2925.01C63.803,2924.58 64.606,2925.49 64.821,2927.03C64.821,2927.03 67.114,2943.83 59.673,2950.81C58.946,2951.49 58.079,2950.87 57.738,2949.41C57.397,2947.96 57.711,2946.23 58.437,2945.54C63.723,2940.59 62.017,2928.59 62.017,2928.59ZM97.479,2889.04C97.479,2889.04 108.514,2911.37 108.514,2936.8C108.514,2945.38 107.298,2951.62 105.583,2956.08C102.87,2963.13 98.813,2965.89 95.422,2965.89C92.031,2965.89 87.973,2963.13 85.261,2956.08C83.545,2951.62 82.33,2945.38 82.33,2936.8C82.33,2911.37 93.365,2889.04 93.365,2889.04C94.501,2886.77 96.343,2886.77 97.479,2889.04ZM95.422,2893.16C95.422,2893.16 85.239,2913.52 85.239,2936.8C85.239,2954.26 91.058,2960.07 95.422,2960.07C99.786,2960.07 105.604,2954.26 105.604,2936.8C105.604,2913.52 95.422,2893.16 95.422,2893.16ZM98.745,2928.59C98.53,2927.04 98.983,2925.44 99.757,2925.01C100.531,2924.58 101.333,2925.49 101.548,2927.03C101.548,2927.03 103.841,2943.83 96.4,2950.81C95.673,2951.49 94.806,2950.87 94.465,2949.41C94.124,2947.96 94.438,2946.23 95.165,2945.54C100.45,2940.59 98.745,2928.59 98.745,2928.59ZM23.291,2889.04C23.291,2889.04 34.326,2911.37 34.326,2936.8C34.326,2945.38 33.11,2951.62 31.395,2956.08C28.682,2963.13 24.625,2965.89 21.234,2965.89C17.843,2965.89 13.785,2963.13 11.073,2956.08C9.357,2951.62 8.142,2945.38 8.142,2936.8C8.142,2911.37 19.177,2889.04 19.177,2889.04C20.313,2886.77 22.155,2886.77 23.291,2889.04ZM21.234,2893.16C21.234,2893.16 11.051,2913.52 11.051,2936.8C11.051,2954.26 16.87,2960.07 21.234,2960.07C25.598,2960.07 31.416,2954.26 31.416,2936.8C31.416,2913.52 21.234,2893.16 21.234,2893.16ZM24.557,2928.59C24.342,2927.04 24.795,2925.44 25.569,2925.01C26.343,2924.58 27.145,2925.49 27.36,2927.03C27.36,2927.03 29.653,2943.83 22.212,2950.81C21.485,2951.49 20.618,2950.87 20.277,2949.41C19.936,2947.96 20.25,2946.23 20.977,2945.54C26.262,2940.59 24.557,2928.59 24.557,2928.59Z"/>
            </g>
        </g>
    </g>
</svg>
