<?xml version="1.0" encoding="UTF-8" standalone="no"?>
<!DOCTYPE svg PUBLIC "-//W3C//DTD SVG 1.1//EN" "http://www.w3.org/Graphics/SVG/1.1/DTD/svg11.dtd">
<svg width="100%" height="100%" viewBox="0 0 29 29" version="1.1" xmlns="http://www.w3.org/2000/svg" xmlns:xlink="http://www.w3.org/1999/xlink" xml:space="preserve" xmlns:serif="http://www.serif.com/" style="fill-rule:evenodd;clip-rule:evenodd;stroke-linejoin:round;stroke-miterlimit:2;">
    <g>
        <path d="M9.325,11.568L5.862,3.715C5.702,3.352 5.736,2.933 5.953,2.6C6.17,2.268 6.539,2.067 6.936,2.067L20.868,2.067C21.233,2.067 21.576,2.242 21.791,2.537C22.005,2.832 22.066,3.212 21.953,3.559L19.368,11.537L20.04,14.34C20.045,14.362 20.049,14.384 20.051,14.406L20.314,15.412L23.039,15.412C23.654,15.412 24.244,15.656 24.678,16.091C25.113,16.526 25.357,17.115 25.357,17.73L25.357,21.118C25.357,22.398 24.32,23.436 23.04,23.436L22.409,23.436L22.869,25.198C23.019,25.768 22.894,26.376 22.533,26.843C22.172,27.309 21.615,27.583 21.025,27.583L7.703,27.583C7.102,27.583 6.536,27.3 6.176,26.819C5.816,26.339 5.704,25.717 5.874,25.141L8.317,16.845L6.595,14.266C6.436,14.027 6.421,13.72 6.557,13.466C6.692,13.213 6.956,13.055 7.244,13.055L8.969,13.055L9.325,11.568ZM18.298,11.16L20.875,3.21C20.875,3.208 20.875,3.206 20.874,3.204C20.872,3.202 20.87,3.201 20.868,3.201L6.936,3.201C6.923,3.201 6.91,3.208 6.903,3.219C6.895,3.231 6.894,3.245 6.9,3.257L10.385,11.16L18.298,11.16ZM18.566,13.055L18.281,11.869L10.419,11.869L10.135,13.055L18.566,13.055ZM20.61,16.546L22.113,22.302L23.04,22.302C23.693,22.302 24.223,21.772 24.223,21.118L24.223,17.73C24.223,17.416 24.099,17.115 23.877,16.893C23.655,16.671 23.353,16.546 23.039,16.546L20.61,16.546ZM21.09,22.869L18.823,14.189L7.907,14.189L9.26,16.215C9.446,16.495 9.499,16.843 9.404,17.165L7.725,22.869L21.09,22.869ZM12.569,19.041C12.569,17.408 14.292,15.979 14.292,15.979C14.292,15.979 16.014,17.408 16.014,19.041C16.014,19.886 15.243,20.572 14.292,20.572C13.341,20.572 12.569,19.886 12.569,19.041ZM18.033,5.077C18.101,4.894 18.306,4.801 18.489,4.87C18.672,4.938 18.765,5.143 18.696,5.326L16.997,9.853C16.928,10.036 16.723,10.129 16.54,10.06C16.357,9.992 16.264,9.787 16.333,9.604L18.033,5.077Z"/>
    </g>
</svg>
