<?xml version="1.0" encoding="UTF-8" standalone="no"?>
<!DOCTYPE svg PUBLIC "-//W3C//DTD SVG 1.1//EN" "http://www.w3.org/Graphics/SVG/1.1/DTD/svg11.dtd">
<svg width="100%" height="100%" viewBox="0 0 29 29" version="1.1" xmlns="http://www.w3.org/2000/svg" xmlns:xlink="http://www.w3.org/1999/xlink" xml:space="preserve" xmlns:serif="http://www.serif.com/" style="fill-rule:evenodd;clip-rule:evenodd;stroke-linejoin:round;stroke-miterlimit:2;">
    <g>
        <path d="M25.383,3.438C26.237,3.438 26.929,4.13 26.929,4.984L26.929,24.67C26.929,25.524 26.237,26.216 25.383,26.216L2.964,26.216C2.11,26.216 1.417,25.524 1.417,24.67L1.417,4.984C1.417,4.13 2.11,3.438 2.964,3.438L25.383,3.438ZM25.383,4.571L2.964,4.571C2.736,4.571 2.551,4.756 2.551,4.984L2.551,24.67C2.551,24.897 2.736,25.082 2.964,25.082L25.383,25.082C25.611,25.082 25.795,24.897 25.795,24.67L25.795,4.984C25.795,4.756 25.611,4.571 25.383,4.571ZM23.594,10.727C23.926,10.727 24.196,10.996 24.196,11.328L24.196,22.881C24.196,23.213 23.926,23.483 23.594,23.483L4.752,23.483C4.42,23.483 4.151,23.213 4.151,22.881L4.151,11.328C4.151,10.996 4.42,10.727 4.752,10.727L23.594,10.727ZM4.859,11.435L4.859,22.774L23.487,22.774L23.487,11.435L4.859,11.435ZM7.848,14.498C7.652,14.498 7.493,14.34 7.493,14.144C7.493,13.948 7.652,13.79 7.848,13.79L20.499,13.79C20.695,13.79 20.853,13.948 20.853,14.144C20.853,14.34 20.695,14.498 20.499,14.498L7.848,14.498ZM11.895,6.171C12.65,6.171 13.263,6.783 13.263,7.538C13.263,8.292 12.65,8.904 11.895,8.904C11.14,8.904 10.527,8.292 10.527,7.538C10.527,6.783 11.14,6.171 11.895,6.171ZM16.451,6.171C17.206,6.171 17.819,6.783 17.819,7.538C17.819,8.292 17.206,8.904 16.451,8.904C15.697,8.904 15.084,8.292 15.084,7.538C15.084,6.783 15.697,6.171 16.451,6.171ZM21.008,6.171C21.763,6.171 22.376,6.783 22.376,7.538C22.376,8.292 21.763,8.904 21.008,8.904C20.253,8.904 19.64,8.292 19.64,7.538C19.64,6.783 20.253,6.171 21.008,6.171ZM7.339,6.171C8.094,6.171 8.706,6.783 8.706,7.538C8.706,8.292 8.094,8.904 7.339,8.904C6.584,8.904 5.97,8.292 5.97,7.538C5.97,6.783 6.584,6.171 7.339,6.171Z"/>
    </g>
</svg>
