<?xml version="1.0" encoding="UTF-8" standalone="no"?>
<!DOCTYPE svg PUBLIC "-//W3C//DTD SVG 1.1//EN" "http://www.w3.org/Graphics/SVG/1.1/DTD/svg11.dtd">
<svg width="100%" height="100%" viewBox="0 0 29 29" version="1.1" xmlns="http://www.w3.org/2000/svg" xmlns:xlink="http://www.w3.org/1999/xlink" xml:space="preserve" xmlns:serif="http://www.serif.com/" style="fill-rule:evenodd;clip-rule:evenodd;stroke-linejoin:round;stroke-miterlimit:2;">
    <g>
        <path d="M8.633,9.597L8.633,3.617C8.633,3.207 8.796,2.814 9.086,2.524C9.376,2.234 9.77,2.071 10.18,2.071L25.383,2.071C25.793,2.071 26.186,2.234 26.476,2.524C26.766,2.814 26.929,3.207 26.929,3.617L26.929,16.86C26.929,17.27 26.766,17.663 26.476,17.953C26.186,18.243 25.793,18.406 25.383,18.406L17.626,18.406L17.558,17.272L25.383,17.272C25.492,17.272 25.597,17.229 25.674,17.152C25.752,17.074 25.795,16.969 25.795,16.86L25.795,3.617C25.795,3.508 25.752,3.403 25.674,3.326C25.597,3.248 25.492,3.205 25.383,3.205L10.18,3.205C10.07,3.205 9.965,3.248 9.888,3.326C9.811,3.403 9.767,3.508 9.767,3.617L9.767,9.597L8.633,9.597ZM10.594,9.597L10.594,7.9C10.594,7.74 10.657,7.587 10.77,7.474C10.883,7.362 11.036,7.298 11.195,7.298L24.367,7.298C24.527,7.298 24.68,7.362 24.793,7.474C24.906,7.587 24.969,7.74 24.969,7.9L24.969,15.845C24.969,16.004 24.906,16.157 24.793,16.27C24.68,16.383 24.527,16.446 24.367,16.446L17.509,16.446L17.466,15.737L24.26,15.737L24.26,8.007L11.302,8.007L11.302,9.597L10.594,9.597ZM13.111,9.597C12.981,9.544 12.89,9.417 12.89,9.27C12.89,9.073 13.049,8.915 13.245,8.915L22.318,8.915C22.513,8.915 22.672,9.073 22.672,9.27C22.672,9.465 22.513,9.623 22.318,9.623L13.57,9.623C13.419,9.606 13.266,9.598 13.111,9.597ZM16.146,4.031C16.689,4.031 17.128,4.47 17.128,5.011C17.128,5.552 16.689,5.991 16.146,5.991C15.606,5.991 15.167,5.552 15.167,5.011C15.167,4.47 15.606,4.031 16.146,4.031ZM12.88,4.031C13.421,4.031 13.861,4.47 13.861,5.011C13.861,5.552 13.421,5.991 12.88,5.991C12.338,5.991 11.899,5.552 11.899,5.011C11.899,4.47 12.338,4.031 12.88,4.031ZM19.415,4.031C19.956,4.031 20.396,4.47 20.396,5.011C20.396,5.552 19.956,5.991 19.415,5.991C18.874,5.991 18.434,5.552 18.434,5.011C18.434,4.47 18.874,4.031 19.415,4.031ZM22.683,4.031C23.224,4.031 23.664,4.47 23.664,5.011C23.664,5.552 23.224,5.991 22.683,5.991C22.141,5.991 21.702,5.552 21.702,5.011C21.702,4.47 22.141,4.031 22.683,4.031ZM9.124,27.444L9.117,27.444C7.523,27.444 6.278,27.49 5.292,27.191C1.238,25.965 1.52,22.13 1.544,21.877L2.033,13.663C2.132,12.016 3.497,10.731 5.147,10.731L13.094,10.731C14.744,10.731 16.108,12.016 16.207,13.663C16.207,13.663 16.697,21.872 16.696,21.869C16.729,22.172 17.044,25.908 12.957,27.189C11.973,27.498 10.722,27.444 9.124,27.444ZM15.003,13.304C14.765,12.469 13.997,11.865 13.094,11.865L5.147,11.865C4.244,11.865 3.476,12.469 3.238,13.304L15.003,13.304ZM3.149,14.013L2.675,21.954C2.675,21.963 2.674,21.971 2.673,21.98C2.673,21.98 2.356,25.119 5.62,26.106C6.521,26.378 7.661,26.31 9.117,26.31L9.124,26.31C10.579,26.31 11.721,26.389 12.618,26.107C15.93,25.069 15.569,21.99 15.569,21.99C15.568,21.978 15.566,21.966 15.566,21.954L15.092,14.013L3.149,14.013ZM7.466,20.736C7.234,20.853 7.006,21.077 6.81,21.347C6.785,21.383 6.525,21.929 5.866,22.001C5.063,22.089 4.24,21.109 4.24,20.301C4.24,19.79 4.524,19.194 4.922,18.932C5.6,18.346 6.308,18.324 6.81,18.325C7.34,18.326 7.701,18.524 7.898,18.672C8.066,18.516 8.264,18.39 8.483,18.306C8.363,18.082 8.144,17.861 7.882,17.671C7.846,17.646 7.3,17.386 7.228,16.727C7.141,15.924 8.12,15.101 8.927,15.101C9.439,15.101 10.035,15.385 10.297,15.783C10.883,16.461 10.905,17.168 10.904,17.671C10.903,18.252 10.665,18.63 10.516,18.81C10.66,18.976 10.775,19.168 10.852,19.378C11.101,19.269 11.348,19.032 11.558,18.742C11.583,18.707 11.843,18.161 12.502,18.089C13.305,18.001 14.128,18.981 14.128,19.789C14.128,20.3 13.844,20.896 13.446,21.158C12.768,21.744 12.061,21.765 11.558,21.765C10.934,21.764 10.544,21.489 10.382,21.345C10.225,21.491 10.043,21.609 9.843,21.693C9.947,21.948 10.189,22.203 10.487,22.419C10.522,22.444 11.068,22.704 11.14,23.363C11.228,24.166 10.248,24.989 9.44,24.989C8.929,24.989 8.333,24.705 8.071,24.307C7.485,23.629 7.464,22.921 7.464,22.419C7.465,21.851 7.693,21.477 7.843,21.292C7.685,21.132 7.556,20.944 7.466,20.736ZM9.14,19.318C8.758,19.318 8.449,19.627 8.449,20.009C8.449,20.39 8.758,20.7 9.14,20.7C9.521,20.7 9.831,20.39 9.831,20.009C9.831,19.627 9.521,19.318 9.14,19.318Z"/>
    </g>
</svg>
