<?xml version="1.0" encoding="UTF-8" standalone="no"?>
<!DOCTYPE svg PUBLIC "-//W3C//DTD SVG 1.1//EN" "http://www.w3.org/Graphics/SVG/1.1/DTD/svg11.dtd">
<svg width="100%" height="100%" viewBox="0 0 29 29" version="1.1" xmlns="http://www.w3.org/2000/svg" xmlns:xlink="http://www.w3.org/1999/xlink" xml:space="preserve" xmlns:serif="http://www.serif.com/" style="fill-rule:evenodd;clip-rule:evenodd;stroke-linejoin:round;stroke-miterlimit:2;">
    <g>
        <path d="M12.907,9.597L11.302,9.597L11.302,8.007L24.26,8.007L24.26,15.737L17.466,15.737L17.339,13.596C17.235,11.852 16.09,10.405 14.53,9.846L22.318,9.846C22.513,9.846 22.672,9.687 22.672,9.491C22.672,9.296 22.513,9.137 22.318,9.137L13.245,9.137C13.049,9.137 12.89,9.296 12.89,9.491C12.89,9.528 12.896,9.564 12.907,9.597ZM8.633,9.597L8.633,3.617C8.633,3.207 8.796,2.814 9.086,2.524C9.376,2.234 9.77,2.071 10.18,2.071L25.383,2.071C25.793,2.071 26.186,2.234 26.476,2.524C26.766,2.814 26.929,3.207 26.929,3.617L26.929,16.86C26.929,17.27 26.766,17.663 26.476,17.953C26.186,18.243 25.793,18.406 25.383,18.406L17.626,18.406L17.509,16.446L24.367,16.446C24.527,16.446 24.68,16.383 24.793,16.27C24.906,16.157 24.969,16.004 24.969,15.845L24.969,7.9C24.969,7.74 24.906,7.587 24.793,7.474C24.68,7.362 24.527,7.298 24.367,7.298L11.195,7.298C11.036,7.298 10.883,7.362 10.77,7.474C10.657,7.587 10.594,7.74 10.594,7.9L10.594,9.597L8.633,9.597ZM16.146,4.031C15.606,4.031 15.167,4.47 15.167,5.011C15.167,5.552 15.606,5.991 16.146,5.991C16.689,5.991 17.128,5.552 17.128,5.011C17.128,4.47 16.689,4.031 16.146,4.031ZM12.88,4.031C12.338,4.031 11.899,4.47 11.899,5.011C11.899,5.552 12.338,5.991 12.88,5.991C13.421,5.991 13.861,5.552 13.861,5.011C13.861,4.47 13.421,4.031 12.88,4.031ZM19.415,4.031C18.874,4.031 18.434,4.47 18.434,5.011C18.434,5.552 18.874,5.991 19.415,5.991C19.956,5.991 20.396,5.552 20.396,5.011C20.396,4.47 19.956,4.031 19.415,4.031ZM22.683,4.031C22.141,4.031 21.702,4.47 21.702,5.011C21.702,5.552 22.141,5.991 22.683,5.991C23.224,5.991 23.664,5.552 23.664,5.011C23.664,4.47 23.224,4.031 22.683,4.031ZM2.076,13.304C2.336,11.833 3.619,10.731 5.147,10.731L13.094,10.731C14.622,10.731 15.905,11.833 16.165,13.304L2.076,13.304ZM16.228,14.013C16.32,15.578 16.697,21.871 16.696,21.869C16.729,22.172 17.044,25.908 12.957,27.189C11.973,27.498 10.722,27.444 9.124,27.444L9.117,27.444C7.523,27.444 6.278,27.49 5.292,27.191C1.238,25.965 1.52,22.13 1.544,21.877L2.013,14.013L16.228,14.013ZM7.466,21.216C7.556,21.424 7.685,21.612 7.843,21.772C7.693,21.957 7.465,22.331 7.464,22.899C7.464,23.401 7.485,24.109 8.071,24.787C8.333,25.185 8.929,25.469 9.44,25.469C10.248,25.469 11.228,24.646 11.14,23.843C11.068,23.184 10.522,22.924 10.487,22.899C10.189,22.683 9.947,22.428 9.843,22.173C10.043,22.089 10.225,21.971 10.382,21.825C10.544,21.969 10.934,22.244 11.558,22.245C12.061,22.245 12.768,22.224 13.446,21.638C13.844,21.376 14.128,20.78 14.128,20.269C14.128,19.461 13.305,18.481 12.502,18.569C11.843,18.641 11.583,19.187 11.558,19.222C11.348,19.512 11.101,19.749 10.852,19.858C10.775,19.648 10.66,19.456 10.516,19.29C10.665,19.11 10.903,18.732 10.904,18.151C10.905,17.648 10.883,16.941 10.297,16.263C10.035,15.865 9.439,15.581 8.927,15.581C8.12,15.581 7.141,16.404 7.228,17.207C7.3,17.866 7.846,18.126 7.882,18.151C8.144,18.341 8.363,18.562 8.483,18.786C8.264,18.87 8.066,18.996 7.898,19.152C7.701,19.004 7.34,18.806 6.81,18.805C6.308,18.804 5.6,18.826 4.922,19.412C4.524,19.674 4.24,20.27 4.24,20.781C4.24,21.589 5.063,22.568 5.866,22.481C6.525,22.409 6.785,21.863 6.81,21.827C7.006,21.557 7.234,21.333 7.466,21.216ZM9.14,19.798C9.521,19.798 9.831,20.107 9.831,20.489C9.831,20.87 9.521,21.18 9.14,21.18C8.758,21.18 8.449,20.87 8.449,20.489C8.449,20.107 8.758,19.798 9.14,19.798Z"/>
    </g>
</svg>
