<?xml version="1.0" encoding="UTF-8" standalone="no"?>
<!DOCTYPE svg PUBLIC "-//W3C//DTD SVG 1.1//EN" "http://www.w3.org/Graphics/SVG/1.1/DTD/svg11.dtd">
<svg width="100%" height="100%" viewBox="0 0 29 29" version="1.1" xmlns="http://www.w3.org/2000/svg" xmlns:xlink="http://www.w3.org/1999/xlink" xml:space="preserve" xmlns:serif="http://www.serif.com/" style="fill-rule:evenodd;clip-rule:evenodd;stroke-linejoin:round;stroke-miterlimit:2;">
    <g>
        <path d="M17.575,6.47L22.199,6.47C22.796,6.47 23.368,6.707 23.79,7.129C24.212,7.551 24.449,8.123 24.449,8.72C24.442,8.768 24.401,8.803 24.353,8.803C22.922,8.802 5.94,8.802 4.065,8.802C4.021,8.802 3.978,8.784 3.947,8.753C3.915,8.722 3.898,8.679 3.898,8.634C3.898,8.06 4.126,7.51 4.531,7.104C4.937,6.698 5.487,6.47 6.061,6.47L10.772,6.47L10.772,6.267C10.772,4.858 11.914,3.715 13.323,3.715L15.024,3.715C16.433,3.715 17.575,4.858 17.575,6.267L17.575,6.47ZM11.906,6.47L16.441,6.47L16.441,6.267C16.441,5.484 15.806,4.849 15.024,4.849L13.323,4.849C12.54,4.849 11.906,5.484 11.906,6.267L11.906,6.47ZM24.458,14.545C24.461,15.856 24.468,17.73 24.476,19.415L24.476,19.416C24.48,20.62 24.005,21.776 23.156,22.63C22.307,23.484 21.153,23.965 19.949,23.967C17.251,23.972 14.174,23.978 14.174,23.978L14.172,23.978L8.398,23.967C7.194,23.965 6.04,23.484 5.191,22.63C4.341,21.776 3.867,20.62 3.871,19.416L3.871,19.415C3.878,17.847 3.884,16.116 3.888,14.827L3.888,13.294C3.807,11.539 1.891,10.695 1.891,10.695C1.648,10.585 1.515,10.32 1.572,10.059C1.629,9.799 1.859,9.613 2.126,9.613L26.22,9.613C26.487,9.613 26.718,9.799 26.774,10.059C26.831,10.32 26.698,10.585 26.456,10.695C26.456,10.695 24.526,11.545 24.458,13.312L24.458,14.545ZM23.324,10.747L5.022,10.747L5.022,13.273C5.024,13.317 5.025,13.363 5.025,13.408C5.025,13.755 5.024,14.246 5.022,14.827L5.022,14.83C5.018,16.12 5.011,17.852 5.005,19.42C5.001,20.323 5.358,21.19 5.994,21.831C6.631,22.471 7.497,22.832 8.4,22.833L14.173,22.844C14.238,22.844 17.278,22.838 19.947,22.833C20.85,22.832 21.715,22.471 22.352,21.831C22.989,21.19 23.345,20.323 23.342,19.42C23.335,17.734 23.327,15.86 23.324,14.548L23.324,14.545C23.323,14.087 23.322,13.697 23.322,13.408C23.322,13.37 23.322,13.332 23.324,13.294L23.324,10.747ZM6.378,12.701C6.378,12.505 6.537,12.346 6.732,12.346C6.928,12.346 7.087,12.505 7.087,12.701L7.087,20.016C7.087,20.212 6.928,20.37 6.732,20.37C6.537,20.37 6.378,20.212 6.378,20.016L6.378,12.701Z"/>
    </g>
</svg>
