<?xml version="1.0" encoding="UTF-8" standalone="no"?>
<!DOCTYPE svg PUBLIC "-//W3C//DTD SVG 1.1//EN" "http://www.w3.org/Graphics/SVG/1.1/DTD/svg11.dtd">
<svg width="100%" height="100%" viewBox="0 0 29 29" version="1.1" xmlns="http://www.w3.org/2000/svg" xmlns:xlink="http://www.w3.org/1999/xlink" xml:space="preserve" xmlns:serif="http://www.serif.com/" style="fill-rule:evenodd;clip-rule:evenodd;stroke-linejoin:round;stroke-miterlimit:2;">
    <g>
        <path d="M9.638,22.622L13.034,22.622C12.046,18.979 10.721,15.938 9.488,13.603C9.437,13.638 9.386,13.675 9.336,13.713C8.667,14.211 8.121,14.873 8.121,14.873C8.078,14.925 8.015,14.955 7.948,14.955L6.279,14.955C6.156,14.955 6.056,14.857 6.054,14.734C6.038,13.995 6.482,13.252 7.035,12.635C7.457,12.164 7.937,11.765 8.295,11.495C7.514,10.207 6.847,9.277 6.438,8.737C6.073,8.289 6.022,7.663 6.31,7.161C6.31,7.16 6.311,7.16 6.311,7.159C8.544,3.336 12.691,2.292 14.279,2.028C14.281,2.027 14.283,2.027 14.286,2.027C14.794,1.952 15.303,2.163 15.61,2.575C23.306,12.866 25.174,21.425 25.335,25.087C25.336,25.111 25.336,25.134 25.335,25.158L25.335,27.12C25.335,27.253 25.282,27.38 25.188,27.473C25.095,27.567 24.968,27.619 24.836,27.619L2.842,27.619C2.699,27.619 2.562,27.563 2.461,27.461C2.36,27.36 2.303,27.223 2.303,27.08L2.303,26.766C2.303,25.847 3.048,25.102 3.967,25.102L4.265,25.102L4.265,23.331C4.265,22.939 4.582,22.622 4.973,22.622L5.237,22.622C5.129,22.483 5.059,22.313 5.04,22.127L4.983,21.559L3.649,21.559C2.916,21.559 2.321,20.964 2.321,20.231L2.321,19.603C2.321,18.87 2.916,18.275 3.649,18.275L4.655,18.275L4.6,17.73C4.59,17.625 4.624,17.52 4.695,17.441C4.767,17.363 4.868,17.318 4.973,17.318L9.901,17.318C10.007,17.318 10.108,17.363 10.18,17.441C10.251,17.52 10.285,17.625 10.275,17.73L9.835,22.127C9.816,22.313 9.746,22.483 9.638,22.622ZM8.592,7.822C8.526,7.878 8.48,7.957 8.469,8.049L8.477,8.183L8.533,8.303L8.63,8.395L8.758,8.446L8.872,8.448L8.97,8.419L9.065,8.356L9.141,8.27C9.405,7.935 10.949,5.813 14.42,4.91C14.609,4.861 14.723,4.667 14.674,4.478C14.625,4.288 14.431,4.175 14.242,4.224C10.55,5.185 8.894,7.436 8.592,7.822ZM9.142,7.944C9.164,7.99 9.182,8.052 9.172,8.137C9.18,8.069 9.169,8.002 9.142,7.944ZM13.22,23.331L4.973,23.331L4.973,25.102L13.631,25.102C13.504,24.498 13.366,23.907 13.22,23.331ZM4.911,20.851L4.726,18.984L3.649,18.984C3.307,18.984 3.03,19.261 3.03,19.603L3.03,20.231C3.03,20.573 3.307,20.851 3.649,20.851L4.911,20.851ZM18.595,8.275C18.234,7.674 17.853,7.063 17.45,6.443C17.083,6.721 16.063,7.449 13.622,8.973C13.622,8.973 14.019,9.563 14.646,10.7C15.267,10.352 17.238,9.228 18.595,8.275ZM24.626,25.102C24.496,22.223 23.281,16.297 18.957,8.887C17.573,9.852 15.596,10.98 14.983,11.324C16.361,13.925 18.522,18.622 20.197,25.102L24.626,25.102Z"/>
    </g>
</svg>
