<?xml version="1.0" encoding="UTF-8" standalone="no"?>
<!DOCTYPE svg PUBLIC "-//W3C//DTD SVG 1.1//EN" "http://www.w3.org/Graphics/SVG/1.1/DTD/svg11.dtd">
<svg width="100%" height="100%" viewBox="0 0 29 29" version="1.1" xmlns="http://www.w3.org/2000/svg" xmlns:xlink="http://www.w3.org/1999/xlink" xml:space="preserve" xmlns:serif="http://www.serif.com/" style="fill-rule:evenodd;clip-rule:evenodd;stroke-linejoin:round;stroke-miterlimit:2;">
    <g>
        <path d="M21.681,16.428C21.699,16.56 21.709,16.692 21.709,16.825C21.709,17.414 21.531,17.989 21.18,18.528C21.106,19.661 20.38,20.75 19.078,21.603C17.389,22.709 14.671,23.456 11.599,23.456C8.527,23.456 5.808,22.709 4.119,21.603C2.884,20.794 2.167,19.772 2.033,18.701C1.603,18.112 1.385,17.477 1.385,16.825C1.385,15.622 2.16,14.444 3.628,13.542C4.259,13.155 5.026,12.812 5.896,12.531C5.868,12.412 5.847,12.293 5.833,12.173C5.37,11.546 5.134,10.869 5.134,10.174C5.134,8.896 5.963,7.649 7.523,6.691C9.447,5.51 12.547,4.715 16.048,4.715C19.549,4.715 22.648,5.51 24.573,6.691C26.133,7.649 26.961,8.896 26.961,10.174C26.961,10.803 26.769,11.415 26.39,11.99C26.32,13.201 25.543,14.364 24.152,15.276C23.471,15.722 22.634,16.113 21.681,16.428ZM10.369,16.375C9.492,16.3 8.729,16.2 8.064,16.084C7.997,16.176 7.821,16.242 7.614,16.242C7.349,16.242 7.134,16.134 7.134,16.002C7.134,15.967 7.148,15.935 7.174,15.905C6.485,15.749 5.93,15.574 5.484,15.396C5.334,15.476 5.192,15.559 5.057,15.645C4.52,15.989 4.065,16.305 4.065,16.764C4.065,17.223 4.52,17.539 5.057,17.883C6.519,18.819 8.888,19.38 11.547,19.38C14.206,19.38 16.575,18.819 18.037,17.883C18.45,17.619 18.815,17.371 18.961,17.061C18.056,17.195 17.097,17.267 16.104,17.267C13.968,17.267 11.991,16.932 10.369,16.375ZM19.728,16.931C19.695,17.213 19.577,17.469 19.383,17.706C19.16,17.978 18.812,18.229 18.419,18.48C16.87,19.471 14.364,20.088 11.547,20.088C8.73,20.088 6.224,19.471 4.675,18.48C4.282,18.229 3.934,17.978 3.711,17.706C3.48,17.423 3.356,17.113 3.356,16.764C3.356,16.416 3.48,16.105 3.711,15.822C3.934,15.55 4.282,15.3 4.675,15.048C4.685,15.042 4.694,15.036 4.704,15.03C4.357,14.836 4.125,14.652 3.97,14.5C2.965,15.163 2.377,15.963 2.377,16.825C2.377,17.354 2.599,17.861 3.004,18.326C4.339,19.863 7.663,20.953 11.547,20.953C15.531,20.953 18.926,19.806 20.189,18.207C20.531,17.775 20.717,17.309 20.717,16.825C20.717,16.787 20.716,16.749 20.713,16.711C20.395,16.792 20.066,16.866 19.728,16.931ZM21.381,15.486C23.184,14.887 24.526,13.991 25.098,12.946C24.893,13.109 24.668,13.265 24.425,13.415C22.534,14.575 19.487,15.349 16.048,15.349C12.608,15.349 9.562,14.575 7.671,13.415C7.505,13.313 7.348,13.207 7.199,13.099C7.216,13.126 7.233,13.152 7.25,13.178C7.402,13.404 7.59,13.623 7.812,13.832C8.024,14.032 8.268,14.224 8.539,14.405C10.226,15.537 12.987,16.275 16.104,16.275C16.994,16.275 17.856,16.215 18.672,16.102C18.95,16.064 19.224,16.019 19.491,15.969C19.807,15.909 20.114,15.842 20.412,15.767C20.651,15.707 20.883,15.642 21.109,15.573C21.201,15.544 21.292,15.515 21.381,15.486ZM25.399,11.669C25.768,11.201 25.969,10.698 25.969,10.174C25.969,7.709 21.524,5.707 16.048,5.707C10.572,5.707 6.126,7.709 6.126,10.174C6.126,10.747 6.367,11.295 6.804,11.798C8.249,13.461 11.845,14.64 16.048,14.64C20.359,14.64 24.031,13.399 25.399,11.669ZM16.181,6.206C19.289,6.206 22.053,6.902 23.761,8.014C24.233,8.321 24.638,8.638 24.893,8.982C25.13,9.301 25.258,9.647 25.258,10.027C25.258,10.407 25.13,10.753 24.893,11.072C24.638,11.416 24.233,11.733 23.761,12.04C22.053,13.153 19.289,13.848 16.181,13.848C13.074,13.848 10.31,13.153 8.602,12.04C8.13,11.733 7.725,11.416 7.47,11.072C7.233,10.753 7.105,10.407 7.105,10.027C7.105,9.647 7.233,9.301 7.47,8.982C7.725,8.638 8.13,8.321 8.602,8.014C10.31,6.902 13.074,6.206 16.181,6.206ZM16.181,6.915C13.234,6.915 10.608,7.553 8.988,8.608C8.334,9.034 7.814,9.459 7.814,10.027C7.814,10.595 8.334,11.021 8.988,11.447C10.608,12.501 13.234,13.139 16.181,13.139C19.129,13.139 21.755,12.501 23.375,11.447C24.029,11.021 24.549,10.595 24.549,10.027C24.549,9.459 24.029,9.034 23.375,8.608C21.755,7.553 19.129,6.915 16.181,6.915ZM14.36,8.107C14.625,8.107 14.84,8.215 14.84,8.347C14.84,8.48 14.625,8.587 14.36,8.587C14.095,8.587 13.88,8.48 13.88,8.347C13.88,8.215 14.095,8.107 14.36,8.107ZM12.414,8.107C12.679,8.107 12.894,8.215 12.894,8.347C12.894,8.48 12.679,8.587 12.414,8.587C12.149,8.587 11.934,8.48 11.934,8.347C11.934,8.215 12.149,8.107 12.414,8.107ZM18.97,9.085C19.234,9.085 19.45,9.192 19.45,9.325C19.45,9.457 19.234,9.565 18.97,9.565C18.705,9.565 18.49,9.457 18.49,9.325C18.49,9.192 18.705,9.085 18.97,9.085ZM18.549,11.682C18.814,11.682 19.029,11.789 19.029,11.922C19.029,12.054 18.814,12.162 18.549,12.162C18.284,12.162 18.069,12.054 18.069,11.922C18.069,11.789 18.284,11.682 18.549,11.682ZM10.494,8.845C10.759,8.845 10.974,8.952 10.974,9.085C10.974,9.217 10.759,9.325 10.494,9.325C10.229,9.325 10.014,9.217 10.014,9.085C10.014,8.952 10.229,8.845 10.494,8.845ZM15.702,7.387C15.966,7.387 16.181,7.495 16.181,7.627C16.181,7.76 15.966,7.867 15.702,7.867C15.437,7.867 15.222,7.76 15.222,7.627C15.222,7.495 15.437,7.387 15.702,7.387ZM16.181,9.085C16.446,9.085 16.662,9.192 16.662,9.325C16.662,9.457 16.446,9.565 16.181,9.565C15.917,9.565 15.702,9.457 15.702,9.325C15.702,9.192 15.917,9.085 16.181,9.085ZM20.892,11.626C21.157,11.626 21.372,11.734 21.372,11.866C21.372,11.999 21.157,12.106 20.892,12.106C20.627,12.106 20.412,11.999 20.412,11.866C20.412,11.734 20.627,11.626 20.892,11.626ZM13.383,10.442C13.648,10.442 13.863,10.55 13.863,10.682C13.863,10.815 13.648,10.922 13.383,10.922C13.118,10.922 12.903,10.815 12.903,10.682C12.903,10.55 13.118,10.442 13.383,10.442ZM17.303,7.963C17.568,7.963 17.783,8.071 17.783,8.203C17.783,8.336 17.568,8.443 17.303,8.443C17.038,8.443 16.823,8.336 16.823,8.203C16.823,8.071 17.038,7.963 17.303,7.963ZM22.734,10.329C22.999,10.329 23.214,10.436 23.214,10.569C23.214,10.701 22.999,10.809 22.734,10.809C22.469,10.809 22.254,10.701 22.254,10.569C22.254,10.436 22.469,10.329 22.734,10.329ZM13.383,9.085C13.648,9.085 13.863,9.192 13.863,9.325C13.863,9.457 13.648,9.565 13.383,9.565C13.118,9.565 12.903,9.457 12.903,9.325C12.903,9.192 13.118,9.085 13.383,9.085ZM21.054,9.805C21.319,9.805 21.534,9.912 21.534,10.045C21.534,10.177 21.319,10.285 21.054,10.285C20.789,10.285 20.574,10.177 20.574,10.045C20.574,9.912 20.789,9.805 21.054,9.805ZM17.783,10.045C18.048,10.045 18.263,10.152 18.263,10.285C18.263,10.417 18.048,10.525 17.783,10.525C17.518,10.525 17.303,10.417 17.303,10.285C17.303,10.152 17.518,10.045 17.783,10.045ZM19.134,7.627C19.399,7.627 19.614,7.735 19.614,7.867C19.614,8 19.399,8.107 19.134,8.107C18.869,8.107 18.654,8 18.654,7.867C18.654,7.735 18.869,7.627 19.134,7.627ZM16.181,10.828C16.446,10.828 16.662,10.935 16.662,11.068C16.662,11.2 16.446,11.308 16.181,11.308C15.917,11.308 15.702,11.2 15.702,11.068C15.702,10.935 15.917,10.828 16.181,10.828ZM22.456,9.085C22.721,9.085 22.936,9.192 22.936,9.325C22.936,9.457 22.721,9.565 22.456,9.565C22.191,9.565 21.976,9.457 21.976,9.325C21.976,9.192 22.191,9.085 22.456,9.085ZM19.614,10.348C19.879,10.348 20.094,10.455 20.094,10.588C20.094,10.72 19.879,10.828 19.614,10.828C19.349,10.828 19.134,10.72 19.134,10.588C19.134,10.455 19.349,10.348 19.614,10.348ZM21.054,8.384C21.319,8.384 21.534,8.491 21.534,8.624C21.534,8.756 21.319,8.864 21.054,8.864C20.789,8.864 20.574,8.756 20.574,8.624C20.574,8.491 20.789,8.384 21.054,8.384ZM11.934,9.565C12.199,9.565 12.414,9.672 12.414,9.805C12.414,9.937 12.199,10.045 11.934,10.045C11.669,10.045 11.454,9.937 11.454,9.805C11.454,9.672 11.669,9.565 11.934,9.565ZM9.774,10.267C10.039,10.267 10.254,10.375 10.254,10.507C10.254,10.64 10.039,10.747 9.774,10.747C9.509,10.747 9.294,10.64 9.294,10.507C9.294,10.375 9.509,10.267 9.774,10.267ZM15.294,11.825C15.559,11.825 15.774,11.932 15.774,12.065C15.774,12.197 15.559,12.305 15.294,12.305C15.029,12.305 14.814,12.197 14.814,12.065C14.814,11.932 15.029,11.825 15.294,11.825ZM15.294,9.849C15.559,9.849 15.774,9.956 15.774,10.089C15.774,10.221 15.559,10.329 15.294,10.329C15.029,10.329 14.814,10.221 14.814,10.089C14.814,9.956 15.029,9.849 15.294,9.849ZM11.934,11.385C12.199,11.385 12.414,11.492 12.414,11.625C12.414,11.757 12.199,11.865 11.934,11.865C11.669,11.865 11.454,11.757 11.454,11.625C11.454,11.492 11.669,11.385 11.934,11.385ZM11.862,17.025C12.126,17.025 12.342,17.132 12.342,17.265C12.342,17.397 12.126,17.505 11.862,17.505C11.597,17.505 11.382,17.397 11.382,17.265C11.382,17.132 11.597,17.025 11.862,17.025ZM16.572,17.823C16.837,17.823 17.052,17.931 17.052,18.063C17.052,18.196 16.837,18.303 16.572,18.303C16.306,18.303 16.091,18.196 16.091,18.063C16.091,17.931 16.306,17.823 16.572,17.823ZM14.229,17.879C14.494,17.879 14.709,17.986 14.709,18.119C14.709,18.251 14.494,18.359 14.229,18.359C13.964,18.359 13.749,18.251 13.749,18.119C13.749,17.986 13.964,17.879 14.229,17.879ZM10.974,18.022C11.239,18.022 11.454,18.129 11.454,18.262C11.454,18.394 11.239,18.502 10.974,18.502C10.709,18.502 10.494,18.394 10.494,18.262C10.494,18.129 10.709,18.022 10.974,18.022ZM5.454,16.464C5.719,16.464 5.934,16.572 5.934,16.704C5.934,16.837 5.719,16.944 5.454,16.944C5.189,16.944 4.974,16.837 4.974,16.704C4.974,16.572 5.189,16.464 5.454,16.464ZM7.614,17.582C7.879,17.582 8.094,17.689 8.094,17.822C8.094,17.954 7.879,18.062 7.614,18.062C7.349,18.062 7.134,17.954 7.134,17.822C7.134,17.689 7.349,17.582 7.614,17.582ZM9.063,16.639C9.328,16.639 9.543,16.747 9.543,16.879C9.543,17.012 9.328,17.119 9.063,17.119C8.798,17.119 8.583,17.012 8.583,16.879C8.583,16.747 8.798,16.639 9.063,16.639ZM3.452,19.654C4.598,21.287 7.814,22.464 11.599,22.464C15.493,22.464 18.786,21.217 19.84,19.51C19.678,19.633 19.503,19.752 19.317,19.866C17.563,20.943 14.738,21.661 11.547,21.661C8.357,21.661 5.531,20.943 3.777,19.866C3.664,19.797 3.556,19.726 3.452,19.654Z"/>
        <path d="M26.39,11.99C26.32,13.201 25.543,14.364 24.152,15.276C22.335,16.466 19.409,17.267 16.104,17.267C12.798,17.267 9.873,16.466 8.056,15.276C6.734,14.41 5.968,13.318 5.833,12.173C5.37,11.546 5.134,10.869 5.134,10.174C5.134,8.896 5.963,7.649 7.523,6.691C9.447,5.51 12.547,4.715 16.048,4.715C19.549,4.715 22.648,5.51 24.573,6.691C26.133,7.649 26.961,8.896 26.961,10.174C26.961,10.803 26.769,11.415 26.39,11.99ZM6.804,11.798L6.804,11.809C6.804,14.274 10.971,16.275 16.104,16.275C21.236,16.275 25.403,14.274 25.403,11.809C25.403,11.762 25.402,11.715 25.399,11.669C25.768,11.201 25.969,10.698 25.969,10.174C25.969,7.709 21.524,5.707 16.048,5.707C10.572,5.707 6.126,7.709 6.126,10.174C6.126,10.747 6.367,11.295 6.804,11.798Z"/>
        <path d="M9.063,15.282C9.328,15.282 9.543,15.389 9.543,15.522C9.543,15.654 9.328,15.762 9.063,15.762C8.798,15.762 8.583,15.654 8.583,15.522C8.583,15.389 8.798,15.282 9.063,15.282Z"/>
        <path d="M10.974,16.046C11.239,16.046 11.454,16.153 11.454,16.286C11.454,16.418 11.239,16.526 10.974,16.526C10.709,16.526 10.494,16.418 10.494,16.286C10.494,16.153 10.709,16.046 10.974,16.046Z"/>
        <path d="M15.294,16.545C15.559,16.545 15.774,16.652 15.774,16.785C15.774,16.917 15.559,17.025 15.294,17.025C15.029,17.025 14.814,16.917 14.814,16.785C14.814,16.652 15.029,16.545 15.294,16.545Z"/>
        <path d="M6.174,15.042C6.439,15.042 6.654,15.149 6.654,15.282C6.654,15.414 6.439,15.522 6.174,15.522C5.909,15.522 5.694,15.414 5.694,15.282C5.694,15.149 5.909,15.042 6.174,15.042Z"/>
        <path d="M18.414,16.526C18.679,16.526 18.894,16.633 18.894,16.766C18.894,16.898 18.679,17.006 18.414,17.006C18.149,17.006 17.934,16.898 17.934,16.766C17.934,16.633 18.149,16.526 18.414,16.526Z"/>
        <path d="M13.463,16.242C13.728,16.242 13.943,16.349 13.943,16.482C13.943,16.614 13.728,16.722 13.463,16.722C13.198,16.722 12.983,16.614 12.983,16.482C12.983,16.349 13.198,16.242 13.463,16.242Z"/>
    </g>
</svg>
