<?xml version="1.0" encoding="UTF-8" standalone="no"?>
<!DOCTYPE svg PUBLIC "-//W3C//DTD SVG 1.1//EN" "http://www.w3.org/Graphics/SVG/1.1/DTD/svg11.dtd">
<svg width="100%" height="100%" viewBox="0 0 29 29" version="1.1" xmlns="http://www.w3.org/2000/svg" xmlns:xlink="http://www.w3.org/1999/xlink" xml:space="preserve" xmlns:serif="http://www.serif.com/" style="fill-rule:evenodd;clip-rule:evenodd;stroke-linejoin:round;stroke-miterlimit:2;">
    <g>
        <path d="M15.609,17.661L15.609,23.804C16.749,24.284 17.601,25.317 17.826,26.567C17.854,26.729 17.809,26.896 17.703,27.023C17.596,27.148 17.44,27.221 17.275,27.221C15.879,27.228 12.467,27.228 11.072,27.228C10.904,27.228 10.746,27.155 10.638,27.027C10.53,26.899 10.484,26.73 10.513,26.565C10.756,25.245 11.696,24.166 12.936,23.728L12.936,17.661L15.609,17.661ZM15.627,16.808L12.936,16.799C12.476,16.758 12.042,16.556 11.713,16.226C11.341,15.854 11.132,15.35 11.132,14.823L11.132,10.77L17.611,10.77L17.611,14.823C17.611,15.35 17.402,15.854 17.03,16.226C16.658,16.599 16.153,16.808 15.627,16.808ZM14.35,12.198C13.666,12.198 13.11,12.754 13.11,13.438C13.11,14.122 13.666,14.678 14.35,14.678C15.035,14.678 15.591,14.122 15.591,13.438C15.591,12.754 15.035,12.198 14.35,12.198ZM14.726,25.066C15.358,25.376 15.671,25.696 15.982,26.323C16.069,26.499 16.281,26.57 16.457,26.483C16.632,26.396 16.704,26.183 16.617,26.008C16.226,25.22 15.832,24.818 15.038,24.43C14.862,24.344 14.65,24.417 14.564,24.592C14.478,24.768 14.55,24.98 14.726,25.066ZM11.132,10.061L11.132,3.701C11.132,3.175 11.341,2.67 11.713,2.298C12.085,1.926 12.59,1.717 13.116,1.717L15.627,1.717C16.153,1.717 16.658,1.926 17.03,2.298C17.402,2.67 17.611,3.175 17.611,3.701L17.611,10.061L11.132,10.061Z" style="fill:rgb(22,22,22);"/>
    </g>
</svg>
