<?xml version="1.0" encoding="UTF-8" standalone="no"?>
<!DOCTYPE svg PUBLIC "-//W3C//DTD SVG 1.1//EN" "http://www.w3.org/Graphics/SVG/1.1/DTD/svg11.dtd">
<svg width="100%" height="100%" viewBox="0 0 119 119" version="1.1" xmlns="http://www.w3.org/2000/svg" xmlns:xlink="http://www.w3.org/1999/xlink" xml:space="preserve" xmlns:serif="http://www.serif.com/" style="fill-rule:evenodd;clip-rule:evenodd;stroke-linejoin:round;stroke-miterlimit:2;">
    <g transform="matrix(1,0,0,1,-195,-4042)">
        <g id="Stamper-AH-outlined" transform="matrix(0.424857,0,0,0.509096,938.5,3964.11)">
            <rect x="-1750" y="153" width="278" height="232" style="fill:none;"/>
            <g transform="matrix(1.91241,0,0,1.59597,-1723.72,-4650.71)">
                <path d="M20.719,3133.81C20.716,3133.75 20.715,3133.7 20.715,3133.64C20.715,3125.97 23.763,3112.43 33.929,3106.01C41.102,3101.47 51.255,3096.06 55.557,3093.8L55.557,3074.91C53.82,3073.9 52.65,3072.02 52.65,3069.87L52.65,3024.45C52.65,3021.24 55.256,3018.63 58.465,3018.63C61.674,3018.63 64.279,3021.24 64.279,3024.45L64.279,3069.87C64.279,3072.02 63.11,3073.9 61.372,3074.91L61.372,3093.55C65.354,3095.63 76.024,3101.3 83.478,3106.01C93.33,3112.24 97.18,3125.94 97.387,3133.72C97.393,3133.83 97.396,3133.93 97.396,3134.04C97.396,3134.07 97.395,3134.11 97.394,3134.15C97.395,3134.23 97.396,3134.3 97.396,3134.38C97.396,3134.68 97.35,3134.97 97.265,3135.24C96.801,3137.39 95.086,3139.56 91.956,3141.32C85.785,3144.79 73.373,3147.28 59.055,3147.28C44.737,3147.28 32.325,3144.79 26.154,3141.32C22.436,3139.23 20.715,3136.55 20.715,3134.04C20.715,3133.96 20.716,3133.89 20.719,3133.81ZM58.703,3098.71C54.78,3100.76 44.335,3106.31 37.036,3110.92C31.508,3114.42 28.685,3120.55 27.414,3126.1C33.921,3122.98 45.653,3120.8 59.055,3120.8C72.21,3120.8 83.755,3122.9 90.33,3125.93C88.787,3120.35 85.692,3114.29 80.371,3110.92C73.071,3106.31 62.626,3100.76 58.703,3098.71ZM91.577,3133.97C91.535,3133.59 91.165,3133.31 90.766,3132.96C89.793,3132.11 88.357,3131.35 86.573,3130.64C86.176,3130.48 85.762,3130.32 85.334,3130.17L77.802,3139.86C81.199,3139.21 84.172,3138.39 86.573,3137.44C88.357,3136.73 89.793,3135.97 90.766,3135.12C91.172,3134.76 91.548,3134.47 91.579,3134.09C91.578,3134.05 91.578,3134.01 91.577,3133.97ZM81.599,3129.06C79.128,3128.43 76.339,3127.9 73.311,3127.5L62.487,3141.42C66.199,3141.31 69.736,3141.03 73.002,3140.62C73.026,3140.27 73.15,3139.92 73.381,3139.62L81.599,3129.06ZM69.067,3127.04C66.157,3126.78 63.081,3126.64 59.898,3126.61L48.701,3141.01C51.965,3141.31 55.441,3141.46 59.047,3141.47C58.79,3140.88 58.855,3140.17 59.278,3139.62L69.067,3127.04ZM55.249,3126.67C51.686,3126.78 48.287,3127.05 45.139,3127.46L36.207,3138.94C38.753,3139.61 41.647,3140.16 44.8,3140.58C44.83,3140.24 44.953,3139.91 45.175,3139.62L55.249,3126.67ZM39.878,3128.3C36.66,3128.93 33.837,3129.72 31.537,3130.64C29.753,3131.35 28.317,3132.11 27.345,3132.96C26.92,3133.33 26.529,3133.62 26.529,3134.04C26.529,3134.45 26.92,3134.74 27.345,3135.12C28.317,3135.97 29.753,3136.73 31.537,3137.44C31.845,3137.56 32.163,3137.68 32.49,3137.8L39.878,3128.3Z"/>
            </g>
        </g>
    </g>
</svg>
