<?xml version="1.0" encoding="UTF-8" standalone="no"?>
<!DOCTYPE svg PUBLIC "-//W3C//DTD SVG 1.1//EN" "http://www.w3.org/Graphics/SVG/1.1/DTD/svg11.dtd">
<svg width="100%" height="100%" viewBox="0 0 119 119" version="1.1" xmlns="http://www.w3.org/2000/svg" xmlns:xlink="http://www.w3.org/1999/xlink" xml:space="preserve" xmlns:serif="http://www.serif.com/" style="fill-rule:evenodd;clip-rule:evenodd;stroke-linejoin:round;stroke-miterlimit:2;">
    <g transform="matrix(1,0,0,1,-195,-3863)">
        <g id="Stoommandje-AH-Outlined" transform="matrix(0.424857,0,0,0.509096,938.5,3785.11)">
            <rect x="-1750" y="153" width="278" height="232" style="fill:none;"/>
            <g transform="matrix(2.68996,0,0,1.2303,-1754.23,-3018.63)">
                <path d="M9.839,2634.5C9.839,2632.56 10.242,2630.62 11.143,2628.78C12.058,2626.93 13.598,2625.08 15.719,2623.45C22.755,2618.03 36.921,2614.23 53.244,2614.23C69.568,2614.23 83.734,2618.03 90.77,2623.45C92.891,2625.08 94.431,2626.93 95.345,2628.78C96.247,2630.62 96.65,2632.56 96.65,2634.5L96.65,2718.39C96.65,2720.33 96.247,2722.28 95.345,2724.11C94.431,2725.97 92.891,2727.82 90.77,2729.45C83.734,2734.86 69.568,2738.67 53.244,2738.67C36.921,2738.67 22.755,2734.86 15.719,2729.45C13.598,2727.82 12.058,2725.97 11.143,2724.11C10.242,2722.28 9.839,2720.33 9.839,2718.39L9.839,2634.5ZM47.842,2653.22L47.842,2688.74C49.61,2688.83 51.413,2688.87 53.244,2688.87C68.995,2688.87 82.676,2685.36 89.464,2680.14C90.778,2679.13 91.814,2678.07 92.517,2676.94L92.517,2642.42C92.098,2642.86 91.64,2643.29 91.143,2643.71C91.142,2643.71 91.14,2643.71 91.139,2643.71C90.923,2643.89 90.7,2644.07 90.468,2644.25C83.6,2649.54 69.875,2653.24 54.005,2653.35C53.97,2653.36 53.934,2653.36 53.899,2653.36C53.681,2653.35 53.463,2653.36 53.244,2653.36C51.414,2653.36 49.611,2653.31 47.842,2653.22ZM13.972,2642.42L13.972,2676.94C14.675,2678.07 15.711,2679.13 17.025,2680.14C22.635,2684.46 32.954,2687.61 45.258,2688.57L45.258,2653.05C38.685,2652.53 32.657,2651.4 27.565,2649.8C27.312,2649.86 27.052,2649.78 26.822,2649.57C22.375,2648.11 18.683,2646.3 16.021,2644.25C15.789,2644.07 15.566,2643.89 15.35,2643.71C15.349,2643.71 15.347,2643.71 15.346,2643.71C14.849,2643.29 14.391,2642.86 13.972,2642.42ZM43.392,2648.17C46.548,2648.48 49.848,2648.64 53.244,2648.64C53.323,2648.64 53.401,2648.64 53.479,2648.64L62.507,2634.91C59.531,2634.64 56.43,2634.5 53.244,2634.5C52.956,2634.5 52.669,2634.5 52.382,2634.5L43.392,2648.17ZM90.579,2638.98C91.375,2638.25 92.027,2637.5 92.517,2636.71L92.517,2634.5C92.517,2634.06 92.265,2633.77 92.011,2633.36C91.358,2632.31 90.388,2631.34 89.163,2630.39C82.432,2625.22 68.863,2621.77 53.244,2621.77C37.626,2621.77 24.057,2625.22 17.326,2630.39C16.101,2631.34 15.131,2632.31 14.478,2633.36C14.224,2633.77 13.972,2634.06 13.972,2634.5L13.972,2636.71C14.462,2637.5 15.114,2638.25 15.91,2638.98C22.636,2633.74 36.056,2630.04 51.646,2629.8C51.842,2629.71 52.046,2629.71 52.241,2629.79C52.575,2629.79 52.909,2629.79 53.244,2629.79C69.513,2629.79 83.624,2633.56 90.579,2638.98ZM27.083,2644.89L32.441,2636.74C27.289,2637.95 22.87,2639.6 19.511,2641.57C21.639,2642.81 24.191,2643.93 27.083,2644.89ZM39.648,2647.73L48.271,2634.62C44.313,2634.81 40.529,2635.22 37.004,2635.82C36.938,2636 36.857,2636.17 36.762,2636.31L30.457,2645.9C33.288,2646.65 36.372,2647.27 39.648,2647.73ZM68.733,2647.44C68.783,2647.33 68.839,2647.23 68.901,2647.14L75.5,2637.1C72.65,2636.37 69.552,2635.77 66.267,2635.34L57.573,2648.55C61.484,2648.39 65.231,2648.01 68.733,2647.44ZM86.977,2641.57C84.713,2640.24 81.967,2639.06 78.84,2638.06C78.777,2638.22 78.703,2638.37 78.617,2638.5L73.314,2646.56C78.777,2645.34 83.457,2643.63 86.977,2641.57ZM53.244,2660.43C54.314,2660.43 55.182,2662.01 55.182,2663.96C55.182,2665.92 54.314,2667.5 53.244,2667.5C52.175,2667.5 51.307,2665.92 51.307,2663.96C51.307,2662.01 52.175,2660.43 53.244,2660.43ZM53.244,2674.81C54.314,2674.81 55.182,2676.39 55.182,2678.34C55.182,2680.29 54.314,2681.88 53.244,2681.88C52.175,2681.88 51.307,2680.29 51.307,2678.34C51.307,2676.39 52.175,2674.81 53.244,2674.81ZM47.842,2730.98C49.609,2731.08 51.413,2731.12 53.244,2731.12C68.863,2731.12 82.432,2727.68 89.163,2722.5C90.388,2721.56 91.358,2720.59 92.011,2719.53C92.265,2719.12 92.517,2718.84 92.517,2718.39L92.517,2682.65C91.915,2683.28 91.231,2683.9 90.468,2684.48C83.49,2689.85 69.436,2693.59 53.244,2693.59C51.414,2693.59 49.611,2693.54 47.842,2693.45L47.842,2730.98ZM53.244,2701.89C54.314,2701.89 55.182,2703.48 55.182,2705.43C55.182,2707.38 54.314,2708.97 53.244,2708.97C52.175,2708.97 51.307,2707.38 51.307,2705.43C51.307,2703.48 52.175,2701.89 53.244,2701.89ZM53.244,2716.27C54.314,2716.27 55.182,2717.86 55.182,2719.81C55.182,2721.76 54.314,2723.34 53.244,2723.34C52.175,2723.34 51.307,2721.76 51.307,2719.81C51.307,2717.86 52.175,2716.27 53.244,2716.27ZM13.972,2682.65L13.972,2718.39C13.972,2718.84 14.224,2719.12 14.478,2719.53C15.131,2720.59 16.101,2721.56 17.326,2722.5C22.879,2726.77 33.086,2729.87 45.258,2730.82L45.258,2693.28C32.514,2692.28 21.822,2688.95 16.021,2684.48C15.258,2683.9 14.574,2683.28 13.972,2682.65Z"/>
            </g>
        </g>
    </g>
</svg>
