<?xml version="1.0" encoding="UTF-8" standalone="no"?>
<!DOCTYPE svg PUBLIC "-//W3C//DTD SVG 1.1//EN" "http://www.w3.org/Graphics/SVG/1.1/DTD/svg11.dtd">
<svg width="100%" height="100%" viewBox="0 0 119 119" version="1.1" xmlns="http://www.w3.org/2000/svg" xmlns:xlink="http://www.w3.org/1999/xlink" xml:space="preserve" xmlns:serif="http://www.serif.com/" style="fill-rule:evenodd;clip-rule:evenodd;stroke-linejoin:round;stroke-miterlimit:2;">
    <g transform="matrix(1,0,0,1,-802,-3862.7)">
        <g id="Timer-5-mintuten-AH-outline" transform="matrix(0.424857,0,0,0.509096,1545.5,3784.81)">
            <rect x="-1750" y="153" width="278" height="232" style="fill:none;"/>
            <g transform="matrix(2.35373,0,0,0.654756,-3399.66,-1758.16)">
                <path d="M769.95,2970.57C747.97,2952.89 724.34,2988.74 716.552,3056.74C710.093,3113.14 716.817,3181.37 736.237,3216.66C756.35,3253.19 783.701,3237.83 797.925,3175.8C799.296,3169.82 800.167,3164.98 800.176,3164.96C800.183,3164.94 800.189,3164.93 800.195,3164.91C800.398,3163.42 800.887,3162.37 801.457,3162.37C802.208,3162.37 802.818,3164.2 802.818,3166.45C802.818,3166.97 802.786,3167.46 802.728,3167.92C802.672,3168.45 802.543,3168.95 802.362,3169.96C789.563,3241.22 759.685,3269.98 734.949,3230.52C715.536,3199.55 703.718,3130.26 709.842,3058.14C716.222,2983.01 741.455,2930.39 768.865,2944.89C770.424,2945.72 771.811,2946.68 772.95,2947.57C774.007,2939.47 774.918,2932.49 775.418,2928.66C775.487,2928.12 775.656,2927.77 775.847,2927.76C776.037,2927.74 776.211,2928.08 776.289,2928.6C778.714,2943.8 784.127,2966.07 786.336,2974.93C786.519,2975.66 786.552,2976.64 786.42,2977.47C786.288,2978.3 786.014,2978.84 785.708,2978.87C777.632,2980.08 770.362,2990.89 767.605,2995.5C767.432,2995.81 767.213,2995.75 767.059,2995.36C766.906,2994.97 766.852,2994.33 766.924,2993.77C767.546,2989 768.688,2980.25 769.95,2970.57ZM757.563,2989.76C757.563,2985.85 758.621,2982.68 759.925,2982.68C761.229,2982.68 762.287,2985.85 762.287,2989.76L762.287,2998.62C762.287,3002.53 761.229,3005.71 759.925,3005.71C758.621,3005.71 757.563,3002.53 757.563,2998.62L757.563,2989.76ZM757.563,3204.59C757.563,3200.68 758.621,3197.5 759.925,3197.5C761.229,3197.5 762.287,3200.68 762.287,3204.59L762.287,3213.45C762.287,3217.36 761.229,3220.53 759.925,3220.53C758.621,3220.53 757.563,3217.36 757.563,3213.45L757.563,3204.59ZM797.206,3094.52C798.509,3094.52 799.568,3097.69 799.568,3101.61C799.568,3105.52 798.509,3108.69 797.206,3108.69L794.253,3108.69C792.949,3108.69 791.891,3105.52 791.891,3101.61C791.891,3097.69 792.949,3094.52 794.253,3094.52L797.206,3094.52ZM725.597,3094.52C726.901,3094.52 727.96,3097.69 727.96,3101.61C727.96,3105.52 726.901,3108.69 725.597,3108.69L722.645,3108.69C721.341,3108.69 720.282,3105.52 720.282,3101.61C720.282,3097.69 721.341,3094.52 722.645,3094.52L725.597,3094.52ZM791.473,3041.85C792.179,3040.63 793.082,3041.35 793.49,3043.47C793.897,3045.59 793.655,3048.3 792.949,3049.52L790.392,3053.95C789.686,3055.17 788.783,3054.45 788.375,3052.33C787.968,3050.21 788.21,3047.5 788.916,3046.28L791.473,3041.85ZM729.458,3149.26C730.164,3148.04 731.068,3148.76 731.475,3150.88C731.882,3153 731.64,3155.71 730.935,3156.93L728.378,3161.36C727.672,3162.58 726.768,3161.86 726.361,3159.74C725.953,3157.62 726.195,3154.91 726.901,3153.69L729.458,3149.26ZM777.287,3002.53C777.694,3000.42 778.598,2999.69 779.304,3000.91C780.009,3002.13 780.251,3004.85 779.844,3006.96L778.368,3014.63C777.96,3016.75 777.057,3017.48 776.351,3016.26C775.645,3015.03 775.403,3012.32 775.811,3010.2L777.287,3002.53ZM741.483,3188.58C741.89,3186.46 742.794,3185.73 743.5,3186.96C744.205,3188.18 744.447,3190.89 744.04,3193.01L742.564,3200.68C742.156,3202.8 741.252,3203.52 740.547,3202.3C739.841,3201.08 739.599,3198.37 740.006,3196.25L741.483,3188.58ZM740.006,3006.96C739.599,3004.85 739.841,3002.13 740.547,3000.91C741.252,2999.69 742.156,3000.42 742.564,3002.53L744.04,3010.2C744.447,3012.32 744.205,3015.03 743.5,3016.26C742.794,3017.48 741.89,3016.75 741.483,3014.63L740.006,3006.96ZM775.811,3193.01C775.403,3190.89 775.645,3188.18 776.351,3186.96C777.057,3185.73 777.96,3186.46 778.368,3188.58L779.844,3196.25C780.251,3198.37 780.009,3201.08 779.304,3202.3C778.598,3203.52 777.694,3202.8 777.287,3200.68L775.811,3193.01ZM726.901,3049.52C726.195,3048.3 725.953,3045.59 726.361,3043.47C726.768,3041.35 727.672,3040.63 728.378,3041.85L730.935,3046.28C731.64,3047.5 731.882,3050.21 731.475,3052.33C731.068,3054.45 730.164,3055.17 729.458,3053.95L726.901,3049.52ZM788.916,3156.93C788.21,3155.71 787.968,3153 788.375,3150.88C788.783,3148.76 789.686,3148.04 790.392,3149.26L792.949,3153.69C793.655,3154.91 793.897,3157.62 793.49,3159.74C793.082,3161.86 792.179,3162.58 791.473,3161.36L788.916,3156.93ZM751.353,3085.18L756.049,3079.06C756.428,3084.22 757.361,3087.11 758.82,3087.11C760.395,3087.11 761.386,3083.26 761.386,3077.04C761.386,3071.36 760.482,3067.86 759.053,3067.86C758.12,3067.86 757.478,3069.17 757.07,3071.88L752.286,3068.91L753.978,3036.09L766.228,3036.09L766.228,3048.69L758.674,3048.69L758.178,3056.83C759.111,3055.52 759.84,3054.99 760.861,3054.99C764.77,3054.99 767.307,3063.13 767.307,3075.73C767.307,3090.52 763.953,3100.49 759.053,3100.49C755.232,3100.49 752.607,3095.33 751.353,3085.18ZM747.621,3155.81L744.829,3155.81L744.829,3121.12L747.558,3121.12L747.558,3125.75C748.85,3121.93 750.058,3120.18 751.267,3120.18C752.642,3120.18 753.704,3122.25 754.121,3125.75C755.35,3121.75 756.329,3120.18 757.621,3120.18C758.725,3120.18 759.808,3121.68 760.392,3124.06C760.871,3126 761.038,3128.31 761.038,3132.43L761.038,3155.81L758.35,3155.81L758.35,3133.31C758.35,3131.81 758.329,3130.93 758.267,3130.25C758.163,3128.12 757.517,3126.56 756.704,3126.56C755.871,3126.56 755.038,3128.12 754.329,3130.93L754.329,3155.81L751.6,3155.81L751.6,3133.12C751.6,3131.62 751.6,3130.68 751.579,3130.25C751.496,3128 750.913,3126.5 750.1,3126.5C749.204,3126.5 748.288,3128.25 747.621,3131.31L747.621,3155.81ZM765.996,3155.81L763.308,3155.81L763.308,3121.12L765.996,3121.12L765.996,3155.81ZM766.038,3116.81L763.308,3116.81L763.308,3107.18L766.038,3107.18L766.038,3116.81ZM770.975,3155.81L768.288,3155.81L768.288,3121.12L770.975,3121.12L770.975,3125.56C772.204,3121.75 773.225,3120.18 774.392,3120.18C775.454,3120.18 776.392,3121.5 776.954,3123.81C777.433,3125.75 777.642,3128.31 777.642,3132.56L777.642,3155.81L774.913,3155.81L774.913,3133.62C774.913,3131.68 774.913,3131.31 774.892,3130.87C774.788,3128.56 774.204,3127 773.392,3127C772.621,3127 771.725,3128.62 770.975,3131.5L770.975,3155.81Z"/>
            </g>
        </g>
    </g>
</svg>
