<?xml version="1.0" encoding="UTF-8" standalone="no"?>
<!DOCTYPE svg PUBLIC "-//W3C//DTD SVG 1.1//EN" "http://www.w3.org/Graphics/SVG/1.1/DTD/svg11.dtd">
<svg width="100%" height="100%" viewBox="0 0 29 29" version="1.1" xmlns="http://www.w3.org/2000/svg" xmlns:xlink="http://www.w3.org/1999/xlink" xml:space="preserve" xmlns:serif="http://www.serif.com/" style="fill-rule:evenodd;clip-rule:evenodd;stroke-linejoin:round;stroke-miterlimit:2;">
    <g>
        <path d="M1.417,25.848L1.417,3.806C1.417,2.848 2.212,2.071 3.192,2.071L25.154,2.071C26.134,2.071 26.929,2.848 26.929,3.806L26.929,25.848C26.929,26.308 26.742,26.749 26.409,27.075C26.077,27.4 25.626,27.583 25.155,27.583L3.19,27.583C2.72,27.583 2.269,27.4 1.935,27.075C1.603,26.749 1.417,26.308 1.417,25.848ZM25.795,22.072L25.795,7.038L22.216,7.038L22.216,8.659C22.216,9.058 22.055,9.443 21.774,9.725C21.492,10.008 21.106,10.167 20.706,10.167L20.405,10.167C20.096,10.419 19.13,11.205 18.601,11.634C18.258,11.914 17.76,11.887 17.449,11.571C17.034,11.149 16.332,10.435 16.069,10.167L15.79,10.167C15.39,10.167 15.008,10.008 14.724,9.726L14.724,9.725C14.441,9.443 14.282,9.059 14.282,8.659L14.282,7.038L10.792,7.038L10.792,22.072L16.073,22.072C15.294,21.552 14.742,20.673 14.602,19.408L14.602,14.729C14.602,14.576 14.662,14.43 14.77,14.322C14.878,14.215 15.024,14.154 15.176,14.154L21.092,14.154C21.245,14.154 21.391,14.215 21.499,14.322C21.606,14.43 21.667,14.576 21.667,14.729L21.667,16.047L22.69,16.047C23.435,16.047 24.039,16.651 24.039,17.396L24.039,18.824C24.039,19.182 23.897,19.524 23.644,19.778C23.391,20.031 23.048,20.173 22.69,20.173L21.521,20.173C21.279,21.035 20.807,21.664 20.196,22.072L25.795,22.072ZM10.792,22.781L10.792,24.422L25.795,24.422L25.795,22.781L10.792,22.781ZM21.667,16.797L21.667,19.408C21.667,19.413 21.666,19.418 21.666,19.423L22.69,19.423C22.848,19.423 23.001,19.361 23.112,19.248L23.113,19.248C23.226,19.135 23.289,18.983 23.289,18.824L23.289,17.396C23.289,17.066 23.021,16.797 22.69,16.797L21.667,16.797ZM10.083,7.038L2.551,7.038L2.551,24.422L10.083,24.422L10.083,7.038ZM5.777,18.521L5.777,19.053C5.777,19.2 5.658,19.319 5.511,19.319L4.271,19.319C4.124,19.319 4.005,19.2 4.005,19.053L4.005,18.521C4.005,18.375 4.124,18.256 4.271,18.256L5.511,18.256C5.658,18.256 5.777,18.375 5.777,18.521ZM5.784,13.561L5.784,14.092C5.784,14.239 5.665,14.358 5.518,14.358L4.278,14.358C4.131,14.358 4.012,14.239 4.012,14.092L4.012,13.561C4.012,13.414 4.131,13.295 4.278,13.295L5.518,13.295C5.665,13.295 5.784,13.414 5.784,13.561ZM8.619,18.521L8.619,19.053C8.619,19.2 8.5,19.319 8.353,19.319L7.113,19.319C6.966,19.319 6.847,19.2 6.847,19.053L6.847,18.521C6.847,18.375 6.966,18.256 7.113,18.256L8.353,18.256C8.5,18.256 8.619,18.375 8.619,18.521ZM8.626,13.561L8.626,14.092C8.626,14.239 8.507,14.358 8.36,14.358L7.12,14.358C6.973,14.358 6.854,14.239 6.854,14.092L6.854,13.561C6.854,13.414 6.973,13.295 7.12,13.295L8.36,13.295C8.507,13.295 8.626,13.414 8.626,13.561ZM8.619,16.041L8.619,16.573C8.619,16.719 8.5,16.838 8.353,16.838L7.113,16.838C6.966,16.838 6.847,16.719 6.847,16.573L6.847,16.041C6.847,15.895 6.966,15.775 7.113,15.775L8.353,15.775C8.5,15.775 8.619,15.895 8.619,16.041ZM5.777,16.041L5.777,16.573C5.777,16.719 5.658,16.838 5.511,16.838L4.271,16.838C4.124,16.838 4.005,16.719 4.005,16.573L4.005,16.041C4.005,15.895 4.124,15.775 4.271,15.775L5.511,15.775C5.658,15.775 5.777,15.895 5.777,16.041ZM8.232,9.07C8.382,9.07 8.526,9.13 8.632,9.236C8.739,9.342 8.799,9.487 8.799,9.637L8.799,11.664C8.799,11.814 8.739,11.958 8.632,12.065C8.526,12.171 8.382,12.231 8.232,12.231L4.399,12.231C4.248,12.231 4.104,12.171 3.998,12.065C3.891,11.958 3.832,11.814 3.832,11.664L3.832,9.637C3.832,9.487 3.891,9.342 3.998,9.236C4.104,9.13 4.248,9.07 4.399,9.07L8.232,9.07ZM4.54,11.522L8.09,11.522L8.09,9.779L4.54,9.779L4.54,11.522ZM19.282,10.167L17.063,10.167C17.36,10.469 17.708,10.823 17.955,11.074C18.008,11.128 18.094,11.133 18.153,11.085L18.154,11.085C18.455,10.84 18.899,10.479 19.282,10.167ZM21.507,7.038L14.991,7.038L14.991,8.659C14.991,8.871 15.075,9.074 15.225,9.224C15.375,9.373 15.578,9.458 15.79,9.458L20.706,9.458C20.918,9.458 21.123,9.374 21.272,9.224C21.421,9.075 21.507,8.871 21.507,8.659L21.507,7.038Z"/>
    </g>
</svg>
