<?xml version="1.0" encoding="UTF-8" standalone="no"?>
<!DOCTYPE svg PUBLIC "-//W3C//DTD SVG 1.1//EN" "http://www.w3.org/Graphics/SVG/1.1/DTD/svg11.dtd">
<svg width="100%" height="100%" viewBox="0 0 29 29" version="1.1" xmlns="http://www.w3.org/2000/svg" xmlns:xlink="http://www.w3.org/1999/xlink" xml:space="preserve" xmlns:serif="http://www.serif.com/" style="fill-rule:evenodd;clip-rule:evenodd;stroke-linejoin:round;stroke-miterlimit:2;">
    <g>
        <path d="M4.606,18.941C4.606,11.375 11.03,4.585 13.35,2.379C13.814,1.949 14.532,1.949 14.996,2.379C17.317,4.585 23.74,11.375 23.74,18.941C23.74,23.719 19.453,27.597 14.173,27.597C8.893,27.597 4.606,23.719 4.606,18.941ZM7.445,17.52C7.445,17.52 6.594,22.949 11.806,24.296C11.996,24.345 12.189,24.231 12.238,24.042C12.287,23.852 12.173,23.659 11.984,23.61C7.388,22.421 8.145,17.63 8.145,17.63C8.175,17.437 8.043,17.255 7.85,17.225C7.657,17.194 7.475,17.327 7.445,17.52Z"/>
    </g>
</svg>
