<?xml version="1.0" encoding="UTF-8" standalone="no"?>
<!DOCTYPE svg PUBLIC "-//W3C//DTD SVG 1.1//EN" "http://www.w3.org/Graphics/SVG/1.1/DTD/svg11.dtd">
<svg width="100%" height="100%" viewBox="0 0 29 29" version="1.1" xmlns="http://www.w3.org/2000/svg" xmlns:xlink="http://www.w3.org/1999/xlink" xml:space="preserve" xmlns:serif="http://www.serif.com/" style="fill-rule:evenodd;clip-rule:evenodd;stroke-linejoin:round;stroke-miterlimit:2;">
    <g>
        <path d="M4.606,18.941C4.606,11.375 11.03,4.585 13.35,2.379C13.814,1.949 14.532,1.949 14.996,2.379C17.317,4.585 23.74,11.375 23.74,18.941C23.74,23.719 19.453,27.597 14.173,27.597C8.893,27.597 4.606,23.719 4.606,18.941ZM5.74,18.941C5.74,23.126 9.548,26.463 14.173,26.463C18.798,26.463 22.606,23.126 22.606,18.941C22.606,11.745 16.442,5.319 14.222,3.208C14.193,3.185 14.152,3.185 14.12,3.211C11.902,5.322 5.74,11.746 5.74,18.941ZM7.445,17.52C7.475,17.327 7.657,17.194 7.85,17.225C8.043,17.255 8.175,17.437 8.145,17.63C8.145,17.63 7.388,22.421 11.984,23.61C12.173,23.659 12.287,23.852 12.238,24.042C12.189,24.231 11.996,24.345 11.806,24.296C6.594,22.949 7.445,17.52 7.445,17.52Z"/>
    </g>
</svg>
