<?xml version="1.0" encoding="UTF-8" standalone="no"?>
<!DOCTYPE svg PUBLIC "-//W3C//DTD SVG 1.1//EN" "http://www.w3.org/Graphics/SVG/1.1/DTD/svg11.dtd">
<svg width="100%" height="100%" viewBox="0 0 29 29" version="1.1" xmlns="http://www.w3.org/2000/svg" xmlns:xlink="http://www.w3.org/1999/xlink" xml:space="preserve" xmlns:serif="http://www.serif.com/" style="fill-rule:evenodd;clip-rule:evenodd;stroke-linejoin:round;stroke-miterlimit:2;">
    <g>
        <path d="M3.268,11.81L2.02,10.384L1.996,10.384C1.683,10.384 1.429,10.13 1.429,9.817C1.429,9.504 1.683,9.25 1.996,9.25L5.747,9.25C6.06,9.25 6.314,9.504 6.314,9.817C6.314,10.109 6.092,10.35 5.808,10.381L6.896,11.639C10.835,11.638 17.052,11.638 21.116,11.638L22.435,10.358C22.205,10.285 22.039,10.07 22.039,9.817C22.039,9.504 22.293,9.25 22.606,9.25L26.357,9.25C26.67,9.25 26.924,9.504 26.924,9.817C26.924,10.13 26.67,10.384 26.357,10.384L26.291,10.384L25.384,11.291C25.381,11.294 25.377,11.298 25.373,11.301L24.962,11.678C24.995,11.697 25.024,11.723 25.05,11.755C25.109,11.83 25.139,11.93 25.133,12.033C24.766,16.736 20.481,20.389 19.272,21.331L19.272,21.862C19.272,22.024 19.161,22.156 19.023,22.156L9.327,22.156C9.189,22.156 9.077,22.024 9.077,21.862L9.077,21.331C7.869,20.389 3.584,16.736 3.219,12.032C3.215,11.954 3.232,11.876 3.268,11.81ZM5.959,11.64L4.874,10.384L2.962,10.384L4.06,11.64L5.959,11.64ZM22.133,11.638L23.957,11.638L24.889,10.784L25.289,10.384L23.425,10.384L22.133,11.638ZM4.46,12.774C5.19,16.679 8.739,19.63 9.775,20.437C9.967,20.587 10.103,20.793 10.168,21.022L18.181,21.022C18.246,20.793 18.383,20.587 18.575,20.437C19.613,19.628 23.172,16.668 23.895,12.772C20.028,12.772 8.332,12.772 4.46,12.774ZM7.129,14.64C7.036,14.468 7.101,14.253 7.273,14.16C7.446,14.068 7.661,14.133 7.753,14.305C7.753,14.305 8.636,15.94 11.232,18.471C11.372,18.607 11.374,18.832 11.238,18.972C11.101,19.112 10.877,19.115 10.737,18.978C8.038,16.347 7.129,14.64 7.129,14.64Z"/>
    </g>
</svg>
