<?xml version="1.0" encoding="UTF-8" standalone="no"?>
<!DOCTYPE svg PUBLIC "-//W3C//DTD SVG 1.1//EN" "http://www.w3.org/Graphics/SVG/1.1/DTD/svg11.dtd">
<svg width="100%" height="100%" viewBox="0 0 29 29" version="1.1" xmlns="http://www.w3.org/2000/svg" xmlns:xlink="http://www.w3.org/1999/xlink" xml:space="preserve" xmlns:serif="http://www.serif.com/" style="fill-rule:evenodd;clip-rule:evenodd;stroke-linejoin:round;stroke-miterlimit:2;">
    <g>
        <path d="M3.268,11.81L2.02,10.384L1.996,10.384C1.683,10.384 1.429,10.13 1.429,9.817C1.429,9.504 1.683,9.25 1.996,9.25L5.747,9.25C6.06,9.25 6.314,9.504 6.314,9.817C6.314,10.109 6.092,10.35 5.808,10.381L6.896,11.639C10.835,11.638 17.052,11.638 21.116,11.638L22.435,10.358C22.205,10.285 22.039,10.07 22.039,9.817C22.039,9.504 22.293,9.25 22.606,9.25L26.357,9.25C26.67,9.25 26.924,9.504 26.924,9.817C26.924,10.13 26.67,10.384 26.357,10.384L26.291,10.384L25.384,11.291C25.381,11.294 25.377,11.298 25.373,11.301L24.962,11.678C24.995,11.697 25.024,11.723 25.05,11.755C25.109,11.83 25.139,11.93 25.133,12.033C24.766,16.736 20.481,20.389 19.272,21.331L19.272,21.862C19.272,22.024 19.161,22.156 19.023,22.156L9.327,22.156C9.189,22.156 9.077,22.024 9.077,21.862L9.077,21.331C7.869,20.389 3.584,16.736 3.219,12.032C3.215,11.954 3.232,11.876 3.268,11.81ZM23.957,11.638L24.889,10.784L25.289,10.384L23.425,10.384L22.133,11.638L23.957,11.638ZM5.959,11.64L4.874,10.384L2.962,10.384L4.06,11.64L5.959,11.64ZM6.066,14.286C6.066,14.286 6.975,15.992 9.674,18.624C9.814,18.76 10.038,18.758 10.175,18.618C10.311,18.478 10.309,18.253 10.169,18.116C7.573,15.585 6.69,13.951 6.69,13.951C6.598,13.778 6.383,13.713 6.21,13.806C6.038,13.898 5.973,14.113 6.066,14.286Z"/>
    </g>
</svg>
